<?xml version="1.0" encoding="UTF-8" standalone="no"?>
<!-- Created with Inkscape (http://www.inkscape.org/) -->

<svg
   xmlns:ns0="http://www.iki.fi/pav/software/textext/"
   xmlns:dc="http://purl.org/dc/elements/1.1/"
   xmlns:cc="http://creativecommons.org/ns#"
   xmlns:rdf="http://www.w3.org/1999/02/22-rdf-syntax-ns#"
   xmlns:svg="http://www.w3.org/2000/svg"
   xmlns="http://www.w3.org/2000/svg"
   xmlns:xlink="http://www.w3.org/1999/xlink"
   xmlns:sodipodi="http://sodipodi.sourceforge.net/DTD/sodipodi-0.dtd"
   xmlns:inkscape="http://www.inkscape.org/namespaces/inkscape"
   width="210mm"
   height="297mm"
   viewBox="0 0 744.09448819 1052.3622047"
   id="svg25391"
   version="1.1"
   inkscape:version="0.91 r13725"
   sodipodi:docname="ambiguous-cluster-bayes.svg"
   inkscape:export-filename="/home/sharad/workspace/research/talks/thesis-proposal/img/ambiguous-bayes.png"
   inkscape:export-xdpi="360"
   inkscape:export-ydpi="360">
  <sodipodi:namedview
     id="base"
     pagecolor="#ffffff"
     bordercolor="#666666"
     borderopacity="1.0"
     inkscape:pageopacity="0.0"
     inkscape:pageshadow="2"
     inkscape:zoom="5.6"
     inkscape:cx="191.99811"
     inkscape:cy="368.27289"
     inkscape:document-units="px"
     inkscape:current-layer="layer1"
     showgrid="false"
     inkscape:window-width="1920"
     inkscape:window-height="1026"
     inkscape:window-x="0"
     inkscape:window-y="0"
     inkscape:window-maximized="1" />
  <defs
     id="defs25393">
    <symbol
       id="svg_475"
       x="0px"
       y="0px"
       width="18px"
       height="18px"
       viewBox="0 0 18 18">
      <g
         id="svg_473"
         transform="translate(-158.857, -405.505)">
        <path
           id="svg_474"
           d="m176.067993,407.131989l0.375,0.550995c-0.033005,0.134003 -0.117004,0.28302 -0.251007,0.450012c-0.066986,0.049988 -0.100998,0.100983 -0.100998,0.151001c0,0.015991 0.016998,0.057983 0.050003,0.125c-2.153,2.169983 -3.979004,4.205994 -5.481995,6.108002c2.019989,2.67099 3.253998,4.199982 3.705002,4.582001c-0.084,0.467987 -0.266998,0.826996 -0.55101,1.076996c-0.099991,0.083984 -0.224991,0.182983 -0.375992,0.299988c-0.266006,0.218994 -0.399002,0.334991 -0.399002,0.352997l0,0.02301l0.074997,0.274994c-0.067993,0.03299 -0.126999,0.09201 -0.175995,0.175018c-0.184006,0.217987 -0.38501,0.368988 -0.600998,0.451996c-0.067001,0 -0.150009,-0.050018 -0.251999,-0.151001c-0.06601,-0.048004 -0.149002,-0.108002 -0.249008,-0.175018c-0.100998,-0.066986 -0.149002,-0.100983 -0.149002,-0.100983c-0.01799,-0.016022 -0.033997,-0.024994 -0.050995,-0.024994c0,0 -0.026001,0.017975 -0.076004,0.050995c-0.349991,0.434998 -0.666992,0.709991 -0.951004,0.826996c-0.049988,0 -0.116989,-0.024994 -0.199997,-0.076019c-0.533997,-0.548981 -1.100998,-1.267975 -1.701996,-2.151978c-0.5,-0.751007 -0.875,-1.287018 -1.126999,-1.604004l-0.249008,0.350006l-1.727997,2.255005c-0.216995,0.283997 -0.834,1.135986 -1.852997,2.552979l-0.326004,0l-0.47699,-0.523987c0.033997,-0.134003 0.051987,-0.201019 0.051987,-0.201019c0.033005,-0.099976 0.049011,-0.148987 0.049011,-0.148987c0,-0.100006 -0.050003,-0.151001 -0.150009,-0.151001s-0.25,0.052002 -0.449997,0.151001c-0.018005,0 -0.067001,0.023987 -0.149994,0.075012c-0.184006,-0.101013 -0.451004,-0.434998 -0.802002,-1.001007c-0.100006,-0.149017 -0.149002,-0.251007 -0.149002,-0.300995c0,-0.03302 0.042007,-0.109009 0.125,-0.226013c0.117004,-0.184998 0.175003,-0.333984 0.175003,-0.450012c0,-0.03299 -0.083008,-0.227997 -0.25,-0.575989c-0.083008,-0.251007 -0.124008,-0.375 -0.124008,-0.375l1.225998,-1.578003l2.729004,-3.152985c0.067001,-0.10202 0.134003,-0.184998 0.199997,-0.251007c-1.084,-1.886017 -1.967987,-3.755005 -2.653,-5.609009c-0.149994,-0.450989 -0.240997,-0.768005 -0.274994,-0.950989c0.233994,-0.367004 0.542007,-0.735992 0.927002,-1.102997c0.166992,0.134003 0.291,0.234985 0.375,0.300995c0.065994,0.117004 0.132996,0.174988 0.199997,0.174988c0.167007,0 0.274994,-0.123993 0.324997,-0.375c0.05101,-0.467987 0.259003,-0.709991 0.626999,-0.725983c0.117004,0 0.275009,0.108002 0.475006,0.324005c1.052994,1.720001 2.063004,3.246979 3.028992,4.582977c2.172012,-2.386993 3.964005,-4.230988 5.384003,-5.533997c0.284012,-0.25 0.44101,-0.375 0.475998,-0.375c0.083008,0 0.334,0.208008 0.752014,0.625l0.148987,0.201019c0,0.03299 -0.024994,0.090973 -0.074997,0.175995c-0.03299,0.03299 -0.048996,0.065979 -0.048996,0.098999c0,0.049988 0.149002,0.18399 0.447998,0.402008l0.376999,-0.100006l0.149002,0.222992z" />
      </g>
    </symbol>
    <linearGradient
       gradientUnits="userSpaceOnUse"
       id="svg_482"
       x1="23.402565"
       x2="23.389874"
       xlink:href="#svg_490"
       y1="44.066776"
       y2="42.883698" />
    <linearGradient
       id="svg_509">
      <stop
         id="svg_511"
         offset="0"
         stop-color="#cf0000" />
      <stop
         id="svg_510"
         offset="1"
         stop-color="#ff8ba4" />
    </linearGradient>
    <linearGradient
       gradientUnits="userSpaceOnUse"
       id="svg_484"
       x1="23.21398"
       x2="23.20129"
       xlink:href="#svg_509"
       y1="42.754631"
       y2="43.892632" />
    <linearGradient
       gradientUnits="userSpaceOnUse"
       id="svg_486"
       x1="23.349695"
       x2="23.44058"
       xlink:href="#svg_494"
       y1="42.767944"
       y2="43.710873" />
    <linearGradient
       gradientUnits="userSpaceOnUse"
       id="svg_488"
       x1="23.193102"
       x2="23.200001"
       xlink:href="#svg_496"
       y1="42.42923"
       y2="44" />
    <linearGradient
       id="svg_490">
      <stop
         id="svg_508"
         offset="0"
         stop-opacity="0"
         stop-color="#ffffff" />
      <stop
         id="svg_507"
         offset="1"
         stop-opacity="0.87451"
         stop-color="#ffffff" />
    </linearGradient>
    <linearGradient
       id="svg_494">
      <stop
         id="svg_502"
         offset="0"
         stop-color="#828282" />
      <stop
         id="svg_501"
         offset="1"
         stop-opacity="0.352941"
         stop-color="#929292" />
    </linearGradient>
    <linearGradient
       id="svg_496">
      <stop
         id="svg_499"
         offset="0"
         stop-color="#adadad" />
      <stop
         id="svg_498"
         offset="1"
         stop-color="#f0f0f0" />
    </linearGradient>
    <symbol
       height="50px"
       id="svg_512"
       width="50px">
      <g
         id="svg_479">
        <g
           id="svg_480"
           transform="matrix(31.25, 0, 0, 31.25, -625.023, -1325)">
          <path
             d="m24.000002,43.200001c0,0.441601 -0.3584,0.799999 -0.800001,0.799999c-0.441599,0 -0.799999,-0.358398 -0.799999,-0.799999c0,-0.441601 0.3584,-0.799999 0.799999,-0.799999c0.441601,0 0.800001,0.358398 0.800001,0.799999z"
             id="svg_487"
             transform="translate(-2.39926, -1e-06)"
             stroke-miterlimit="4"
             stroke-linejoin="round"
             stroke-linecap="round"
             stroke-width="0.8"
             fill="url(#svg_488)" />
          <path
             d="m23.906359,43.296204c0,0.329231 -0.2672,0.596428 -0.59643,0.596428c-0.329229,0 -0.59643,-0.267197 -0.59643,-0.596428c0,-0.329227 0.2672,-0.596428 0.59643,-0.596428c0.329229,0 0.59643,0.2672 0.59643,0.596428z"
             id="svg_485"
             transform="matrix(1.08247, 0, 0, 1.08247, -4.43165, -3.66702)"
             stroke-miterlimit="4"
             stroke-linejoin="round"
             stroke-linecap="round"
             stroke-width="0.8"
             fill="url(#svg_486)" />
          <path
             d="m23.906359,43.296204c0,0.329231 -0.2672,0.596428 -0.59643,0.596428c-0.329229,0 -0.59643,-0.267197 -0.59643,-0.596428c0,-0.329227 0.2672,-0.596428 0.59643,-0.596428c0.329229,0 0.59643,0.2672 0.59643,0.596428z"
             id="svg_483"
             transform="matrix(0.969072, 0, 0, 0.969072, -1.78826, 1.24286)"
             stroke-miterlimit="4"
             stroke-linejoin="round"
             stroke-linecap="round"
             stroke-width="0.8"
             fill="url(#svg_484)" />
          <path
             d="m23.906359,43.296204c0,0.329231 -0.2672,0.596428 -0.59643,0.596428c-0.329229,0 -0.59643,-0.267197 -0.59643,-0.596428c0,-0.329227 0.2672,-0.596428 0.59643,-0.596428c0.329229,0 0.59643,0.2672 0.59643,0.596428z"
             id="svg_481"
             transform="matrix(0.773196, 0, 0, 0.597938, 2.77686, 17.1188)"
             stroke-miterlimit="4"
             stroke-linejoin="round"
             stroke-linecap="round"
             stroke-width="0.8"
             fill="url(#svg_482)" />
        </g>
      </g>
    </symbol>
  </defs>
  <metadata
     id="metadata25396">
    <rdf:RDF>
      <cc:Work
         rdf:about="">
        <dc:format>image/svg+xml</dc:format>
        <dc:type
           rdf:resource="http://purl.org/dc/dcmitype/StillImage" />
        <dc:title />
      </cc:Work>
    </rdf:RDF>
  </metadata>
  <g
     id="layer1"
     inkscape:groupmode="layer"
     inkscape:label="Layer 1">
    <ellipse
       ry="11.132643"
       rx="11.210884"
       inkscape:export-ydpi="360"
       inkscape:export-xdpi="360"
       inkscape:export-filename="/home/sharad/workspace/research/research-exam/img/ambiguous-cluster3-2.png"
       cy="934.12073"
       cx="20.674585"
       id="path3336-2-3"
       style="opacity:1;fill:#23373b;fill-opacity:1;fill-rule:evenodd;stroke:#23373b;stroke-width:4.98339272;stroke-linecap:butt;stroke-linejoin:miter;stroke-miterlimit:4;stroke-dasharray:none;stroke-opacity:1" />
    <text
       transform="scale(1.0035079,0.99650437)"
       inkscape:export-ydpi="360"
       inkscape:export-xdpi="360"
       inkscape:export-filename="/home/sharad/workspace/research/research-exam/img/ambiguous-cluster3-2.png"
       sodipodi:linespacing="125%"
       id="text4897"
       y="943.67651"
       x="16.117258"
       style="font-style:normal;font-weight:normal;font-size:206.81080627px;line-height:125%;font-family:sans-serif;letter-spacing:0px;word-spacing:0px;fill:#ffffff;fill-opacity:1;stroke:none;stroke-width:1px;stroke-linecap:butt;stroke-linejoin:miter;stroke-opacity:1"
       xml:space="preserve"><tspan
         style="font-style:normal;font-variant:normal;font-weight:300;font-stretch:normal;font-size:19.93357086px;font-family:'Fira Sans';-inkscape-font-specification:'Fira Sans Light';fill:#ffffff;fill-opacity:1"
         y="943.67651"
         x="16.117258"
         id="tspan4899"
         sodipodi:role="line">1</tspan></text>
    <ellipse
       ry="11.132643"
       rx="11.210884"
       inkscape:export-ydpi="360"
       inkscape:export-xdpi="360"
       inkscape:export-filename="/home/sharad/workspace/research/research-exam/img/ambiguous-cluster3-2.png"
       cy="875.52264"
       cx="67.014458"
       id="path3336-2-3-0"
       style="opacity:1;fill:#23373b;fill-opacity:1;fill-rule:evenodd;stroke:#23373b;stroke-width:4.98339272;stroke-linecap:butt;stroke-linejoin:miter;stroke-miterlimit:4;stroke-dasharray:none;stroke-opacity:1" />
    <text
       transform="scale(1.0035079,0.99650437)"
       inkscape:export-ydpi="360"
       inkscape:export-xdpi="360"
       inkscape:export-filename="/home/sharad/workspace/research/research-exam/img/ambiguous-cluster3-2.png"
       sodipodi:linespacing="125%"
       id="text4897-1"
       y="884.87299"
       x="62.295158"
       style="font-style:normal;font-weight:normal;font-size:206.81080627px;line-height:125%;font-family:sans-serif;letter-spacing:0px;word-spacing:0px;fill:#ffffff;fill-opacity:1;stroke:none;stroke-width:1px;stroke-linecap:butt;stroke-linejoin:miter;stroke-opacity:1"
       xml:space="preserve"><tspan
         style="font-style:normal;font-variant:normal;font-weight:300;font-stretch:normal;font-size:19.93357086px;font-family:'Fira Sans';-inkscape-font-specification:'Fira Sans Light';fill:#ffffff;fill-opacity:1"
         y="884.87299"
         x="62.295158"
         id="tspan4899-7"
         sodipodi:role="line">2</tspan></text>
    <ellipse
       ry="11.132643"
       rx="11.210884"
       inkscape:export-ydpi="360"
       inkscape:export-xdpi="360"
       inkscape:export-filename="/home/sharad/workspace/research/research-exam/img/ambiguous-cluster3-2.png"
       cy="948.27399"
       cx="93.269051"
       id="path3336-2-3-0-5"
       style="opacity:1;fill:#23373b;fill-opacity:1;fill-rule:evenodd;stroke:#23373b;stroke-width:4.98339272;stroke-linecap:butt;stroke-linejoin:miter;stroke-miterlimit:4;stroke-dasharray:none;stroke-opacity:1" />
    <text
       transform="scale(1.0035079,0.99650437)"
       inkscape:export-ydpi="360"
       inkscape:export-xdpi="360"
       inkscape:export-filename="/home/sharad/workspace/research/research-exam/img/ambiguous-cluster3-2.png"
       sodipodi:linespacing="125%"
       id="text4897-1-3"
       y="957.87939"
       x="88.45797"
       style="font-style:normal;font-weight:normal;font-size:206.81080627px;line-height:125%;font-family:sans-serif;letter-spacing:0px;word-spacing:0px;fill:#ffffff;fill-opacity:1;stroke:none;stroke-width:1px;stroke-linecap:butt;stroke-linejoin:miter;stroke-opacity:1"
       xml:space="preserve"><tspan
         style="font-style:normal;font-variant:normal;font-weight:300;font-stretch:normal;font-size:19.93357086px;font-family:'Fira Sans';-inkscape-font-specification:'Fira Sans Light';fill:#ffffff;fill-opacity:1"
         y="957.87939"
         x="88.45797"
         id="tspan4899-7-1"
         sodipodi:role="line">3</tspan></text>
    <ellipse
       inkscape:export-filename="/home/sharad/workspace/research/talks/thesis-proposal/intro-3.png"
       inkscape:export-ydpi="360"
       inkscape:export-xdpi="360"
       style="color:#000000;clip-rule:nonzero;display:inline;overflow:visible;visibility:visible;opacity:1;isolation:auto;mix-blend-mode:normal;color-interpolation:sRGB;color-interpolation-filters:linearRGB;solid-color:#000000;solid-opacity:1;fill:none;fill-opacity:1;fill-rule:evenodd;stroke:#ff0000;stroke-width:3.06472254;stroke-linecap:butt;stroke-linejoin:miter;stroke-miterlimit:4;stroke-dasharray:none;stroke-dashoffset:0;stroke-opacity:1;color-rendering:auto;image-rendering:auto;shape-rendering:auto;text-rendering:auto;enable-background:accumulate"
       id="path6109"
       cx="-613.48431"
       cy="-912.84753"
       rx="54.892509"
       ry="35.805683"
       transform="matrix(-0.94869593,-0.31618988,0.57436896,-0.81859654,0,0)" />
    <ellipse
       inkscape:export-filename="/home/sharad/workspace/research/talks/thesis-proposal/intro-3.png"
       inkscape:export-ydpi="360"
       inkscape:export-xdpi="360"
       style="color:#000000;clip-rule:nonzero;display:inline;overflow:visible;visibility:visible;opacity:1;isolation:auto;mix-blend-mode:normal;color-interpolation:sRGB;color-interpolation-filters:linearRGB;solid-color:#000000;solid-opacity:1;fill:none;fill-opacity:1;fill-rule:evenodd;stroke:#009a0d;stroke-width:3.00157714;stroke-linecap:butt;stroke-linejoin:miter;stroke-miterlimit:4;stroke-dasharray:none;stroke-dashoffset:0;stroke-opacity:1;color-rendering:auto;image-rendering:auto;shape-rendering:auto;text-rendering:auto;enable-background:accumulate"
       id="path6109-3"
       cx="-446.82788"
       cy="-777.328"
       rx="21.081446"
       ry="21.154819"
       transform="matrix(-0.91672224,-0.39952514,0.44111655,-0.89744983,0,0)" />
    <ellipse
       ry="11.132643"
       rx="11.210884"
       inkscape:export-ydpi="360"
       inkscape:export-xdpi="360"
       inkscape:export-filename="/home/sharad/workspace/research/research-exam/img/ambiguous-cluster3-2.png"
       cy="942.16095"
       cx="162.49402"
       id="path3336-2-3-1"
       style="opacity:1;fill:#23373b;fill-opacity:1;fill-rule:evenodd;stroke:#23373b;stroke-width:4.98339272;stroke-linecap:butt;stroke-linejoin:miter;stroke-miterlimit:4;stroke-dasharray:none;stroke-opacity:1" />
    <text
       transform="scale(1.0035079,0.99650437)"
       inkscape:export-ydpi="360"
       inkscape:export-xdpi="360"
       inkscape:export-filename="/home/sharad/workspace/research/research-exam/img/ambiguous-cluster3-2.png"
       sodipodi:linespacing="125%"
       id="text4897-5"
       y="951.74487"
       x="157.44096"
       style="font-style:normal;font-weight:normal;font-size:206.81080627px;line-height:125%;font-family:sans-serif;letter-spacing:0px;word-spacing:0px;fill:#ffffff;fill-opacity:1;stroke:none;stroke-width:1px;stroke-linecap:butt;stroke-linejoin:miter;stroke-opacity:1"
       xml:space="preserve"><tspan
         style="font-style:normal;font-variant:normal;font-weight:300;font-stretch:normal;font-size:19.93357086px;font-family:'Fira Sans';-inkscape-font-specification:'Fira Sans Light';fill:#ffffff;fill-opacity:1"
         y="951.74487"
         x="157.44096"
         id="tspan4899-9"
         sodipodi:role="line">1</tspan></text>
    <ellipse
       ry="11.132643"
       rx="11.210884"
       inkscape:export-ydpi="360"
       inkscape:export-xdpi="360"
       inkscape:export-filename="/home/sharad/workspace/research/research-exam/img/ambiguous-cluster3-2.png"
       cy="883.56281"
       cx="208.83389"
       id="path3336-2-3-0-8"
       style="opacity:1;fill:#23373b;fill-opacity:1;fill-rule:evenodd;stroke:#23373b;stroke-width:4.98339272;stroke-linecap:butt;stroke-linejoin:miter;stroke-miterlimit:4;stroke-dasharray:none;stroke-opacity:1" />
    <text
       transform="scale(1.0035079,0.99650437)"
       inkscape:export-ydpi="360"
       inkscape:export-xdpi="360"
       inkscape:export-filename="/home/sharad/workspace/research/research-exam/img/ambiguous-cluster3-2.png"
       sodipodi:linespacing="125%"
       id="text4897-1-4"
       y="892.94141"
       x="203.61885"
       style="font-style:normal;font-weight:normal;font-size:206.81080627px;line-height:125%;font-family:sans-serif;letter-spacing:0px;word-spacing:0px;fill:#ffffff;fill-opacity:1;stroke:none;stroke-width:1px;stroke-linecap:butt;stroke-linejoin:miter;stroke-opacity:1"
       xml:space="preserve"><tspan
         style="font-style:normal;font-variant:normal;font-weight:300;font-stretch:normal;font-size:19.93357086px;font-family:'Fira Sans';-inkscape-font-specification:'Fira Sans Light';fill:#ffffff;fill-opacity:1"
         y="892.94141"
         x="203.61885"
         id="tspan4899-7-8"
         sodipodi:role="line">2</tspan></text>
    <ellipse
       ry="11.132643"
       rx="11.210884"
       inkscape:export-ydpi="360"
       inkscape:export-xdpi="360"
       inkscape:export-filename="/home/sharad/workspace/research/research-exam/img/ambiguous-cluster3-2.png"
       cy="956.31427"
       cx="235.08846"
       id="path3336-2-3-0-5-1"
       style="opacity:1;fill:#23373b;fill-opacity:1;fill-rule:evenodd;stroke:#23373b;stroke-width:4.98339272;stroke-linecap:butt;stroke-linejoin:miter;stroke-miterlimit:4;stroke-dasharray:none;stroke-opacity:1" />
    <text
       transform="scale(1.0035079,0.99650437)"
       inkscape:export-ydpi="360"
       inkscape:export-xdpi="360"
       inkscape:export-filename="/home/sharad/workspace/research/research-exam/img/ambiguous-cluster3-2.png"
       sodipodi:linespacing="125%"
       id="text4897-1-3-0"
       y="965.94775"
       x="229.78168"
       style="font-style:normal;font-weight:normal;font-size:206.81080627px;line-height:125%;font-family:sans-serif;letter-spacing:0px;word-spacing:0px;fill:#ffffff;fill-opacity:1;stroke:none;stroke-width:1px;stroke-linecap:butt;stroke-linejoin:miter;stroke-opacity:1"
       xml:space="preserve"><tspan
         style="font-style:normal;font-variant:normal;font-weight:300;font-stretch:normal;font-size:19.93357086px;font-family:'Fira Sans';-inkscape-font-specification:'Fira Sans Light';fill:#ffffff;fill-opacity:1"
         y="965.94775"
         x="229.78168"
         id="tspan4899-7-1-3"
         sodipodi:role="line">3</tspan></text>
    <ellipse
       inkscape:export-filename="/home/sharad/workspace/research/talks/thesis-proposal/intro-3.png"
       inkscape:export-ydpi="360"
       inkscape:export-xdpi="360"
       style="color:#000000;clip-rule:nonzero;display:inline;overflow:visible;visibility:visible;opacity:1;isolation:auto;mix-blend-mode:normal;color-interpolation:sRGB;color-interpolation-filters:linearRGB;solid-color:#000000;solid-opacity:1;fill:none;fill-opacity:1;fill-rule:evenodd;stroke:#ff0000;stroke-width:3.06472254;stroke-linecap:butt;stroke-linejoin:miter;stroke-miterlimit:4;stroke-dasharray:none;stroke-dashoffset:0;stroke-opacity:1;color-rendering:auto;image-rendering:auto;shape-rendering:auto;text-rendering:auto;enable-background:accumulate"
       id="path6109-0"
       cx="-920.4259"
       cy="81.329094"
       rx="54.892509"
       ry="35.805683"
       transform="matrix(-0.15302499,-0.98822232,0.99069917,0.13607041,0,0)" />
    <ellipse
       inkscape:export-filename="/home/sharad/workspace/research/talks/thesis-proposal/intro-3.png"
       inkscape:export-ydpi="360"
       inkscape:export-xdpi="360"
       style="color:#000000;clip-rule:nonzero;display:inline;overflow:visible;visibility:visible;opacity:1;isolation:auto;mix-blend-mode:normal;color-interpolation:sRGB;color-interpolation-filters:linearRGB;solid-color:#000000;solid-opacity:1;fill:none;fill-opacity:1;fill-rule:evenodd;stroke:#009a0d;stroke-width:3.00157714;stroke-linecap:butt;stroke-linejoin:miter;stroke-miterlimit:4;stroke-dasharray:none;stroke-dashoffset:0;stroke-opacity:1;color-rendering:auto;image-rendering:auto;shape-rendering:auto;text-rendering:auto;enable-background:accumulate"
       id="path6109-3-4"
       cx="-562.39288"
       cy="-799.27045"
       rx="21.081446"
       ry="21.154819"
       transform="matrix(-0.91672224,-0.39952514,0.44111655,-0.89744983,0,0)" />
    <ellipse
       ry="11.132643"
       rx="11.210884"
       inkscape:export-ydpi="360"
       inkscape:export-xdpi="360"
       inkscape:export-filename="/home/sharad/workspace/research/research-exam/img/ambiguous-cluster3-2.png"
       cy="939.38348"
       cx="302.91449"
       id="path3336-2-3-4"
       style="opacity:1;fill:#23373b;fill-opacity:1;fill-rule:evenodd;stroke:#23373b;stroke-width:4.98339272;stroke-linecap:butt;stroke-linejoin:miter;stroke-miterlimit:4;stroke-dasharray:none;stroke-opacity:1" />
    <text
       transform="scale(1.0035079,0.99650437)"
       inkscape:export-ydpi="360"
       inkscape:export-xdpi="360"
       inkscape:export-filename="/home/sharad/workspace/research/research-exam/img/ambiguous-cluster3-2.png"
       sodipodi:linespacing="125%"
       id="text4897-4"
       y="948.95776"
       x="297.37057"
       style="font-style:normal;font-weight:normal;font-size:206.81080627px;line-height:125%;font-family:sans-serif;letter-spacing:0px;word-spacing:0px;fill:#ffffff;fill-opacity:1;stroke:none;stroke-width:1px;stroke-linecap:butt;stroke-linejoin:miter;stroke-opacity:1"
       xml:space="preserve"><tspan
         style="font-style:normal;font-variant:normal;font-weight:300;font-stretch:normal;font-size:19.93357086px;font-family:'Fira Sans';-inkscape-font-specification:'Fira Sans Light';fill:#ffffff;fill-opacity:1"
         y="948.95776"
         x="297.37057"
         id="tspan4899-4"
         sodipodi:role="line">1</tspan></text>
    <ellipse
       ry="11.132643"
       rx="11.210884"
       inkscape:export-ydpi="360"
       inkscape:export-xdpi="360"
       inkscape:export-filename="/home/sharad/workspace/research/research-exam/img/ambiguous-cluster3-2.png"
       cy="880.7854"
       cx="349.25433"
       id="path3336-2-3-0-7"
       style="opacity:1;fill:#23373b;fill-opacity:1;fill-rule:evenodd;stroke:#23373b;stroke-width:4.98339272;stroke-linecap:butt;stroke-linejoin:miter;stroke-miterlimit:4;stroke-dasharray:none;stroke-opacity:1" />
    <text
       transform="scale(1.0035079,0.99650437)"
       inkscape:export-ydpi="360"
       inkscape:export-xdpi="360"
       inkscape:export-filename="/home/sharad/workspace/research/research-exam/img/ambiguous-cluster3-2.png"
       sodipodi:linespacing="125%"
       id="text4897-1-6"
       y="890.15424"
       x="343.54846"
       style="font-style:normal;font-weight:normal;font-size:206.81080627px;line-height:125%;font-family:sans-serif;letter-spacing:0px;word-spacing:0px;fill:#ffffff;fill-opacity:1;stroke:none;stroke-width:1px;stroke-linecap:butt;stroke-linejoin:miter;stroke-opacity:1"
       xml:space="preserve"><tspan
         style="font-style:normal;font-variant:normal;font-weight:300;font-stretch:normal;font-size:19.93357086px;font-family:'Fira Sans';-inkscape-font-specification:'Fira Sans Light';fill:#ffffff;fill-opacity:1"
         y="890.15424"
         x="343.54846"
         id="tspan4899-7-3"
         sodipodi:role="line">2</tspan></text>
    <ellipse
       ry="11.132643"
       rx="11.210884"
       inkscape:export-ydpi="360"
       inkscape:export-xdpi="360"
       inkscape:export-filename="/home/sharad/workspace/research/research-exam/img/ambiguous-cluster3-2.png"
       cy="953.5368"
       cx="375.50897"
       id="path3336-2-3-0-5-17"
       style="opacity:1;fill:#23373b;fill-opacity:1;fill-rule:evenodd;stroke:#23373b;stroke-width:4.98339272;stroke-linecap:butt;stroke-linejoin:miter;stroke-miterlimit:4;stroke-dasharray:none;stroke-opacity:1" />
    <text
       transform="scale(1.0035079,0.99650437)"
       inkscape:export-ydpi="360"
       inkscape:export-xdpi="360"
       inkscape:export-filename="/home/sharad/workspace/research/research-exam/img/ambiguous-cluster3-2.png"
       sodipodi:linespacing="125%"
       id="text4897-1-3-5"
       y="963.16064"
       x="369.7113"
       style="font-style:normal;font-weight:normal;font-size:206.81080627px;line-height:125%;font-family:sans-serif;letter-spacing:0px;word-spacing:0px;fill:#ffffff;fill-opacity:1;stroke:none;stroke-width:1px;stroke-linecap:butt;stroke-linejoin:miter;stroke-opacity:1"
       xml:space="preserve"><tspan
         style="font-style:normal;font-variant:normal;font-weight:300;font-stretch:normal;font-size:19.93357086px;font-family:'Fira Sans';-inkscape-font-specification:'Fira Sans Light';fill:#ffffff;fill-opacity:1"
         y="963.16064"
         x="369.7113"
         id="tspan4899-7-1-9"
         sodipodi:role="line">3</tspan></text>
    <ellipse
       inkscape:export-filename="/home/sharad/workspace/research/talks/thesis-proposal/intro-3.png"
       inkscape:export-ydpi="360"
       inkscape:export-xdpi="360"
       style="color:#000000;clip-rule:nonzero;display:inline;overflow:visible;visibility:visible;opacity:1;isolation:auto;mix-blend-mode:normal;color-interpolation:sRGB;color-interpolation-filters:linearRGB;solid-color:#000000;solid-opacity:1;fill:none;fill-opacity:1;fill-rule:evenodd;stroke:#ff0000;stroke-width:3.06472254;stroke-linecap:butt;stroke-linejoin:miter;stroke-miterlimit:4;stroke-dasharray:none;stroke-dashoffset:0;stroke-opacity:1;color-rendering:auto;image-rendering:auto;shape-rendering:auto;text-rendering:auto;enable-background:accumulate"
       id="path6109-6"
       cx="42.755398"
       cy="-953.86877"
       rx="54.892509"
       ry="35.805683"
       transform="matrix(-0.77969953,0.62615385,-0.37693787,-0.92623855,0,0)" />
    <ellipse
       inkscape:export-filename="/home/sharad/workspace/research/talks/thesis-proposal/intro-3.png"
       inkscape:export-ydpi="360"
       inkscape:export-xdpi="360"
       style="color:#000000;clip-rule:nonzero;display:inline;overflow:visible;visibility:visible;opacity:1;isolation:auto;mix-blend-mode:normal;color-interpolation:sRGB;color-interpolation-filters:linearRGB;solid-color:#000000;solid-opacity:1;fill:none;fill-opacity:1;fill-rule:evenodd;stroke:#009a0d;stroke-width:3.00157714;stroke-linecap:butt;stroke-linejoin:miter;stroke-miterlimit:4;stroke-dasharray:none;stroke-dashoffset:0;stroke-opacity:1;color-rendering:auto;image-rendering:auto;shape-rendering:auto;text-rendering:auto;enable-background:accumulate"
       id="path6109-3-2"
       cx="-758.04169"
       cy="-725.99805"
       rx="21.081446"
       ry="21.154819"
       transform="matrix(-0.91672224,-0.39952514,0.44111655,-0.89744983,0,0)" />
    <g
       ns0:preamble="/home/sharad/workspace/research/socal_posters/preamble.tex"
       ns0:text="$\\frac{1}{3}$"
       word-spacing="normal"
       letter-spacing="normal"
       font-size-adjust="none"
       font-stretch="normal"
       font-weight="normal"
       font-variant="normal"
       font-style="normal"
       stroke-miterlimit="10.433"
       xml:space="preserve"
       transform="matrix(5.0377818,0,0,-5.0377818,-1081.637,4345.3586)"
       id="content"
       style="font-style:normal;font-variant:normal;font-weight:normal;font-stretch:normal;letter-spacing:normal;word-spacing:normal;text-anchor:start;fill:none;fill-opacity:1;fill-rule:evenodd;stroke:#000000;stroke-linecap:butt;stroke-linejoin:miter;stroke-miterlimit:10.43299961;stroke-dasharray:none;stroke-dashoffset:0;stroke-opacity:1"><path
         id="path26132"
         d="m 226.96,665.59 0,0.01 0,0.01 0,0.01 0,0 0,0.01 0,0.01 0,0.01 0,0 0,0.01 0,0.01 0,0 0,0.01 0,0 0,0.01 0,0.01 0,0 -0.01,0.01 0,0 0,0.01 0,0.01 0,0.01 -0.01,0 0,0.01 -0.01,0 0,0.01 -0.01,0 0,0.01 -0.01,0 -0.01,0 0,0.01 -0.01,0 -0.01,0 -0.01,0 0,0 -0.01,0 0,0 -0.01,0 -0.01,0 0,0 -0.01,0 -0.01,0.01 0,0 -0.01,0 -0.01,0 -0.01,0 0,0 -0.01,0 -0.01,0 -0.01,0 -0.01,0 c -0.44,-0.44 -1.08,-0.45 -1.37,-0.45 l 0,-0.25 c 0.17,0 0.63,0 1.02,0.19 l 0,-3.55 c 0,-0.23 0,-0.32 -0.7,-0.32 l -0.27,0 0,-0.25 c 0.13,0 0.99,0.02 1.25,0.02 0.21,0 1.09,-0.02 1.24,-0.02 l 0,0.25 -0.26,0 c -0.7,0 -0.7,0.09 -0.7,0.32 z"
         inkscape:connector-curvature="0"
         style="fill:#000000;stroke-width:0" /><line
         id="line26134"
         y2="659.72998"
         x2="228.60001"
         y1="659.72998"
         x1="224.63"
         style="stroke-width:0.398" /><path
         id="path26136"
         d="m 226.53,656.13 0.05,0 0.05,-0.01 0.05,0 0.05,-0.01 0.04,-0.01 0.05,-0.01 0.04,-0.02 0.04,-0.01 0.05,-0.02 0.04,-0.02 0.04,-0.03 0.03,-0.02 0.04,-0.03 0.03,-0.03 0.04,-0.03 0.03,-0.03 0.03,-0.04 0.03,-0.04 0.03,-0.04 0.02,-0.04 0.02,-0.05 0.03,-0.04 0.02,-0.05 0.01,-0.06 0.02,-0.05 0.01,-0.06 0.02,-0.05 0.01,-0.06 0,-0.07 0.01,-0.06 0,-0.07 0,-0.07 c 0,-0.86 -0.5,-1.12 -0.9,-1.12 -0.28,0 -0.9,0.08 -1.19,0.49 0.33,0.01 0.41,0.24 0.41,0.39 0,0.22 -0.17,0.38 -0.39,0.38 -0.19,0 -0.39,-0.11 -0.39,-0.4 0,-0.66 0.73,-1.08 1.57,-1.08 0.97,0 1.64,0.65 1.64,1.34 0,0.55 -0.45,1.09 -1.21,1.25 0.73,0.27 0.99,0.79 0.99,1.22 0,0.55 -0.63,0.96 -1.4,0.96 -0.78,0 -1.37,-0.38 -1.37,-0.94 0,-0.23 0.15,-0.37 0.36,-0.37 0.22,0 0.36,0.16 0.36,0.36 0,0.2 -0.14,0.35 -0.36,0.36 0.24,0.31 0.73,0.39 0.98,0.39 0.32,0 0.76,-0.16 0.76,-0.76 0,-0.3 -0.1,-0.62 -0.28,-0.83 -0.23,-0.27 -0.43,-0.28 -0.78,-0.3 -0.17,-0.02 -0.18,-0.02 -0.22,-0.02 -0.01,0 -0.07,-0.02 -0.07,-0.1 0,-0.09 0.06,-0.09 0.18,-0.09 z"
         inkscape:connector-curvature="0"
         style="fill:#000000;stroke-width:0" /></g>    <g
       ns0:preamble="/home/sharad/workspace/research/socal_posters/preamble.tex"
       ns0:text="$\\frac{1}{3}$"
       word-spacing="normal"
       letter-spacing="normal"
       font-size-adjust="none"
       font-stretch="normal"
       font-weight="normal"
       font-variant="normal"
       font-style="normal"
       stroke-miterlimit="10.433"
       xml:space="preserve"
       transform="matrix(5.0377818,0,0,-5.0377818,-941.63695,4345.3586)"
       id="content-1"
       style="font-style:normal;font-variant:normal;font-weight:normal;font-stretch:normal;letter-spacing:normal;word-spacing:normal;text-anchor:start;fill:none;fill-opacity:1;fill-rule:evenodd;stroke:#000000;stroke-linecap:butt;stroke-linejoin:miter;stroke-miterlimit:10.43299961;stroke-dasharray:none;stroke-dashoffset:0;stroke-opacity:1"><path
         id="path26132-7"
         d="m 226.96,665.59 0,0.01 0,0.01 0,0.01 0,0 0,0.01 0,0.01 0,0.01 0,0 0,0.01 0,0.01 0,0 0,0.01 0,0 0,0.01 0,0.01 0,0 -0.01,0.01 0,0 0,0.01 0,0.01 0,0.01 -0.01,0 0,0.01 -0.01,0 0,0.01 -0.01,0 0,0.01 -0.01,0 -0.01,0 0,0.01 -0.01,0 -0.01,0 -0.01,0 0,0 -0.01,0 0,0 -0.01,0 -0.01,0 0,0 -0.01,0 -0.01,0.01 0,0 -0.01,0 -0.01,0 -0.01,0 0,0 -0.01,0 -0.01,0 -0.01,0 -0.01,0 c -0.44,-0.44 -1.08,-0.45 -1.37,-0.45 l 0,-0.25 c 0.17,0 0.63,0 1.02,0.19 l 0,-3.55 c 0,-0.23 0,-0.32 -0.7,-0.32 l -0.27,0 0,-0.25 c 0.13,0 0.99,0.02 1.25,0.02 0.21,0 1.09,-0.02 1.24,-0.02 l 0,0.25 -0.26,0 c -0.7,0 -0.7,0.09 -0.7,0.32 z"
         inkscape:connector-curvature="0"
         style="fill:#000000;stroke-width:0" /><line
         id="line26134-8"
         y2="659.72998"
         x2="228.60001"
         y1="659.72998"
         x1="224.63"
         style="stroke-width:0.398" /><path
         id="path26136-5"
         d="m 226.53,656.13 0.05,0 0.05,-0.01 0.05,0 0.05,-0.01 0.04,-0.01 0.05,-0.01 0.04,-0.02 0.04,-0.01 0.05,-0.02 0.04,-0.02 0.04,-0.03 0.03,-0.02 0.04,-0.03 0.03,-0.03 0.04,-0.03 0.03,-0.03 0.03,-0.04 0.03,-0.04 0.03,-0.04 0.02,-0.04 0.02,-0.05 0.03,-0.04 0.02,-0.05 0.01,-0.06 0.02,-0.05 0.01,-0.06 0.02,-0.05 0.01,-0.06 0,-0.07 0.01,-0.06 0,-0.07 0,-0.07 c 0,-0.86 -0.5,-1.12 -0.9,-1.12 -0.28,0 -0.9,0.08 -1.19,0.49 0.33,0.01 0.41,0.24 0.41,0.39 0,0.22 -0.17,0.38 -0.39,0.38 -0.19,0 -0.39,-0.11 -0.39,-0.4 0,-0.66 0.73,-1.08 1.57,-1.08 0.97,0 1.64,0.65 1.64,1.34 0,0.55 -0.45,1.09 -1.21,1.25 0.73,0.27 0.99,0.79 0.99,1.22 0,0.55 -0.63,0.96 -1.4,0.96 -0.78,0 -1.37,-0.38 -1.37,-0.94 0,-0.23 0.15,-0.37 0.36,-0.37 0.22,0 0.36,0.16 0.36,0.36 0,0.2 -0.14,0.35 -0.36,0.36 0.24,0.31 0.73,0.39 0.98,0.39 0.32,0 0.76,-0.16 0.76,-0.76 0,-0.3 -0.1,-0.62 -0.28,-0.83 -0.23,-0.27 -0.43,-0.28 -0.78,-0.3 -0.17,-0.02 -0.18,-0.02 -0.22,-0.02 -0.01,0 -0.07,-0.02 -0.07,-0.1 0,-0.09 0.06,-0.09 0.18,-0.09 z"
         inkscape:connector-curvature="0"
         style="fill:#000000;stroke-width:0" /></g>    <g
       ns0:preamble="/home/sharad/workspace/research/socal_posters/preamble.tex"
       ns0:text="$\\frac{1}{3}$"
       word-spacing="normal"
       letter-spacing="normal"
       font-size-adjust="none"
       font-stretch="normal"
       font-weight="normal"
       font-variant="normal"
       font-style="normal"
       stroke-miterlimit="10.433"
       xml:space="preserve"
       transform="matrix(5.0377818,0,0,-5.0377818,-801.63696,4345.3586)"
       id="content-7"
       style="font-style:normal;font-variant:normal;font-weight:normal;font-stretch:normal;letter-spacing:normal;word-spacing:normal;text-anchor:start;fill:none;fill-opacity:1;fill-rule:evenodd;stroke:#000000;stroke-linecap:butt;stroke-linejoin:miter;stroke-miterlimit:10.43299961;stroke-dasharray:none;stroke-dashoffset:0;stroke-opacity:1"><path
         id="path26132-4"
         d="m 226.96,665.59 0,0.01 0,0.01 0,0.01 0,0 0,0.01 0,0.01 0,0.01 0,0 0,0.01 0,0.01 0,0 0,0.01 0,0 0,0.01 0,0.01 0,0 -0.01,0.01 0,0 0,0.01 0,0.01 0,0.01 -0.01,0 0,0.01 -0.01,0 0,0.01 -0.01,0 0,0.01 -0.01,0 -0.01,0 0,0.01 -0.01,0 -0.01,0 -0.01,0 0,0 -0.01,0 0,0 -0.01,0 -0.01,0 0,0 -0.01,0 -0.01,0.01 0,0 -0.01,0 -0.01,0 -0.01,0 0,0 -0.01,0 -0.01,0 -0.01,0 -0.01,0 c -0.44,-0.44 -1.08,-0.45 -1.37,-0.45 l 0,-0.25 c 0.17,0 0.63,0 1.02,0.19 l 0,-3.55 c 0,-0.23 0,-0.32 -0.7,-0.32 l -0.27,0 0,-0.25 c 0.13,0 0.99,0.02 1.25,0.02 0.21,0 1.09,-0.02 1.24,-0.02 l 0,0.25 -0.26,0 c -0.7,0 -0.7,0.09 -0.7,0.32 z"
         inkscape:connector-curvature="0"
         style="fill:#000000;stroke-width:0" /><line
         id="line26134-1"
         y2="659.72998"
         x2="228.60001"
         y1="659.72998"
         x1="224.63"
         style="stroke-width:0.398" /><path
         id="path26136-8"
         d="m 226.53,656.13 0.05,0 0.05,-0.01 0.05,0 0.05,-0.01 0.04,-0.01 0.05,-0.01 0.04,-0.02 0.04,-0.01 0.05,-0.02 0.04,-0.02 0.04,-0.03 0.03,-0.02 0.04,-0.03 0.03,-0.03 0.04,-0.03 0.03,-0.03 0.03,-0.04 0.03,-0.04 0.03,-0.04 0.02,-0.04 0.02,-0.05 0.03,-0.04 0.02,-0.05 0.01,-0.06 0.02,-0.05 0.01,-0.06 0.02,-0.05 0.01,-0.06 0,-0.07 0.01,-0.06 0,-0.07 0,-0.07 c 0,-0.86 -0.5,-1.12 -0.9,-1.12 -0.28,0 -0.9,0.08 -1.19,0.49 0.33,0.01 0.41,0.24 0.41,0.39 0,0.22 -0.17,0.38 -0.39,0.38 -0.19,0 -0.39,-0.11 -0.39,-0.4 0,-0.66 0.73,-1.08 1.57,-1.08 0.97,0 1.64,0.65 1.64,1.34 0,0.55 -0.45,1.09 -1.21,1.25 0.73,0.27 0.99,0.79 0.99,1.22 0,0.55 -0.63,0.96 -1.4,0.96 -0.78,0 -1.37,-0.38 -1.37,-0.94 0,-0.23 0.15,-0.37 0.36,-0.37 0.22,0 0.36,0.16 0.36,0.36 0,0.2 -0.14,0.35 -0.36,0.36 0.24,0.31 0.73,0.39 0.98,0.39 0.32,0 0.76,-0.16 0.76,-0.76 0,-0.3 -0.1,-0.62 -0.28,-0.83 -0.23,-0.27 -0.43,-0.28 -0.78,-0.3 -0.17,-0.02 -0.18,-0.02 -0.22,-0.02 -0.01,0 -0.07,-0.02 -0.07,-0.1 0,-0.09 0.06,-0.09 0.18,-0.09 z"
         inkscape:connector-curvature="0"
         style="fill:#000000;stroke-width:0" /></g>    <ellipse
       ry="11.132643"
       rx="11.210884"
       inkscape:export-ydpi="360"
       inkscape:export-xdpi="360"
       inkscape:export-filename="/home/sharad/workspace/research/research-exam/img/ambiguous-cluster3-2.png"
       cy="634.60345"
       cx="177.10423"
       id="path3336-2-3-0-7-6"
       style="opacity:1;fill:#23373b;fill-opacity:1;fill-rule:evenodd;stroke:#23373b;stroke-width:4.98339272;stroke-linecap:butt;stroke-linejoin:miter;stroke-miterlimit:4;stroke-dasharray:none;stroke-opacity:1" />
    <text
       transform="scale(1.0035079,0.99650437)"
       inkscape:export-ydpi="360"
       inkscape:export-xdpi="360"
       inkscape:export-filename="/home/sharad/workspace/research/research-exam/img/ambiguous-cluster3-2.png"
       sodipodi:linespacing="125%"
       id="text4897-1-6-8"
       y="643.10876"
       x="172.00012"
       style="font-style:normal;font-weight:normal;font-size:206.81080627px;line-height:125%;font-family:sans-serif;letter-spacing:0px;word-spacing:0px;fill:#ffffff;fill-opacity:1;stroke:none;stroke-width:1px;stroke-linecap:butt;stroke-linejoin:miter;stroke-opacity:1"
       xml:space="preserve"><tspan
         style="font-style:normal;font-variant:normal;font-weight:300;font-stretch:normal;font-size:19.93357086px;font-family:'Fira Sans';-inkscape-font-specification:'Fira Sans Light';fill:#ffffff;fill-opacity:1"
         y="643.10876"
         x="172.00012"
         id="tspan4899-7-3-8"
         sodipodi:role="line">2</tspan></text>
    <ellipse
       ry="11.132643"
       rx="11.210884"
       inkscape:export-ydpi="360"
       inkscape:export-xdpi="360"
       inkscape:export-filename="/home/sharad/workspace/research/research-exam/img/ambiguous-cluster3-2.png"
       cy="707.35486"
       cx="203.35887"
       id="path3336-2-3-0-5-17-4"
       style="opacity:1;fill:#23373b;fill-opacity:1;fill-rule:evenodd;stroke:#23373b;stroke-width:4.98339272;stroke-linecap:butt;stroke-linejoin:miter;stroke-miterlimit:4;stroke-dasharray:none;stroke-opacity:1" />
    <text
       transform="scale(1.0035079,0.99650437)"
       inkscape:export-ydpi="360"
       inkscape:export-xdpi="360"
       inkscape:export-filename="/home/sharad/workspace/research/research-exam/img/ambiguous-cluster3-2.png"
       sodipodi:linespacing="125%"
       id="text4897-1-3-5-3"
       y="716.11517"
       x="198.16296"
       style="font-style:normal;font-weight:normal;font-size:206.81080627px;line-height:125%;font-family:sans-serif;letter-spacing:0px;word-spacing:0px;fill:#ffffff;fill-opacity:1;stroke:none;stroke-width:1px;stroke-linecap:butt;stroke-linejoin:miter;stroke-opacity:1"
       xml:space="preserve"><tspan
         style="font-style:normal;font-variant:normal;font-weight:300;font-stretch:normal;font-size:19.93357086px;font-family:'Fira Sans';-inkscape-font-specification:'Fira Sans Light';fill:#ffffff;fill-opacity:1"
         y="716.11517"
         x="198.16296"
         id="tspan4899-7-1-9-1"
         sodipodi:role="line">3</tspan></text>
    <path
       style="fill:none;fill-rule:evenodd;stroke:#000000;stroke-width:0.95695335;stroke-linecap:butt;stroke-linejoin:miter;stroke-miterlimit:4;stroke-dasharray:1.91390664, 0.95695332;stroke-dashoffset:0;stroke-opacity:1"
       d="m 181.05024,647.17468 19.32808,48.05361"
       id="path19797"
       inkscape:connector-curvature="0"
       inkscape:export-xdpi="360"
       inkscape:export-ydpi="360" />
    <g
       id="g19913"
       transform="matrix(0.92044168,0,0,0.92044168,-476.23636,-66.50353)"
       inkscape:export-xdpi="360"
       inkscape:export-ydpi="360">
      <title
         id="title19915">Layer 1</title>
      <text
         y="96.697098"
         x="-35.249199"
         xml:space="preserve"
         font-weight="normal"
         font-style="normal"
         font-size="40px"
         transform="matrix(1.03529,0,0,1.01137,-0.352941,-2.08749)"
         id="svg_3"
         style="font-style:normal;font-weight:normal;font-size:40px;font-family:'Kochi Gothic';fill:#003f7f;stroke-width:1px" />
      <use
         id="svg_476"
         xlink:href="#svg_475"
         transform="matrix(0.0287804,0,0,0.03037107,714.82522,781.4175)"
         y="-7.1589942"
         x="-71.494095"
         style="fill:#ff0000"
         width="100%"
         height="100%" />
    </g>
  </g>
</svg>
