<?xml version="1.0" encoding="UTF-8" standalone="no"?>
<!-- Created with Inkscape (http://www.inkscape.org/) -->

<svg
   xmlns:ns0="http://www.iki.fi/pav/software/textext/"
   xmlns:dc="http://purl.org/dc/elements/1.1/"
   xmlns:cc="http://creativecommons.org/ns#"
   xmlns:rdf="http://www.w3.org/1999/02/22-rdf-syntax-ns#"
   xmlns:svg="http://www.w3.org/2000/svg"
   xmlns="http://www.w3.org/2000/svg"
   xmlns:sodipodi="http://sodipodi.sourceforge.net/DTD/sodipodi-0.dtd"
   xmlns:inkscape="http://www.inkscape.org/namespaces/inkscape"
   width="210mm"
   height="297mm"
   viewBox="0 0 744.09448819 1052.3622047"
   id="svg25391"
   version="1.1"
   inkscape:version="0.91 r13725"
   sodipodi:docname="ambiguous-cluster-bayes.svg"
   inkscape:export-filename="/home/sharad/workspace/research/talks/thesis-proposal/img/ambiguous-bayes.png"
   inkscape:export-xdpi="360"
   inkscape:export-ydpi="360">
  <sodipodi:namedview
     id="base"
     pagecolor="#ffffff"
     bordercolor="#666666"
     borderopacity="1.0"
     inkscape:pageopacity="0.0"
     inkscape:pageshadow="2"
     inkscape:zoom="5.6"
     inkscape:cx="120.9377"
     inkscape:cy="364.55194"
     inkscape:document-units="px"
     inkscape:current-layer="layer1"
     showgrid="false"
     inkscape:window-width="1920"
     inkscape:window-height="1026"
     inkscape:window-x="0"
     inkscape:window-y="0"
     inkscape:window-maximized="1" />
  <defs
     id="defs25393" />
  <metadata
     id="metadata25396">
    <rdf:RDF>
      <cc:Work
         rdf:about="">
        <dc:format>image/svg+xml</dc:format>
        <dc:type
           rdf:resource="http://purl.org/dc/dcmitype/StillImage" />
        <dc:title />
      </cc:Work>
    </rdf:RDF>
  </metadata>
  <g
     id="layer1"
     inkscape:groupmode="layer"
     inkscape:label="Layer 1">
    <ellipse
       ry="11.132643"
       rx="11.210884"
       inkscape:export-ydpi="360"
       inkscape:export-xdpi="360"
       inkscape:export-filename="/home/sharad/workspace/research/research-exam/img/ambiguous-cluster3-2.png"
       cy="934.12073"
       cx="20.674585"
       id="path3336-2-3"
       style="opacity:1;fill:#23373b;fill-opacity:1;fill-rule:evenodd;stroke:#23373b;stroke-width:4.98339272;stroke-linecap:butt;stroke-linejoin:miter;stroke-miterlimit:4;stroke-dasharray:none;stroke-opacity:1" />
    <text
       transform="scale(1.0035079,0.99650437)"
       inkscape:export-ydpi="360"
       inkscape:export-xdpi="360"
       inkscape:export-filename="/home/sharad/workspace/research/research-exam/img/ambiguous-cluster3-2.png"
       sodipodi:linespacing="125%"
       id="text4897"
       y="943.67651"
       x="16.117258"
       style="font-style:normal;font-weight:normal;font-size:206.81080627px;line-height:125%;font-family:sans-serif;letter-spacing:0px;word-spacing:0px;fill:#ffffff;fill-opacity:1;stroke:none;stroke-width:1px;stroke-linecap:butt;stroke-linejoin:miter;stroke-opacity:1"
       xml:space="preserve"><tspan
         style="font-style:normal;font-variant:normal;font-weight:300;font-stretch:normal;font-size:19.93357086px;font-family:'Fira Sans';-inkscape-font-specification:'Fira Sans Light';fill:#ffffff;fill-opacity:1"
         y="943.67651"
         x="16.117258"
         id="tspan4899"
         sodipodi:role="line">1</tspan></text>
    <ellipse
       ry="11.132643"
       rx="11.210884"
       inkscape:export-ydpi="360"
       inkscape:export-xdpi="360"
       inkscape:export-filename="/home/sharad/workspace/research/research-exam/img/ambiguous-cluster3-2.png"
       cy="875.52264"
       cx="67.014458"
       id="path3336-2-3-0"
       style="opacity:1;fill:#23373b;fill-opacity:1;fill-rule:evenodd;stroke:#23373b;stroke-width:4.98339272;stroke-linecap:butt;stroke-linejoin:miter;stroke-miterlimit:4;stroke-dasharray:none;stroke-opacity:1" />
    <text
       transform="scale(1.0035079,0.99650437)"
       inkscape:export-ydpi="360"
       inkscape:export-xdpi="360"
       inkscape:export-filename="/home/sharad/workspace/research/research-exam/img/ambiguous-cluster3-2.png"
       sodipodi:linespacing="125%"
       id="text4897-1"
       y="884.87299"
       x="62.295158"
       style="font-style:normal;font-weight:normal;font-size:206.81080627px;line-height:125%;font-family:sans-serif;letter-spacing:0px;word-spacing:0px;fill:#ffffff;fill-opacity:1;stroke:none;stroke-width:1px;stroke-linecap:butt;stroke-linejoin:miter;stroke-opacity:1"
       xml:space="preserve"><tspan
         style="font-style:normal;font-variant:normal;font-weight:300;font-stretch:normal;font-size:19.93357086px;font-family:'Fira Sans';-inkscape-font-specification:'Fira Sans Light';fill:#ffffff;fill-opacity:1"
         y="884.87299"
         x="62.295158"
         id="tspan4899-7"
         sodipodi:role="line">2</tspan></text>
    <ellipse
       ry="11.132643"
       rx="11.210884"
       inkscape:export-ydpi="360"
       inkscape:export-xdpi="360"
       inkscape:export-filename="/home/sharad/workspace/research/research-exam/img/ambiguous-cluster3-2.png"
       cy="948.27399"
       cx="93.269051"
       id="path3336-2-3-0-5"
       style="opacity:1;fill:#23373b;fill-opacity:1;fill-rule:evenodd;stroke:#23373b;stroke-width:4.98339272;stroke-linecap:butt;stroke-linejoin:miter;stroke-miterlimit:4;stroke-dasharray:none;stroke-opacity:1" />
    <text
       transform="scale(1.0035079,0.99650437)"
       inkscape:export-ydpi="360"
       inkscape:export-xdpi="360"
       inkscape:export-filename="/home/sharad/workspace/research/research-exam/img/ambiguous-cluster3-2.png"
       sodipodi:linespacing="125%"
       id="text4897-1-3"
       y="957.87939"
       x="88.45797"
       style="font-style:normal;font-weight:normal;font-size:206.81080627px;line-height:125%;font-family:sans-serif;letter-spacing:0px;word-spacing:0px;fill:#ffffff;fill-opacity:1;stroke:none;stroke-width:1px;stroke-linecap:butt;stroke-linejoin:miter;stroke-opacity:1"
       xml:space="preserve"><tspan
         style="font-style:normal;font-variant:normal;font-weight:300;font-stretch:normal;font-size:19.93357086px;font-family:'Fira Sans';-inkscape-font-specification:'Fira Sans Light';fill:#ffffff;fill-opacity:1"
         y="957.87939"
         x="88.45797"
         id="tspan4899-7-1"
         sodipodi:role="line">3</tspan></text>
    <ellipse
       inkscape:export-filename="/home/sharad/workspace/research/talks/thesis-proposal/intro-3.png"
       inkscape:export-ydpi="360"
       inkscape:export-xdpi="360"
       style="color:#000000;clip-rule:nonzero;display:inline;overflow:visible;visibility:visible;opacity:1;isolation:auto;mix-blend-mode:normal;color-interpolation:sRGB;color-interpolation-filters:linearRGB;solid-color:#000000;solid-opacity:1;fill:none;fill-opacity:1;fill-rule:evenodd;stroke:#ff0000;stroke-width:3.06472254;stroke-linecap:butt;stroke-linejoin:miter;stroke-miterlimit:4;stroke-dasharray:none;stroke-dashoffset:0;stroke-opacity:1;color-rendering:auto;image-rendering:auto;shape-rendering:auto;text-rendering:auto;enable-background:accumulate"
       id="path6109"
       cx="-613.48431"
       cy="-912.84753"
       rx="54.892509"
       ry="35.805683"
       transform="matrix(-0.94869593,-0.31618988,0.57436896,-0.81859654,0,0)" />
    <ellipse
       inkscape:export-filename="/home/sharad/workspace/research/talks/thesis-proposal/intro-3.png"
       inkscape:export-ydpi="360"
       inkscape:export-xdpi="360"
       style="color:#000000;clip-rule:nonzero;display:inline;overflow:visible;visibility:visible;opacity:1;isolation:auto;mix-blend-mode:normal;color-interpolation:sRGB;color-interpolation-filters:linearRGB;solid-color:#000000;solid-opacity:1;fill:none;fill-opacity:1;fill-rule:evenodd;stroke:#009a0d;stroke-width:3.00157714;stroke-linecap:butt;stroke-linejoin:miter;stroke-miterlimit:4;stroke-dasharray:none;stroke-dashoffset:0;stroke-opacity:1;color-rendering:auto;image-rendering:auto;shape-rendering:auto;text-rendering:auto;enable-background:accumulate"
       id="path6109-3"
       cx="-446.82788"
       cy="-777.328"
       rx="21.081446"
       ry="21.154819"
       transform="matrix(-0.91672224,-0.39952514,0.44111655,-0.89744983,0,0)" />
    <ellipse
       ry="11.132643"
       rx="11.210884"
       inkscape:export-ydpi="360"
       inkscape:export-xdpi="360"
       inkscape:export-filename="/home/sharad/workspace/research/research-exam/img/ambiguous-cluster3-2.png"
       cy="942.16095"
       cx="162.49402"
       id="path3336-2-3-1"
       style="opacity:1;fill:#23373b;fill-opacity:1;fill-rule:evenodd;stroke:#23373b;stroke-width:4.98339272;stroke-linecap:butt;stroke-linejoin:miter;stroke-miterlimit:4;stroke-dasharray:none;stroke-opacity:1" />
    <text
       transform="scale(1.0035079,0.99650437)"
       inkscape:export-ydpi="360"
       inkscape:export-xdpi="360"
       inkscape:export-filename="/home/sharad/workspace/research/research-exam/img/ambiguous-cluster3-2.png"
       sodipodi:linespacing="125%"
       id="text4897-5"
       y="951.74487"
       x="157.44096"
       style="font-style:normal;font-weight:normal;font-size:206.81080627px;line-height:125%;font-family:sans-serif;letter-spacing:0px;word-spacing:0px;fill:#ffffff;fill-opacity:1;stroke:none;stroke-width:1px;stroke-linecap:butt;stroke-linejoin:miter;stroke-opacity:1"
       xml:space="preserve"><tspan
         style="font-style:normal;font-variant:normal;font-weight:300;font-stretch:normal;font-size:19.93357086px;font-family:'Fira Sans';-inkscape-font-specification:'Fira Sans Light';fill:#ffffff;fill-opacity:1"
         y="951.74487"
         x="157.44096"
         id="tspan4899-9"
         sodipodi:role="line">1</tspan></text>
    <ellipse
       ry="11.132643"
       rx="11.210884"
       inkscape:export-ydpi="360"
       inkscape:export-xdpi="360"
       inkscape:export-filename="/home/sharad/workspace/research/research-exam/img/ambiguous-cluster3-2.png"
       cy="883.56281"
       cx="208.83389"
       id="path3336-2-3-0-8"
       style="opacity:1;fill:#23373b;fill-opacity:1;fill-rule:evenodd;stroke:#23373b;stroke-width:4.98339272;stroke-linecap:butt;stroke-linejoin:miter;stroke-miterlimit:4;stroke-dasharray:none;stroke-opacity:1" />
    <text
       transform="scale(1.0035079,0.99650437)"
       inkscape:export-ydpi="360"
       inkscape:export-xdpi="360"
       inkscape:export-filename="/home/sharad/workspace/research/research-exam/img/ambiguous-cluster3-2.png"
       sodipodi:linespacing="125%"
       id="text4897-1-4"
       y="892.94141"
       x="203.61885"
       style="font-style:normal;font-weight:normal;font-size:206.81080627px;line-height:125%;font-family:sans-serif;letter-spacing:0px;word-spacing:0px;fill:#ffffff;fill-opacity:1;stroke:none;stroke-width:1px;stroke-linecap:butt;stroke-linejoin:miter;stroke-opacity:1"
       xml:space="preserve"><tspan
         style="font-style:normal;font-variant:normal;font-weight:300;font-stretch:normal;font-size:19.93357086px;font-family:'Fira Sans';-inkscape-font-specification:'Fira Sans Light';fill:#ffffff;fill-opacity:1"
         y="892.94141"
         x="203.61885"
         id="tspan4899-7-8"
         sodipodi:role="line">2</tspan></text>
    <ellipse
       ry="11.132643"
       rx="11.210884"
       inkscape:export-ydpi="360"
       inkscape:export-xdpi="360"
       inkscape:export-filename="/home/sharad/workspace/research/research-exam/img/ambiguous-cluster3-2.png"
       cy="956.31427"
       cx="235.08846"
       id="path3336-2-3-0-5-1"
       style="opacity:1;fill:#23373b;fill-opacity:1;fill-rule:evenodd;stroke:#23373b;stroke-width:4.98339272;stroke-linecap:butt;stroke-linejoin:miter;stroke-miterlimit:4;stroke-dasharray:none;stroke-opacity:1" />
    <text
       transform="scale(1.0035079,0.99650437)"
       inkscape:export-ydpi="360"
       inkscape:export-xdpi="360"
       inkscape:export-filename="/home/sharad/workspace/research/research-exam/img/ambiguous-cluster3-2.png"
       sodipodi:linespacing="125%"
       id="text4897-1-3-0"
       y="965.94775"
       x="229.78168"
       style="font-style:normal;font-weight:normal;font-size:206.81080627px;line-height:125%;font-family:sans-serif;letter-spacing:0px;word-spacing:0px;fill:#ffffff;fill-opacity:1;stroke:none;stroke-width:1px;stroke-linecap:butt;stroke-linejoin:miter;stroke-opacity:1"
       xml:space="preserve"><tspan
         style="font-style:normal;font-variant:normal;font-weight:300;font-stretch:normal;font-size:19.93357086px;font-family:'Fira Sans';-inkscape-font-specification:'Fira Sans Light';fill:#ffffff;fill-opacity:1"
         y="965.94775"
         x="229.78168"
         id="tspan4899-7-1-3"
         sodipodi:role="line">3</tspan></text>
    <ellipse
       inkscape:export-filename="/home/sharad/workspace/research/talks/thesis-proposal/intro-3.png"
       inkscape:export-ydpi="360"
       inkscape:export-xdpi="360"
       style="color:#000000;clip-rule:nonzero;display:inline;overflow:visible;visibility:visible;opacity:1;isolation:auto;mix-blend-mode:normal;color-interpolation:sRGB;color-interpolation-filters:linearRGB;solid-color:#000000;solid-opacity:1;fill:none;fill-opacity:1;fill-rule:evenodd;stroke:#ff0000;stroke-width:3.06472254;stroke-linecap:butt;stroke-linejoin:miter;stroke-miterlimit:4;stroke-dasharray:none;stroke-dashoffset:0;stroke-opacity:1;color-rendering:auto;image-rendering:auto;shape-rendering:auto;text-rendering:auto;enable-background:accumulate"
       id="path6109-0"
       cx="-920.4259"
       cy="81.329094"
       rx="54.892509"
       ry="35.805683"
       transform="matrix(-0.15302499,-0.98822232,0.99069917,0.13607041,0,0)" />
    <ellipse
       inkscape:export-filename="/home/sharad/workspace/research/talks/thesis-proposal/intro-3.png"
       inkscape:export-ydpi="360"
       inkscape:export-xdpi="360"
       style="color:#000000;clip-rule:nonzero;display:inline;overflow:visible;visibility:visible;opacity:1;isolation:auto;mix-blend-mode:normal;color-interpolation:sRGB;color-interpolation-filters:linearRGB;solid-color:#000000;solid-opacity:1;fill:none;fill-opacity:1;fill-rule:evenodd;stroke:#009a0d;stroke-width:3.00157714;stroke-linecap:butt;stroke-linejoin:miter;stroke-miterlimit:4;stroke-dasharray:none;stroke-dashoffset:0;stroke-opacity:1;color-rendering:auto;image-rendering:auto;shape-rendering:auto;text-rendering:auto;enable-background:accumulate"
       id="path6109-3-4"
       cx="-562.39288"
       cy="-799.27045"
       rx="21.081446"
       ry="21.154819"
       transform="matrix(-0.91672224,-0.39952514,0.44111655,-0.89744983,0,0)" />
    <ellipse
       ry="11.132643"
       rx="11.210884"
       inkscape:export-ydpi="360"
       inkscape:export-xdpi="360"
       inkscape:export-filename="/home/sharad/workspace/research/research-exam/img/ambiguous-cluster3-2.png"
       cy="939.38348"
       cx="302.91449"
       id="path3336-2-3-4"
       style="opacity:1;fill:#23373b;fill-opacity:1;fill-rule:evenodd;stroke:#23373b;stroke-width:4.98339272;stroke-linecap:butt;stroke-linejoin:miter;stroke-miterlimit:4;stroke-dasharray:none;stroke-opacity:1" />
    <text
       transform="scale(1.0035079,0.99650437)"
       inkscape:export-ydpi="360"
       inkscape:export-xdpi="360"
       inkscape:export-filename="/home/sharad/workspace/research/research-exam/img/ambiguous-cluster3-2.png"
       sodipodi:linespacing="125%"
       id="text4897-4"
       y="948.95776"
       x="297.37057"
       style="font-style:normal;font-weight:normal;font-size:206.81080627px;line-height:125%;font-family:sans-serif;letter-spacing:0px;word-spacing:0px;fill:#ffffff;fill-opacity:1;stroke:none;stroke-width:1px;stroke-linecap:butt;stroke-linejoin:miter;stroke-opacity:1"
       xml:space="preserve"><tspan
         style="font-style:normal;font-variant:normal;font-weight:300;font-stretch:normal;font-size:19.93357086px;font-family:'Fira Sans';-inkscape-font-specification:'Fira Sans Light';fill:#ffffff;fill-opacity:1"
         y="948.95776"
         x="297.37057"
         id="tspan4899-4"
         sodipodi:role="line">1</tspan></text>
    <ellipse
       ry="11.132643"
       rx="11.210884"
       inkscape:export-ydpi="360"
       inkscape:export-xdpi="360"
       inkscape:export-filename="/home/sharad/workspace/research/research-exam/img/ambiguous-cluster3-2.png"
       cy="880.7854"
       cx="349.25433"
       id="path3336-2-3-0-7"
       style="opacity:1;fill:#23373b;fill-opacity:1;fill-rule:evenodd;stroke:#23373b;stroke-width:4.98339272;stroke-linecap:butt;stroke-linejoin:miter;stroke-miterlimit:4;stroke-dasharray:none;stroke-opacity:1" />
    <text
       transform="scale(1.0035079,0.99650437)"
       inkscape:export-ydpi="360"
       inkscape:export-xdpi="360"
       inkscape:export-filename="/home/sharad/workspace/research/research-exam/img/ambiguous-cluster3-2.png"
       sodipodi:linespacing="125%"
       id="text4897-1-6"
       y="890.15424"
       x="343.54846"
       style="font-style:normal;font-weight:normal;font-size:206.81080627px;line-height:125%;font-family:sans-serif;letter-spacing:0px;word-spacing:0px;fill:#ffffff;fill-opacity:1;stroke:none;stroke-width:1px;stroke-linecap:butt;stroke-linejoin:miter;stroke-opacity:1"
       xml:space="preserve"><tspan
         style="font-style:normal;font-variant:normal;font-weight:300;font-stretch:normal;font-size:19.93357086px;font-family:'Fira Sans';-inkscape-font-specification:'Fira Sans Light';fill:#ffffff;fill-opacity:1"
         y="890.15424"
         x="343.54846"
         id="tspan4899-7-3"
         sodipodi:role="line">2</tspan></text>
    <ellipse
       ry="11.132643"
       rx="11.210884"
       inkscape:export-ydpi="360"
       inkscape:export-xdpi="360"
       inkscape:export-filename="/home/sharad/workspace/research/research-exam/img/ambiguous-cluster3-2.png"
       cy="953.5368"
       cx="375.50897"
       id="path3336-2-3-0-5-17"
       style="opacity:1;fill:#23373b;fill-opacity:1;fill-rule:evenodd;stroke:#23373b;stroke-width:4.98339272;stroke-linecap:butt;stroke-linejoin:miter;stroke-miterlimit:4;stroke-dasharray:none;stroke-opacity:1" />
    <text
       transform="scale(1.0035079,0.99650437)"
       inkscape:export-ydpi="360"
       inkscape:export-xdpi="360"
       inkscape:export-filename="/home/sharad/workspace/research/research-exam/img/ambiguous-cluster3-2.png"
       sodipodi:linespacing="125%"
       id="text4897-1-3-5"
       y="963.16064"
       x="369.7113"
       style="font-style:normal;font-weight:normal;font-size:206.81080627px;line-height:125%;font-family:sans-serif;letter-spacing:0px;word-spacing:0px;fill:#ffffff;fill-opacity:1;stroke:none;stroke-width:1px;stroke-linecap:butt;stroke-linejoin:miter;stroke-opacity:1"
       xml:space="preserve"><tspan
         style="font-style:normal;font-variant:normal;font-weight:300;font-stretch:normal;font-size:19.93357086px;font-family:'Fira Sans';-inkscape-font-specification:'Fira Sans Light';fill:#ffffff;fill-opacity:1"
         y="963.16064"
         x="369.7113"
         id="tspan4899-7-1-9"
         sodipodi:role="line">3</tspan></text>
    <ellipse
       inkscape:export-filename="/home/sharad/workspace/research/talks/thesis-proposal/intro-3.png"
       inkscape:export-ydpi="360"
       inkscape:export-xdpi="360"
       style="color:#000000;clip-rule:nonzero;display:inline;overflow:visible;visibility:visible;opacity:1;isolation:auto;mix-blend-mode:normal;color-interpolation:sRGB;color-interpolation-filters:linearRGB;solid-color:#000000;solid-opacity:1;fill:none;fill-opacity:1;fill-rule:evenodd;stroke:#ff0000;stroke-width:3.06472254;stroke-linecap:butt;stroke-linejoin:miter;stroke-miterlimit:4;stroke-dasharray:none;stroke-dashoffset:0;stroke-opacity:1;color-rendering:auto;image-rendering:auto;shape-rendering:auto;text-rendering:auto;enable-background:accumulate"
       id="path6109-6"
       cx="42.755398"
       cy="-953.86877"
       rx="54.892509"
       ry="35.805683"
       transform="matrix(-0.77969953,0.62615385,-0.37693787,-0.92623855,0,0)" />
    <ellipse
       inkscape:export-filename="/home/sharad/workspace/research/talks/thesis-proposal/intro-3.png"
       inkscape:export-ydpi="360"
       inkscape:export-xdpi="360"
       style="color:#000000;clip-rule:nonzero;display:inline;overflow:visible;visibility:visible;opacity:1;isolation:auto;mix-blend-mode:normal;color-interpolation:sRGB;color-interpolation-filters:linearRGB;solid-color:#000000;solid-opacity:1;fill:none;fill-opacity:1;fill-rule:evenodd;stroke:#009a0d;stroke-width:3.00157714;stroke-linecap:butt;stroke-linejoin:miter;stroke-miterlimit:4;stroke-dasharray:none;stroke-dashoffset:0;stroke-opacity:1;color-rendering:auto;image-rendering:auto;shape-rendering:auto;text-rendering:auto;enable-background:accumulate"
       id="path6109-3-2"
       cx="-758.04169"
       cy="-725.99805"
       rx="21.081446"
       ry="21.154819"
       transform="matrix(-0.91672224,-0.39952514,0.44111655,-0.89744983,0,0)" />
    <g
       ns0:preamble="/home/sharad/workspace/research/socal_posters/preamble.tex"
       ns0:text="$\\frac{1}{3}$"
       word-spacing="normal"
       letter-spacing="normal"
       font-size-adjust="none"
       font-stretch="normal"
       font-weight="normal"
       font-variant="normal"
       font-style="normal"
       stroke-miterlimit="10.433"
       xml:space="preserve"
       transform="matrix(5.0377818,0,0,-5.0377818,-1081.637,4345.3586)"
       id="content"
       style="font-style:normal;font-variant:normal;font-weight:normal;font-stretch:normal;letter-spacing:normal;word-spacing:normal;text-anchor:start;fill:none;fill-opacity:1;fill-rule:evenodd;stroke:#000000;stroke-linecap:butt;stroke-linejoin:miter;stroke-miterlimit:10.43299961;stroke-dasharray:none;stroke-dashoffset:0;stroke-opacity:1"><path
         id="path26132"
         d="m 226.96,665.59 0,0.01 0,0.01 0,0.01 0,0 0,0.01 0,0.01 0,0.01 0,0 0,0.01 0,0.01 0,0 0,0.01 0,0 0,0.01 0,0.01 0,0 -0.01,0.01 0,0 0,0.01 0,0.01 0,0.01 -0.01,0 0,0.01 -0.01,0 0,0.01 -0.01,0 0,0.01 -0.01,0 -0.01,0 0,0.01 -0.01,0 -0.01,0 -0.01,0 0,0 -0.01,0 0,0 -0.01,0 -0.01,0 0,0 -0.01,0 -0.01,0.01 0,0 -0.01,0 -0.01,0 -0.01,0 0,0 -0.01,0 -0.01,0 -0.01,0 -0.01,0 c -0.44,-0.44 -1.08,-0.45 -1.37,-0.45 l 0,-0.25 c 0.17,0 0.63,0 1.02,0.19 l 0,-3.55 c 0,-0.23 0,-0.32 -0.7,-0.32 l -0.27,0 0,-0.25 c 0.13,0 0.99,0.02 1.25,0.02 0.21,0 1.09,-0.02 1.24,-0.02 l 0,0.25 -0.26,0 c -0.7,0 -0.7,0.09 -0.7,0.32 z"
         inkscape:connector-curvature="0"
         style="fill:#000000;stroke-width:0" /><line
         id="line26134"
         y2="659.72998"
         x2="228.60001"
         y1="659.72998"
         x1="224.63"
         style="stroke-width:0.398" /><path
         id="path26136"
         d="m 226.53,656.13 0.05,0 0.05,-0.01 0.05,0 0.05,-0.01 0.04,-0.01 0.05,-0.01 0.04,-0.02 0.04,-0.01 0.05,-0.02 0.04,-0.02 0.04,-0.03 0.03,-0.02 0.04,-0.03 0.03,-0.03 0.04,-0.03 0.03,-0.03 0.03,-0.04 0.03,-0.04 0.03,-0.04 0.02,-0.04 0.02,-0.05 0.03,-0.04 0.02,-0.05 0.01,-0.06 0.02,-0.05 0.01,-0.06 0.02,-0.05 0.01,-0.06 0,-0.07 0.01,-0.06 0,-0.07 0,-0.07 c 0,-0.86 -0.5,-1.12 -0.9,-1.12 -0.28,0 -0.9,0.08 -1.19,0.49 0.33,0.01 0.41,0.24 0.41,0.39 0,0.22 -0.17,0.38 -0.39,0.38 -0.19,0 -0.39,-0.11 -0.39,-0.4 0,-0.66 0.73,-1.08 1.57,-1.08 0.97,0 1.64,0.65 1.64,1.34 0,0.55 -0.45,1.09 -1.21,1.25 0.73,0.27 0.99,0.79 0.99,1.22 0,0.55 -0.63,0.96 -1.4,0.96 -0.78,0 -1.37,-0.38 -1.37,-0.94 0,-0.23 0.15,-0.37 0.36,-0.37 0.22,0 0.36,0.16 0.36,0.36 0,0.2 -0.14,0.35 -0.36,0.36 0.24,0.31 0.73,0.39 0.98,0.39 0.32,0 0.76,-0.16 0.76,-0.76 0,-0.3 -0.1,-0.62 -0.28,-0.83 -0.23,-0.27 -0.43,-0.28 -0.78,-0.3 -0.17,-0.02 -0.18,-0.02 -0.22,-0.02 -0.01,0 -0.07,-0.02 -0.07,-0.1 0,-0.09 0.06,-0.09 0.18,-0.09 z"
         inkscape:connector-curvature="0"
         style="fill:#000000;stroke-width:0" /></g>    <g
       ns0:preamble="/home/sharad/workspace/research/socal_posters/preamble.tex"
       ns0:text="$\\frac{1}{3}$"
       word-spacing="normal"
       letter-spacing="normal"
       font-size-adjust="none"
       font-stretch="normal"
       font-weight="normal"
       font-variant="normal"
       font-style="normal"
       stroke-miterlimit="10.433"
       xml:space="preserve"
       transform="matrix(5.0377818,0,0,-5.0377818,-941.63695,4345.3586)"
       id="content-1"
       style="font-style:normal;font-variant:normal;font-weight:normal;font-stretch:normal;letter-spacing:normal;word-spacing:normal;text-anchor:start;fill:none;fill-opacity:1;fill-rule:evenodd;stroke:#000000;stroke-linecap:butt;stroke-linejoin:miter;stroke-miterlimit:10.43299961;stroke-dasharray:none;stroke-dashoffset:0;stroke-opacity:1"><path
         id="path26132-7"
         d="m 226.96,665.59 0,0.01 0,0.01 0,0.01 0,0 0,0.01 0,0.01 0,0.01 0,0 0,0.01 0,0.01 0,0 0,0.01 0,0 0,0.01 0,0.01 0,0 -0.01,0.01 0,0 0,0.01 0,0.01 0,0.01 -0.01,0 0,0.01 -0.01,0 0,0.01 -0.01,0 0,0.01 -0.01,0 -0.01,0 0,0.01 -0.01,0 -0.01,0 -0.01,0 0,0 -0.01,0 0,0 -0.01,0 -0.01,0 0,0 -0.01,0 -0.01,0.01 0,0 -0.01,0 -0.01,0 -0.01,0 0,0 -0.01,0 -0.01,0 -0.01,0 -0.01,0 c -0.44,-0.44 -1.08,-0.45 -1.37,-0.45 l 0,-0.25 c 0.17,0 0.63,0 1.02,0.19 l 0,-3.55 c 0,-0.23 0,-0.32 -0.7,-0.32 l -0.27,0 0,-0.25 c 0.13,0 0.99,0.02 1.25,0.02 0.21,0 1.09,-0.02 1.24,-0.02 l 0,0.25 -0.26,0 c -0.7,0 -0.7,0.09 -0.7,0.32 z"
         inkscape:connector-curvature="0"
         style="fill:#000000;stroke-width:0" /><line
         id="line26134-8"
         y2="659.72998"
         x2="228.60001"
         y1="659.72998"
         x1="224.63"
         style="stroke-width:0.398" /><path
         id="path26136-5"
         d="m 226.53,656.13 0.05,0 0.05,-0.01 0.05,0 0.05,-0.01 0.04,-0.01 0.05,-0.01 0.04,-0.02 0.04,-0.01 0.05,-0.02 0.04,-0.02 0.04,-0.03 0.03,-0.02 0.04,-0.03 0.03,-0.03 0.04,-0.03 0.03,-0.03 0.03,-0.04 0.03,-0.04 0.03,-0.04 0.02,-0.04 0.02,-0.05 0.03,-0.04 0.02,-0.05 0.01,-0.06 0.02,-0.05 0.01,-0.06 0.02,-0.05 0.01,-0.06 0,-0.07 0.01,-0.06 0,-0.07 0,-0.07 c 0,-0.86 -0.5,-1.12 -0.9,-1.12 -0.28,0 -0.9,0.08 -1.19,0.49 0.33,0.01 0.41,0.24 0.41,0.39 0,0.22 -0.17,0.38 -0.39,0.38 -0.19,0 -0.39,-0.11 -0.39,-0.4 0,-0.66 0.73,-1.08 1.57,-1.08 0.97,0 1.64,0.65 1.64,1.34 0,0.55 -0.45,1.09 -1.21,1.25 0.73,0.27 0.99,0.79 0.99,1.22 0,0.55 -0.63,0.96 -1.4,0.96 -0.78,0 -1.37,-0.38 -1.37,-0.94 0,-0.23 0.15,-0.37 0.36,-0.37 0.22,0 0.36,0.16 0.36,0.36 0,0.2 -0.14,0.35 -0.36,0.36 0.24,0.31 0.73,0.39 0.98,0.39 0.32,0 0.76,-0.16 0.76,-0.76 0,-0.3 -0.1,-0.62 -0.28,-0.83 -0.23,-0.27 -0.43,-0.28 -0.78,-0.3 -0.17,-0.02 -0.18,-0.02 -0.22,-0.02 -0.01,0 -0.07,-0.02 -0.07,-0.1 0,-0.09 0.06,-0.09 0.18,-0.09 z"
         inkscape:connector-curvature="0"
         style="fill:#000000;stroke-width:0" /></g>    <g
       ns0:preamble="/home/sharad/workspace/research/socal_posters/preamble.tex"
       ns0:text="$\\frac{1}{3}$"
       word-spacing="normal"
       letter-spacing="normal"
       font-size-adjust="none"
       font-stretch="normal"
       font-weight="normal"
       font-variant="normal"
       font-style="normal"
       stroke-miterlimit="10.433"
       xml:space="preserve"
       transform="matrix(5.0377818,0,0,-5.0377818,-801.63696,4345.3586)"
       id="content-7"
       style="font-style:normal;font-variant:normal;font-weight:normal;font-stretch:normal;letter-spacing:normal;word-spacing:normal;text-anchor:start;fill:none;fill-opacity:1;fill-rule:evenodd;stroke:#000000;stroke-linecap:butt;stroke-linejoin:miter;stroke-miterlimit:10.43299961;stroke-dasharray:none;stroke-dashoffset:0;stroke-opacity:1"><path
         id="path26132-4"
         d="m 226.96,665.59 0,0.01 0,0.01 0,0.01 0,0 0,0.01 0,0.01 0,0.01 0,0 0,0.01 0,0.01 0,0 0,0.01 0,0 0,0.01 0,0.01 0,0 -0.01,0.01 0,0 0,0.01 0,0.01 0,0.01 -0.01,0 0,0.01 -0.01,0 0,0.01 -0.01,0 0,0.01 -0.01,0 -0.01,0 0,0.01 -0.01,0 -0.01,0 -0.01,0 0,0 -0.01,0 0,0 -0.01,0 -0.01,0 0,0 -0.01,0 -0.01,0.01 0,0 -0.01,0 -0.01,0 -0.01,0 0,0 -0.01,0 -0.01,0 -0.01,0 -0.01,0 c -0.44,-0.44 -1.08,-0.45 -1.37,-0.45 l 0,-0.25 c 0.17,0 0.63,0 1.02,0.19 l 0,-3.55 c 0,-0.23 0,-0.32 -0.7,-0.32 l -0.27,0 0,-0.25 c 0.13,0 0.99,0.02 1.25,0.02 0.21,0 1.09,-0.02 1.24,-0.02 l 0,0.25 -0.26,0 c -0.7,0 -0.7,0.09 -0.7,0.32 z"
         inkscape:connector-curvature="0"
         style="fill:#000000;stroke-width:0" /><line
         id="line26134-1"
         y2="659.72998"
         x2="228.60001"
         y1="659.72998"
         x1="224.63"
         style="stroke-width:0.398" /><path
         id="path26136-8"
         d="m 226.53,656.13 0.05,0 0.05,-0.01 0.05,0 0.05,-0.01 0.04,-0.01 0.05,-0.01 0.04,-0.02 0.04,-0.01 0.05,-0.02 0.04,-0.02 0.04,-0.03 0.03,-0.02 0.04,-0.03 0.03,-0.03 0.04,-0.03 0.03,-0.03 0.03,-0.04 0.03,-0.04 0.03,-0.04 0.02,-0.04 0.02,-0.05 0.03,-0.04 0.02,-0.05 0.01,-0.06 0.02,-0.05 0.01,-0.06 0.02,-0.05 0.01,-0.06 0,-0.07 0.01,-0.06 0,-0.07 0,-0.07 c 0,-0.86 -0.5,-1.12 -0.9,-1.12 -0.28,0 -0.9,0.08 -1.19,0.49 0.33,0.01 0.41,0.24 0.41,0.39 0,0.22 -0.17,0.38 -0.39,0.38 -0.19,0 -0.39,-0.11 -0.39,-0.4 0,-0.66 0.73,-1.08 1.57,-1.08 0.97,0 1.64,0.65 1.64,1.34 0,0.55 -0.45,1.09 -1.21,1.25 0.73,0.27 0.99,0.79 0.99,1.22 0,0.55 -0.63,0.96 -1.4,0.96 -0.78,0 -1.37,-0.38 -1.37,-0.94 0,-0.23 0.15,-0.37 0.36,-0.37 0.22,0 0.36,0.16 0.36,0.36 0,0.2 -0.14,0.35 -0.36,0.36 0.24,0.31 0.73,0.39 0.98,0.39 0.32,0 0.76,-0.16 0.76,-0.76 0,-0.3 -0.1,-0.62 -0.28,-0.83 -0.23,-0.27 -0.43,-0.28 -0.78,-0.3 -0.17,-0.02 -0.18,-0.02 -0.22,-0.02 -0.01,0 -0.07,-0.02 -0.07,-0.1 0,-0.09 0.06,-0.09 0.18,-0.09 z"
         inkscape:connector-curvature="0"
         style="fill:#000000;stroke-width:0" /></g>    <ellipse
       ry="11.132643"
       rx="11.210884"
       inkscape:export-ydpi="360"
       inkscape:export-xdpi="360"
       inkscape:export-filename="/home/sharad/workspace/research/research-exam/img/ambiguous-cluster3-2.png"
       cy="693.20154"
       cx="130.76437"
       id="path3336-2-3-4-0"
       style="opacity:1;fill:#23373b;fill-opacity:1;fill-rule:evenodd;stroke:#23373b;stroke-width:4.98339272;stroke-linecap:butt;stroke-linejoin:miter;stroke-miterlimit:4;stroke-dasharray:none;stroke-opacity:1" />
    <text
       transform="scale(1.0035079,0.99650437)"
       inkscape:export-ydpi="360"
       inkscape:export-xdpi="360"
       inkscape:export-filename="/home/sharad/workspace/research/research-exam/img/ambiguous-cluster3-2.png"
       sodipodi:linespacing="125%"
       id="text4897-4-7"
       y="701.91229"
       x="125.82224"
       style="font-style:normal;font-weight:normal;font-size:206.81080627px;line-height:125%;font-family:sans-serif;letter-spacing:0px;word-spacing:0px;fill:#ffffff;fill-opacity:1;stroke:none;stroke-width:1px;stroke-linecap:butt;stroke-linejoin:miter;stroke-opacity:1"
       xml:space="preserve"><tspan
         style="font-style:normal;font-variant:normal;font-weight:300;font-stretch:normal;font-size:19.93357086px;font-family:'Fira Sans';-inkscape-font-specification:'Fira Sans Light';fill:#ffffff;fill-opacity:1"
         y="701.91229"
         x="125.82224"
         id="tspan4899-4-8"
         sodipodi:role="line">1</tspan></text>
    <ellipse
       ry="11.132643"
       rx="11.210884"
       inkscape:export-ydpi="360"
       inkscape:export-xdpi="360"
       inkscape:export-filename="/home/sharad/workspace/research/research-exam/img/ambiguous-cluster3-2.png"
       cy="634.60345"
       cx="177.10423"
       id="path3336-2-3-0-7-6"
       style="opacity:1;fill:#23373b;fill-opacity:1;fill-rule:evenodd;stroke:#23373b;stroke-width:4.98339272;stroke-linecap:butt;stroke-linejoin:miter;stroke-miterlimit:4;stroke-dasharray:none;stroke-opacity:1" />
    <text
       transform="scale(1.0035079,0.99650437)"
       inkscape:export-ydpi="360"
       inkscape:export-xdpi="360"
       inkscape:export-filename="/home/sharad/workspace/research/research-exam/img/ambiguous-cluster3-2.png"
       sodipodi:linespacing="125%"
       id="text4897-1-6-8"
       y="643.10876"
       x="172.00012"
       style="font-style:normal;font-weight:normal;font-size:206.81080627px;line-height:125%;font-family:sans-serif;letter-spacing:0px;word-spacing:0px;fill:#ffffff;fill-opacity:1;stroke:none;stroke-width:1px;stroke-linecap:butt;stroke-linejoin:miter;stroke-opacity:1"
       xml:space="preserve"><tspan
         style="font-style:normal;font-variant:normal;font-weight:300;font-stretch:normal;font-size:19.93357086px;font-family:'Fira Sans';-inkscape-font-specification:'Fira Sans Light';fill:#ffffff;fill-opacity:1"
         y="643.10876"
         x="172.00012"
         id="tspan4899-7-3-8"
         sodipodi:role="line">2</tspan></text>
    <ellipse
       ry="11.132643"
       rx="11.210884"
       inkscape:export-ydpi="360"
       inkscape:export-xdpi="360"
       inkscape:export-filename="/home/sharad/workspace/research/research-exam/img/ambiguous-cluster3-2.png"
       cy="707.35486"
       cx="203.35887"
       id="path3336-2-3-0-5-17-4"
       style="opacity:1;fill:#23373b;fill-opacity:1;fill-rule:evenodd;stroke:#23373b;stroke-width:4.98339272;stroke-linecap:butt;stroke-linejoin:miter;stroke-miterlimit:4;stroke-dasharray:none;stroke-opacity:1" />
    <text
       transform="scale(1.0035079,0.99650437)"
       inkscape:export-ydpi="360"
       inkscape:export-xdpi="360"
       inkscape:export-filename="/home/sharad/workspace/research/research-exam/img/ambiguous-cluster3-2.png"
       sodipodi:linespacing="125%"
       id="text4897-1-3-5-3"
       y="716.11517"
       x="198.16296"
       style="font-style:normal;font-weight:normal;font-size:206.81080627px;line-height:125%;font-family:sans-serif;letter-spacing:0px;word-spacing:0px;fill:#ffffff;fill-opacity:1;stroke:none;stroke-width:1px;stroke-linecap:butt;stroke-linejoin:miter;stroke-opacity:1"
       xml:space="preserve"><tspan
         style="font-style:normal;font-variant:normal;font-weight:300;font-stretch:normal;font-size:19.93357086px;font-family:'Fira Sans';-inkscape-font-specification:'Fira Sans Light';fill:#ffffff;fill-opacity:1"
         y="716.11517"
         x="198.16296"
         id="tspan4899-7-1-9-1"
         sodipodi:role="line">3</tspan></text>
    <path
       style="fill:none;fill-rule:evenodd;stroke:#000000;stroke-width:1;stroke-linecap:butt;stroke-linejoin:miter;stroke-opacity:1;stroke-miterlimit:4;stroke-dasharray:2,1;stroke-dashoffset:0"
       d="m 138.92857,682.3622 30.71429,-37.14285"
       id="path19755"
       inkscape:connector-curvature="0"
       inkscape:export-xdpi="360"
       inkscape:export-ydpi="360" />
    <path
       sodipodi:nodetypes="ccccccccccccccccccccccccccccccc"
       style="fill:#21b04b"
       d="m 152.05495,672.19406 -0.79731,-1.04989 -1.30721,-1.49884 -1.49581,-1.19399 -1.69024,-1.07213 -0.73717,-0.38711 0.46166,-2.22175 0.46165,-2.2983 0.0451,-0.0845 0.60313,0.28069 0.55816,0.28067 0.86704,0.87347 0.86703,0.87346 0.39359,0.63292 0.41504,0.63291 2.90268,-3.03799 3.60902,-3.40975 2.6508,-2.0836 3.42439,-2.36395 1.69981,2.12383 1.92438,2.43748 0.26251,0.35742 -1.85407,1.07498 -1.85313,1.04037 -1.95086,1.36883 -4.89157,3.80809 -1.33236,1.20106 -1.11991,1.26582 -1.57161,1.88312 -0.48176,0.61803 z"
       id="path3368"
       inkscape:connector-curvature="0"
       inkscape:export-xdpi="360"
       inkscape:export-ydpi="360" />
  </g>
</svg>
