<?xml version="1.0" encoding="UTF-8" standalone="no"?>
<!-- Created with Inkscape (http://www.inkscape.org/) -->

<svg
   xmlns:ns0="http://www.iki.fi/pav/software/textext/"
   xmlns:dc="http://purl.org/dc/elements/1.1/"
   xmlns:cc="http://creativecommons.org/ns#"
   xmlns:rdf="http://www.w3.org/1999/02/22-rdf-syntax-ns#"
   xmlns:svg="http://www.w3.org/2000/svg"
   xmlns="http://www.w3.org/2000/svg"
   xmlns:sodipodi="http://sodipodi.sourceforge.net/DTD/sodipodi-0.dtd"
   xmlns:inkscape="http://www.inkscape.org/namespaces/inkscape"
   width="210mm"
   height="297mm"
   viewBox="0 0 744.09448819 1052.3622047"
   id="svg2"
   version="1.1"
   inkscape:version="0.91 r13725"
   sodipodi:docname="bayesian-overview.svg">
  <sodipodi:namedview
     id="base"
     pagecolor="#ffffff"
     bordercolor="#666666"
     borderopacity="1.0"
     inkscape:pageopacity="0.0"
     inkscape:pageshadow="2"
     inkscape:zoom="1.979899"
     inkscape:cx="118.9356"
     inkscape:cy="745.60061"
     inkscape:document-units="px"
     inkscape:current-layer="layer1"
     showgrid="false"
     inkscape:window-width="1920"
     inkscape:window-height="1026"
     inkscape:window-x="0"
     inkscape:window-y="0"
     inkscape:window-maximized="1" />
  <defs
     id="defs4" />
  <metadata
     id="metadata7">
    <rdf:RDF>
      <cc:Work
         rdf:about="">
        <dc:format>image/svg+xml</dc:format>
        <dc:type
           rdf:resource="http://purl.org/dc/dcmitype/StillImage" />
        <dc:title />
      </cc:Work>
    </rdf:RDF>
  </metadata>
  <g
     inkscape:label="Layer 1"
     inkscape:groupmode="layer"
     id="layer1">
    <g
       ns0:preamble="/home/sharad/workspace/research/talks/thesis-proposal/tikz.tex"
       ns0:text="\\includegraphics{/home/sharad/workspace/research/talks/thesis-proposal/tikz/gmm}"
       text-anchor="start"
       word-spacing="normal"
       letter-spacing="normal"
       font-size-adjust="none"
       font-stretch="normal"
       font-weight="normal"
       font-variant="normal"
       font-style="normal"
       fill-opacity="1"
       fill-rule="evenodd"
       fill="none"
       stroke-opacity="1"
       stroke-dashoffset="0"
       stroke-dasharray="none"
       stroke-miterlimit="10.433"
       stroke-linejoin="miter"
       stroke-linecap="butt"
       stroke="black"
       xml:space="preserve"
       transform="matrix(1.000000,0,0,-1.000000,-200.000000,750.000000)"
       id="content"><path
         id="path4180"
         fill-rule="nonzero"
         fill="#dfdfdf"
         stroke-width="0"
         stroke="#dfdfdf"
         d="M247.27,379.7 L247.26,380.21 L247.22,380.72 L247.16,381.22 L247.07,381.71 L246.96,382.19 L246.83,382.66 L246.67,383.13 L246.49,383.58 L246.29,384.02 L246.07,384.45 L245.83,384.87 L245.57,385.27 L245.29,385.66 L245,386.04 L244.68,386.4 L244.35,386.74 L244.01,387.07 L243.65,387.39 L243.27,387.68 L242.88,387.96 L242.48,388.22 L242.06,388.46 L241.63,388.68 L241.19,388.88 L240.74,389.06 L240.27,389.22 L239.8,389.35 L239.32,389.46 L238.83,389.55 L238.33,389.61 L237.82,389.65 L237.31,389.66 C231.81,389.66,227.35,385.2,227.35,379.7 C227.35,374.2,231.81,369.74,237.31,369.74 C242.81,369.74,247.27,374.2,247.27,379.7 Z " /><path
         id="path4182"
         stroke-width="0.3985"
         d="M247.27,379.7 L247.26,380.21 L247.22,380.72 L247.16,381.22 L247.07,381.71 L246.96,382.19 L246.83,382.66 L246.67,383.13 L246.49,383.58 L246.29,384.02 L246.07,384.45 L245.83,384.87 L245.57,385.27 L245.29,385.66 L245,386.04 L244.68,386.4 L244.35,386.74 L244.01,387.07 L243.65,387.39 L243.27,387.68 L242.88,387.96 L242.48,388.22 L242.06,388.46 L241.63,388.68 L241.19,388.88 L240.74,389.06 L240.27,389.22 L239.8,389.35 L239.32,389.46 L238.83,389.55 L238.33,389.61 L237.82,389.65 L237.31,389.66 C231.81,389.66,227.35,385.2,227.35,379.7 C227.35,374.2,231.81,369.74,237.31,369.74 C242.81,369.74,247.27,374.2,247.27,379.7 Z " /><path
         id="path4184"
         fill="black"
         stroke-width="0"
         d="M236.13,381.31 L236.13,381.34 L236.14,381.36 L236.15,381.4 L236.16,381.43 L236.17,381.47 L236.18,381.51 L236.19,381.56 L236.21,381.6 L236.22,381.65 L236.24,381.7 L236.26,381.75 L236.28,381.79 L236.3,381.84 L236.33,381.89 L236.35,381.94 L236.38,381.99 L236.41,382.04 L236.44,382.09 L236.48,382.14 L236.51,382.18 L236.55,382.22 L236.59,382.26 L236.63,382.3 L236.67,382.34 L236.72,382.37 L236.77,382.4 L236.79,382.41 L236.82,382.42 L236.85,382.43 L236.87,382.44 L236.9,382.45 L236.93,382.46 L236.96,382.47 L236.99,382.47 L237.02,382.48 L237.05,382.48 L237.08,382.48 L237.11,382.48 C237.16,382.48,237.4,382.48,237.61,382.36 C237.33,382.3,237.13,382.06,237.13,381.82 C237.13,381.66,237.24,381.47,237.51,381.47 C237.73,381.47,238.05,381.65,238.05,382.05 C238.05,382.56,237.46,382.7,237.12,382.7 C236.55,382.7,236.2,382.18,236.08,381.95 C235.83,382.6,235.29,382.7,235,382.7 C233.97,382.7,233.4,381.42,233.4,381.17 C233.4,381.07,233.5,381.07,233.52,381.07 C233.6,381.07,233.63,381.09,233.65,381.18 C233.99,382.23,234.64,382.48,234.98,382.48 C235.17,382.48,235.52,382.39,235.52,381.82 C235.52,381.51,235.35,380.84,234.98,379.45 C234.82,378.83,234.47,378.41,234.04,378.41 C233.98,378.41,233.75,378.41,233.54,378.54 C233.79,378.59,234.01,378.8,234.01,379.08 C234.01,379.35,233.79,379.43,233.64,379.43 C233.34,379.43,233.09,379.17,233.09,378.85 C233.09,378.39,233.59,378.19,234.02,378.19 C234.68,378.19,235.04,378.89,235.07,378.95 C235.19,378.58,235.55,378.19,236.15,378.19 C237.17,378.19,237.74,379.48,237.74,379.73 C237.74,379.82,237.65,379.82,237.62,379.82 C237.53,379.82,237.51,379.78,237.49,379.71 C237.16,378.65,236.49,378.41,236.17,378.41 C235.78,378.41,235.62,378.73,235.62,379.07 C235.62,379.29,235.68,379.51,235.79,379.94 Z " /><path
         id="path4186"
         fill="black"
         stroke-width="0"
         d="M240.76,381.16 L240.76,381.17 L240.76,381.18 L240.76,381.19 L240.76,381.2 L240.75,381.21 L240.75,381.22 L240.75,381.24 L240.74,381.25 L240.74,381.26 L240.73,381.27 L240.73,381.28 L240.72,381.29 L240.72,381.3 L240.71,381.31 L240.7,381.32 L240.69,381.33 L240.68,381.34 L240.68,381.35 L240.67,381.36 L240.65,381.37 L240.64,381.38 L240.63,381.38 L240.62,381.39 L240.61,381.4 L240.59,381.4 L240.58,381.41 L240.56,381.41 L240.55,381.42 L240.53,381.42 L240.52,381.42 L240.5,381.42 L240.48,381.42 C240.29,381.42,240.09,381.24,240.09,381.04 C240.09,380.92,240.18,380.77,240.37,380.77 C240.57,380.77,240.76,380.97,240.76,381.16 Z " /><path
         id="path4188"
         fill="black"
         stroke-width="0"
         d="M239.34,377.62 L239.33,377.6 L239.33,377.58 L239.32,377.55 L239.31,377.53 L239.3,377.51 L239.3,377.5 L239.3,377.48 L239.29,377.46 L239.29,377.44 L239.28,377.43 L239.28,377.41 L239.28,377.4 L239.28,377.39 L239.28,377.38 L239.28,377.37 L239.27,377.36 L239.27,377.34 L239.27,377.33 L239.27,377.32 C239.27,376.99,239.55,376.73,239.94,376.73 C240.63,376.73,240.94,377.69,240.94,377.8 C240.94,377.89,240.85,377.89,240.83,377.89 C240.73,377.89,240.73,377.85,240.7,377.77 C240.54,377.21,240.23,376.93,239.96,376.93 C239.82,376.93,239.78,377.02,239.78,377.17 C239.78,377.33,239.83,377.46,239.9,377.62 C239.96,377.8,240.04,377.99,240.12,378.17 C240.18,378.34,240.43,378.98,240.46,379.06 C240.48,379.13,240.5,379.21,240.5,379.28 C240.5,379.61,240.22,379.88,239.84,379.88 C239.15,379.88,238.83,378.93,238.83,378.81 C238.83,378.72,238.93,378.72,238.95,378.72 C239.04,378.72,239.05,378.75,239.07,378.83 C239.25,379.43,239.56,379.68,239.82,379.68 C239.93,379.68,239.99,379.62,239.99,379.44 C239.99,379.28,239.95,379.17,239.78,378.74 Z " /><path
         id="path4190"
         fill-rule="nonzero"
         fill="white"
         stroke-width="0"
         stroke="white"
         d="M247.27,428.37 L247.26,428.88 L247.22,429.39 L247.16,429.89 L247.07,430.38 L246.96,430.86 L246.83,431.33 L246.67,431.8 L246.49,432.25 L246.29,432.69 L246.07,433.12 L245.83,433.54 L245.57,433.94 L245.29,434.33 L245,434.71 L244.68,435.07 L244.35,435.42 L244.01,435.75 L243.65,436.06 L243.27,436.35 L242.88,436.63 L242.48,436.89 L242.06,437.13 L241.63,437.35 L241.19,437.55 L240.74,437.73 L240.27,437.89 L239.8,438.02 L239.32,438.13 L238.83,438.22 L238.33,438.28 L237.82,438.32 L237.31,438.33 C231.81,438.33,227.35,433.87,227.35,428.37 C227.35,422.87,231.81,418.41,237.31,418.41 C242.81,418.41,247.27,422.87,247.27,428.37 Z " /><path
         id="path4192"
         stroke-width="0.3985"
         d="M247.27,428.37 L247.26,428.88 L247.22,429.39 L247.16,429.89 L247.07,430.38 L246.96,430.86 L246.83,431.33 L246.67,431.8 L246.49,432.25 L246.29,432.69 L246.07,433.12 L245.83,433.54 L245.57,433.94 L245.29,434.33 L245,434.71 L244.68,435.07 L244.35,435.42 L244.01,435.75 L243.65,436.06 L243.27,436.35 L242.88,436.63 L242.48,436.89 L242.06,437.13 L241.63,437.35 L241.19,437.55 L240.74,437.73 L240.27,437.89 L239.8,438.02 L239.32,438.13 L238.83,438.22 L238.33,438.28 L237.82,438.32 L237.31,438.33 C231.81,438.33,227.35,433.87,227.35,428.37 C227.35,422.87,231.81,418.41,237.31,418.41 C242.81,418.41,247.27,422.87,247.27,428.37 Z " /><path
         id="path4194"
         fill="black"
         stroke-width="0"
         d="M234.66,427.79 L234.71,427.85 L234.76,427.9 L234.8,427.95 L234.85,428 L234.89,428.04 L234.94,428.09 L234.98,428.13 L235.02,428.17 L235.06,428.21 L235.1,428.25 L235.14,428.29 L235.17,428.33 L235.21,428.36 L235.25,428.4 L235.32,428.46 L235.39,428.53 L235.45,428.59 L235.52,428.65 L235.58,428.7 L235.71,428.82 L235.78,428.87 L235.84,428.93 C235.84,428.94,236.46,429.47,236.82,429.83 C237.77,430.75,237.99,431.23,237.99,431.27 C237.99,431.37,237.9,431.37,237.88,431.37 C237.81,431.37,237.78,431.35,237.73,431.26 C237.43,430.78,237.22,430.62,236.98,430.62 C236.74,430.62,236.62,430.77,236.47,430.94 C236.28,431.17,236.11,431.37,235.78,431.37 C235.04,431.37,234.58,430.45,234.58,430.23 C234.58,430.19,234.61,430.13,234.7,430.13 C234.79,430.13,234.81,430.18,234.83,430.23 C235.02,430.69,235.59,430.7,235.67,430.7 C235.88,430.7,236.07,430.63,236.3,430.55 C236.7,430.4,236.81,430.4,237.07,430.4 C236.71,429.98,235.87,429.26,235.68,429.1 L234.79,428.26 C234.11,427.6,233.76,427.03,233.76,426.96 C233.76,426.86,233.86,426.86,233.88,426.86 C233.96,426.86,233.98,426.88,234.04,426.99 C234.27,427.34,234.57,427.61,234.89,427.61 C235.12,427.61,235.21,427.52,235.46,427.23 C235.63,427.02,235.81,426.86,236.1,426.86 C237.09,426.86,237.67,428.12,237.67,428.39 C237.67,428.44,237.63,428.49,237.55,428.49 C237.46,428.49,237.44,428.43,237.41,428.36 C237.18,427.71,236.54,427.52,236.21,427.52 C236.01,427.52,235.83,427.58,235.62,427.65 C235.29,427.78,235.14,427.82,234.93,427.82 C234.91,427.82,234.75,427.82,234.66,427.79 Z " /><path
         id="path4196"
         fill="black"
         stroke-width="0"
         d="M240.23,429.83 L240.23,429.84 L240.23,429.85 L240.22,429.86 L240.22,429.87 L240.22,429.88 L240.22,429.89 L240.21,429.9 L240.21,429.91 L240.21,429.93 L240.2,429.94 L240.2,429.95 L240.19,429.96 L240.18,429.97 L240.18,429.98 L240.17,429.99 L240.16,430 L240.15,430.01 L240.14,430.02 L240.13,430.03 L240.12,430.04 L240.11,430.04 L240.1,430.05 L240.09,430.06 L240.07,430.07 L240.06,430.07 L240.05,430.08 L240.03,430.08 L240.02,430.08 L240,430.09 L239.98,430.09 L239.97,430.09 L239.95,430.09 C239.76,430.09,239.56,429.91,239.56,429.71 C239.56,429.59,239.65,429.44,239.84,429.44 C240.04,429.44,240.23,429.64,240.23,429.83 Z " /><path
         id="path4198"
         fill="black"
         stroke-width="0"
         d="M238.8,426.28 L238.79,426.25 L238.78,426.22 L238.78,426.2 L238.77,426.18 L238.77,426.16 L238.76,426.15 L238.76,426.13 L238.75,426.11 L238.75,426.09 L238.75,426.07 L238.75,426.05 L238.74,426.04 L238.74,426.03 L238.74,426.02 L238.74,426.01 L238.74,426 L238.74,425.99 C238.74,425.66,239.02,425.4,239.4,425.4 C240.1,425.4,240.41,426.36,240.41,426.46 C240.41,426.55,240.32,426.55,240.3,426.55 C240.2,426.55,240.19,426.51,240.16,426.44 C240,425.88,239.7,425.59,239.43,425.59 C239.29,425.59,239.25,425.68,239.25,425.84 C239.25,426,239.3,426.13,239.36,426.28 C239.43,426.47,239.51,426.66,239.59,426.84 C239.65,427.01,239.9,427.64,239.93,427.73 C239.95,427.8,239.97,427.88,239.97,427.95 C239.97,428.28,239.69,428.54,239.31,428.54 C238.62,428.54,238.29,427.6,238.29,427.48 C238.29,427.39,238.39,427.39,238.41,427.39 C238.51,427.39,238.52,427.42,238.54,427.5 C238.72,428.1,239.03,428.35,239.29,428.35 C239.4,428.35,239.46,428.29,239.46,428.1 C239.46,427.94,239.42,427.84,239.24,427.41 Z " /><path
         id="path4200"
         fill-rule="nonzero"
         fill="white"
         stroke-width="0"
         stroke="white"
         d="M307.27,428.37 L307.25,429.18 L307.19,429.97 L307.09,430.75 L306.95,431.52 L306.78,432.28 L306.57,433.02 L306.32,433.74 L306.04,434.45 L305.73,435.15 L305.39,435.82 L305.01,436.47 L304.6,437.11 L304.17,437.72 L303.7,438.31 L303.21,438.88 L302.69,439.42 L302.15,439.94 L301.58,440.43 L300.99,440.89 L300.38,441.33 L299.75,441.73 L299.09,442.11 L298.42,442.46 L297.73,442.77 L297.02,443.05 L296.29,443.29 L295.55,443.51 L294.79,443.68 L294.02,443.82 L293.24,443.92 L292.45,443.98 L291.64,444 C283.01,444,276.02,437,276.02,428.37 C276.02,419.74,283.01,412.74,291.64,412.74 C300.27,412.74,307.27,419.74,307.27,428.37 Z " /><path
         id="path4202"
         stroke-width="0.3985"
         d="M307.27,428.37 L307.25,429.18 L307.19,429.97 L307.09,430.75 L306.95,431.52 L306.78,432.28 L306.57,433.02 L306.32,433.74 L306.04,434.45 L305.73,435.15 L305.39,435.82 L305.01,436.47 L304.6,437.11 L304.17,437.72 L303.7,438.31 L303.21,438.88 L302.69,439.42 L302.15,439.94 L301.58,440.43 L300.99,440.89 L300.38,441.33 L299.75,441.73 L299.09,442.11 L298.42,442.46 L297.73,442.77 L297.02,443.05 L296.29,443.29 L295.55,443.51 L294.79,443.68 L294.02,443.82 L293.24,443.92 L292.45,443.98 L291.64,444 C283.01,444,276.02,437,276.02,428.37 C276.02,419.74,283.01,412.74,291.64,412.74 C300.27,412.74,307.27,419.74,307.27,428.37 Z " /><path
         id="path4204"
         fill="black"
         stroke-width="0"
         d="M280.23,429.44 L280.23,429.46 L280.24,429.48 L280.24,429.5 L280.25,429.52 L280.26,429.55 L280.26,429.57 L280.27,429.62 L280.29,429.67 L280.3,429.72 L280.31,429.77 L280.32,429.82 L280.33,429.84 L280.33,429.86 L280.34,429.88 L280.34,429.91 L280.35,429.93 L280.35,429.95 L280.36,429.97 L280.36,429.98 L280.37,430 L280.37,430.02 L280.37,430.03 L280.37,430.04 L280.38,430.05 L280.38,430.06 L280.38,430.07 L280.38,430.07 L280.38,430.08 C280.38,430.24,280.26,430.34,280.09,430.34 C280.06,430.34,279.78,430.33,279.69,429.98 L278.26,424.22 C278.23,424.1,278.23,424.08,278.23,424.06 C278.23,423.91,278.34,423.79,278.51,423.79 C278.71,423.79,278.83,423.97,278.85,424 C278.89,424.09,279.02,424.61,279.4,426.14 C279.72,425.87,280.17,425.83,280.37,425.83 C281.07,425.83,281.45,426.28,281.69,426.56 C281.78,426.11,282.15,425.83,282.59,425.83 C282.94,425.83,283.17,426.06,283.33,426.38 C283.5,426.74,283.63,427.35,283.63,427.36 C283.63,427.46,283.54,427.46,283.51,427.46 C283.41,427.46,283.4,427.42,283.37,427.29 C283.2,426.64,283.02,426.05,282.61,426.05 C282.34,426.05,282.31,426.31,282.31,426.51 C282.31,426.73,282.43,427.2,282.51,427.54 L282.79,428.62 C282.82,428.77,282.92,429.15,282.96,429.3 C283.01,429.53,283.11,429.9,283.11,429.96 C283.11,430.14,282.97,430.23,282.82,430.23 C282.77,430.23,282.51,430.22,282.43,429.89 L281.96,428.02 C281.84,427.52,281.73,427.11,281.7,427.01 C281.69,426.96,281.21,426.05,280.41,426.05 C279.91,426.05,279.67,426.38,279.67,426.92 C279.67,427.2,279.74,427.48,279.81,427.76 Z " /><path
         id="path4206"
         fill="black"
         stroke-width="0"
         d="M286.12,429.07 L286.13,429.07 L286.13,429.07 L286.13,429.07 L286.13,429.07 L286.13,429.08 L286.13,429.08 L286.13,429.08 L286.13,429.08 L286.13,429.08 L286.13,429.09 L286.13,429.09 L286.13,429.09 L286.13,429.1 L286.13,429.1 L286.14,429.11 L286.14,429.11 L286.14,429.12 L286.14,429.12 L286.14,429.13 L286.14,429.14 L286.14,429.14 L286.15,429.15 L286.15,429.15 L286.15,429.16 L286.15,429.16 L286.15,429.16 L286.15,429.17 L286.15,429.17 L286.15,429.17 L286.15,429.17 L286.15,429.17 L286.15,429.18 L286.15,429.18 L286.15,429.18 L286.15,429.18 L286.15,429.18 L286.15,429.18 L286.15,429.18 L286.15,429.18 L286.15,429.18 C286.15,429.22,286.12,429.28,286.04,429.28 C285.9,429.28,285.32,429.22,285.15,429.21 C285.09,429.2,285,429.2,285,429.05 C285,428.95,285.09,428.95,285.18,428.95 C285.51,428.95,285.51,428.9,285.51,428.85 C285.51,428.8,285.5,428.76,285.48,428.69 L284.5,424.75 C284.47,424.62,284.47,424.61,284.47,424.59 C284.47,424.49,284.55,424.37,284.7,424.37 C284.89,424.37,284.98,424.51,285.02,424.66 C285.04,424.69,285.34,425.92,285.36,426.02 C285.86,425.97,286.26,425.81,286.26,425.44 C286.26,425.41,286.26,425.38,286.24,425.3 C286.22,425.2,286.22,425.17,286.22,425.09 C286.22,424.59,286.62,424.37,286.95,424.37 C287.63,424.37,287.84,425.43,287.84,425.44 C287.84,425.53,287.75,425.53,287.73,425.53 C287.63,425.53,287.62,425.49,287.59,425.36 C287.51,425.06,287.32,424.57,286.98,424.57 C286.79,424.57,286.73,424.74,286.73,424.93 C286.73,425.05,286.73,425.06,286.77,425.24 C286.78,425.26,286.81,425.38,286.81,425.46 C286.81,426.08,285.97,426.18,285.68,426.2 C285.88,426.32,286.14,426.55,286.26,426.66 C286.61,426.99,286.96,427.32,287.35,427.32 C287.44,427.32,287.53,427.3,287.58,427.23 C287.28,427.18,287.22,426.94,287.22,426.84 C287.22,426.69,287.34,426.58,287.5,426.58 C287.69,426.58,287.9,426.73,287.9,427.03 C287.9,427.26,287.73,427.52,287.36,427.52 C286.96,427.52,286.6,427.23,286.24,426.9 C285.95,426.62,285.72,426.41,285.43,426.29 Z " /><path
         id="path4208"
         fill="black"
         stroke-width="0"
         d="M290.86,425.95 L290.86,426.01 L290.86,426.07 L290.86,426.13 L290.85,426.18 L290.84,426.24 L290.84,426.29 L290.83,426.34 L290.82,426.39 L290.81,426.44 L290.79,426.48 L290.78,426.53 L290.76,426.57 L290.75,426.61 L290.73,426.65 L290.71,426.69 L290.69,426.72 L290.67,426.75 L290.65,426.78 L290.62,426.81 L290.6,426.84 L290.57,426.86 L290.54,426.89 L290.52,426.91 L290.49,426.93 L290.46,426.94 L290.43,426.96 L290.4,426.97 L290.36,426.98 L290.33,426.99 L290.3,426.99 L290.26,426.99 L290.23,427 C289.9,427,289.7,426.75,289.7,426.47 C289.7,426.2,289.9,425.94,290.23,425.94 C290.34,425.94,290.47,425.98,290.57,426.07 C290.6,426.09,290.61,426.1,290.62,426.1 C290.63,426.1,290.64,426.09,290.64,425.95 C290.64,425.21,290.3,424.61,289.97,424.29 C289.86,424.18,289.86,424.16,289.86,424.13 C289.86,424.06,289.91,424.02,289.96,424.02 C290.07,424.02,290.86,424.78,290.86,425.95 Z " /><path
         id="path4210"
         fill="black"
         stroke-width="0"
         d="M296.98,429.19 L296.98,429.19 L296.99,429.2 L296.99,429.2 L296.99,429.21 L297,429.21 L297,429.21 L297.01,429.22 L297.01,429.22 L297.01,429.23 L297.01,429.23 L297.02,429.24 L297.03,429.25 L297.03,429.25 L297.03,429.26 L297.04,429.27 L297.04,429.27 L297.05,429.28 L297.05,429.28 L297.05,429.29 L297.05,429.29 L297.06,429.3 L297.06,429.3 L297.06,429.31 L297.06,429.31 L297.06,429.31 L297.06,429.32 L297.07,429.32 L297.07,429.32 L297.07,429.33 L297.07,429.33 L297.07,429.33 L297.07,429.34 L297.07,429.34 L297.07,429.34 L297.07,429.34 L297.07,429.35 C297.07,429.4,297.03,429.45,297,429.49 L294.96,432.44 H297.26 C298.94,432.44,299.44,432.08,299.65,430.5 H299.9 L299.62,432.74 H294.09 C293.85,432.74,293.83,432.74,293.83,432.52 L296.31,428.91 L293.94,426.21 C293.84,426.1,293.84,426.08,293.84,426.05 C293.84,425.94,293.94,425.94,294.09,425.94 H299.62 L299.9,428.29 H299.65 C299.47,426.63,298.79,426.36,297.23,426.36 H294.48 Z " /><path
         id="path4212"
         fill="black"
         stroke-width="0"
         d="M302.64,429.07 L302.64,429.07 L302.64,429.07 L302.64,429.07 L302.64,429.07 L302.64,429.08 L302.64,429.08 L302.64,429.08 L302.64,429.08 L302.64,429.08 L302.65,429.09 L302.65,429.09 L302.65,429.09 L302.65,429.1 L302.65,429.1 L302.65,429.11 L302.65,429.11 L302.65,429.12 L302.65,429.12 L302.66,429.13 L302.66,429.14 L302.66,429.14 L302.66,429.15 L302.66,429.15 L302.66,429.16 L302.66,429.16 L302.66,429.16 L302.67,429.17 L302.67,429.17 L302.67,429.17 L302.67,429.17 L302.67,429.17 L302.67,429.18 L302.67,429.18 L302.67,429.18 L302.67,429.18 L302.67,429.18 L302.67,429.18 L302.67,429.18 L302.67,429.18 L302.67,429.18 C302.67,429.22,302.64,429.28,302.56,429.28 C302.42,429.28,301.84,429.22,301.66,429.21 C301.61,429.2,301.51,429.2,301.51,429.05 C301.51,428.95,301.61,428.95,301.69,428.95 C302.03,428.95,302.03,428.9,302.03,428.85 C302.03,428.8,302.01,428.76,302,428.69 L301.02,424.75 C300.98,424.62,300.98,424.61,300.98,424.59 C300.98,424.49,301.06,424.37,301.22,424.37 C301.41,424.37,301.5,424.51,301.54,424.66 C301.55,424.69,301.85,425.92,301.88,426.02 C302.38,425.97,302.77,425.81,302.77,425.44 C302.77,425.41,302.77,425.38,302.76,425.3 C302.73,425.2,302.73,425.17,302.73,425.09 C302.73,424.59,303.14,424.37,303.47,424.37 C304.15,424.37,304.36,425.43,304.36,425.44 C304.36,425.53,304.27,425.53,304.24,425.53 C304.15,425.53,304.14,425.49,304.11,425.36 C304.02,425.06,303.83,424.57,303.49,424.57 C303.3,424.57,303.25,424.74,303.25,424.93 C303.25,425.05,303.25,425.06,303.29,425.24 C303.3,425.26,303.32,425.38,303.32,425.46 C303.32,426.08,302.49,426.18,302.19,426.2 C302.4,426.32,302.65,426.55,302.77,426.66 C303.13,426.99,303.48,427.32,303.87,427.32 C303.95,427.32,304.04,427.3,304.1,427.23 C303.8,427.18,303.73,426.94,303.73,426.84 C303.73,426.69,303.85,426.58,304.01,426.58 C304.2,426.58,304.41,426.73,304.41,427.03 C304.41,427.26,304.24,427.52,303.88,427.52 C303.48,427.52,303.11,427.23,302.76,426.9 C302.47,426.62,302.24,426.41,301.95,426.29 Z " /><path
         id="path4214"
         fill-rule="nonzero"
         fill="white"
         stroke-width="0"
         stroke="white"
         d="M247.27,477.04 L247.26,477.55 L247.22,478.06 L247.16,478.56 L247.07,479.05 L246.96,479.53 L246.83,480 L246.67,480.47 L246.49,480.92 L246.29,481.36 L246.07,481.79 L245.83,482.21 L245.57,482.61 L245.29,483 L245,483.38 L244.68,483.74 L244.35,484.09 L244.01,484.42 L243.65,484.73 L243.27,485.02 L242.88,485.3 L242.48,485.56 L242.06,485.8 L241.63,486.02 L241.19,486.22 L240.74,486.4 L240.27,486.56 L239.8,486.69 L239.32,486.8 L238.83,486.89 L238.33,486.95 L237.82,486.99 L237.31,487 C231.81,487,227.35,482.54,227.35,477.04 C227.35,471.54,231.81,467.08,237.31,467.08 C242.81,467.08,247.27,471.54,247.27,477.04 Z " /><path
         id="path4216"
         stroke-width="0.3985"
         d="M247.27,477.04 L247.26,477.55 L247.22,478.06 L247.16,478.56 L247.07,479.05 L246.96,479.53 L246.83,480 L246.67,480.47 L246.49,480.92 L246.29,481.36 L246.07,481.79 L245.83,482.21 L245.57,482.61 L245.29,483 L245,483.38 L244.68,483.74 L244.35,484.09 L244.01,484.42 L243.65,484.73 L243.27,485.02 L242.88,485.3 L242.48,485.56 L242.06,485.8 L241.63,486.02 L241.19,486.22 L240.74,486.4 L240.27,486.56 L239.8,486.69 L239.32,486.8 L238.83,486.89 L238.33,486.95 L237.82,486.99 L237.31,487 C231.81,487,227.35,482.54,227.35,477.04 C227.35,471.54,231.81,467.08,237.31,467.08 C242.81,467.08,247.27,471.54,247.27,477.04 Z " /><path
         id="path4218"
         fill="black"
         stroke-width="0"
         d="M236.93,478.62 H238.06 C237.73,477.14,237.64,476.71,237.64,476.05 C237.64,475.9,237.64,475.63,237.72,475.29 C237.82,474.85,237.93,474.79,238.08,474.79 C238.28,474.79,238.49,474.97,238.49,475.17 C238.49,475.23,238.49,475.25,238.43,475.39 C238.14,476.11,238.14,476.75,238.14,477.03 C238.14,477.56,238.21,478.1,238.32,478.62 H239.45 C239.58,478.62,239.94,478.62,239.94,478.95 C239.94,479.19,239.73,479.19,239.54,479.19 H236.21 C235.99,479.19,235.61,479.19,235.17,478.73 C234.82,478.34,234.56,477.88,234.56,477.83 C234.56,477.82,234.56,477.73,234.68,477.73 C234.76,477.73,234.78,477.77,234.84,477.85 C235.33,478.62,235.91,478.62,236.11,478.62 H236.67 C236.35,477.41,235.82,476.2,235.4,475.3 C235.32,475.15,235.32,475.13,235.32,475.06 C235.32,474.87,235.48,474.79,235.61,474.79 C235.91,474.79,235.99,475.07,236.11,475.44 C236.24,475.9,236.24,475.92,236.38,476.41 Z " /><line
         id="line4220"
         stroke-width="0.3985"
         y2="439.34"
         x2="237.31"
         y1="466.88"
         x1="237.31" /><polygon
         id="polygon4222"
         fill-rule="nonzero"
         fill="black"
         stroke-width="0"
         points="239.65,444.55 237.31,439.04 234.97,444.55 " /><polygon
         id="polygon4224"
         stroke-width="0.3985"
         points="239.65,444.55 237.31,439.04 234.97,444.55 " /><line
         id="line4226"
         stroke-width="0.3985"
         y2="390.67"
         x2="237.31"
         y1="418.21"
         x1="237.31" /><polygon
         id="polygon4228"
         fill-rule="nonzero"
         fill="black"
         stroke-width="0"
         points="239.65,395.87 237.31,390.37 234.97,395.87 " /><polygon
         id="polygon4230"
         stroke-width="0.3985"
         points="239.65,395.87 237.31,390.37 234.97,395.87 " /><line
         id="line4232"
         stroke-width="0.3985"
         y2="387.04"
         x2="245.51"
         y1="417.78"
         x1="279.82" /><polygon
         id="polygon4234"
         fill-rule="nonzero"
         fill="black"
         stroke-width="0"
         points="250.96,388.78 245.28,386.84 247.83,392.27 " /><polygon
         id="polygon4236"
         stroke-width="0.39964"
         points="250.96,388.78 245.28,386.84 247.83,392.27 " /><path
         id="path4238"
         fill="black"
         stroke-width="0"
         d="M246.21,363.29 L246.22,363.32 L246.23,363.36 L246.24,363.39 L246.26,363.42 L246.27,363.45 L246.28,363.48 L246.29,363.51 L246.31,363.54 L246.32,363.57 L246.34,363.59 L246.35,363.62 L246.37,363.64 L246.39,363.66 L246.41,363.69 L246.43,363.71 L246.46,363.73 L246.48,363.74 L246.51,363.76 L246.54,363.78 L246.57,363.79 L246.6,363.81 L246.63,363.82 L246.66,363.83 L246.7,363.84 L246.74,363.85 L246.78,363.86 L246.82,363.87 L246.86,363.87 L246.91,363.88 L246.96,363.88 L247.01,363.89 L247.06,363.89 C247.14,363.89,247.2,363.94,247.2,364.04 C247.2,364.09,247.16,364.15,247.08,364.15 C247.03,364.15,246.88,364.13,246.29,364.13 C245.65,364.13,245.54,364.15,245.47,364.15 C245.35,364.15,245.32,364.07,245.32,364 C245.32,363.9,245.43,363.89,245.5,363.89 C245.98,363.88,245.98,363.66,245.98,363.55 C245.98,363.51,245.98,363.47,245.95,363.34 L245.07,359.85 L243.15,364.01 C243.09,364.15,243.07,364.15,242.88,364.15 H241.85 C241.7,364.15,241.6,364.15,241.6,364 C241.6,363.89,241.7,363.89,241.86,363.89 C241.93,363.89,242.17,363.89,242.35,363.84 L241.28,359.56 C241.19,359.16,240.98,358.99,240.44,358.97 C240.4,358.97,240.3,358.96,240.3,358.82 C240.3,358.77,240.34,358.71,240.42,358.71 C240.45,358.71,240.64,358.73,241.21,358.73 C241.84,358.73,241.96,358.71,242.03,358.71 C242.06,358.71,242.18,358.71,242.18,358.86 C242.18,358.96,242.09,358.97,242.04,358.97 C241.75,358.98,241.51,359.03,241.51,359.31 C241.51,359.35,241.54,359.46,241.54,359.47 L242.58,363.63 H242.59 L244.8,358.85 C244.86,358.73,244.87,358.71,244.96,358.71 C245.07,358.71,245.07,358.74,245.11,358.88 Z " /><path
         id="path4240"
         stroke-width="0.3985"
         d="M247.01,442.05 H227.61 C225.41,442.05,223.63,440.27,223.63,438.07 V359.18 C223.63,356.98,225.41,355.19,227.61,355.19 H247.01 C249.21,355.19,250.99,356.98,250.99,359.18 V438.07 C250.99,440.27,249.21,442.05,247.01,442.05 Z " /><path
         id="path4242"
         fill="black"
         stroke-width="0"
         d="M304.05,404.93 L304.05,404.93 L304.05,404.93 L304.05,404.93 L304.05,404.93 L304.04,404.93 L304.04,404.93 L304.04,404.93 L304.04,404.94 L304.04,404.94 L304.04,404.94 L304.04,404.95 L304.03,404.95 L304.03,404.96 L304.03,404.96 L304.03,404.96 L304.02,404.97 L304.02,404.98 L304.02,404.99 L304.02,404.99 L304.01,404.99 L304.01,405 L304.01,405 L304.01,405.01 L304.01,405.01 L304.01,405.01 L304,405.02 L304,405.02 L304,405.02 L304,405.02 L304,405.02 L304,405.02 L304,405.03 L304,405.03 L304,405.03 L304,405.03 L304,405.03 L304,405.03 L304,405.03 C304,405.05,304.14,405.14,304.21,405.2 C304.84,405.66,305.7,406.28,305.97,406.45 C306.38,406.7,306.67,406.87,307.03,406.9 C307.09,406.91,307.2,406.92,307.2,407.06 C307.2,407.12,307.15,407.17,307.09,407.17 C307.08,407.17,306.86,407.14,306.8,407.14 H306.49 C306.35,407.14,306.15,407.14,306.08,407.15 C306.02,407.15,305.71,407.17,305.66,407.17 C305.6,407.17,305.49,407.17,305.49,407.02 C305.49,407.01,305.5,406.91,305.62,406.9 C305.68,406.89,305.81,406.88,305.81,406.78 C305.81,406.66,305.65,406.52,305.63,406.51 L305.57,406.46 C305.55,406.43,305.51,406.4,305.47,406.38 L302.22,404.02 L302.85,406.54 C302.92,406.83,302.94,406.9,303.52,406.9 C303.68,406.9,303.78,406.9,303.78,407.05 C303.78,407.06,303.77,407.17,303.64,407.17 C303.49,407.17,303.3,407.15,303.15,407.14 H302.64 C301.88,407.14,301.67,407.17,301.62,407.17 C301.58,407.17,301.46,407.17,301.46,407.02 C301.46,406.9,301.55,406.9,301.69,406.9 C301.95,406.9,302.18,406.9,302.18,406.77 C302.18,406.74,302.17,406.74,302.15,406.63 L301.08,402.35 C301.01,402.05,300.99,401.99,300.4,401.99 C300.25,401.99,300.16,401.99,300.16,401.83 C300.16,401.8,300.18,401.72,300.29,401.72 C300.44,401.72,300.63,401.74,300.78,401.75 H301.81 C301.93,401.74,302.2,401.72,302.32,401.72 C302.36,401.72,302.48,401.72,302.48,401.87 C302.48,401.99,302.38,401.99,302.25,401.99 C302.19,401.99,302.08,401.99,301.94,402 C301.78,402.02,301.75,402.03,301.75,402.11 C301.75,402.16,301.81,402.36,301.83,402.49 L302.14,403.69 L303.42,404.62 L304.37,402.65 C304.41,402.58,304.49,402.41,304.53,402.34 C304.57,402.26,304.57,402.24,304.57,402.21 C304.57,401.99,304.28,401.99,304.19,401.99 C304.11,401.99,304,401.99,304,401.83 C304,401.83,304.01,401.72,304.14,401.72 C304.21,401.72,304.52,401.74,304.59,401.75 H305.05 C305.79,401.75,305.76,401.72,305.86,401.72 C305.9,401.72,306.02,401.72,306.02,401.87 C306.02,401.99,305.9,401.99,305.86,401.99 C305.55,401.99,305.44,402.05,305.32,402.32 Z " /><path
         id="path4244"
         stroke-width="0.3985"
         d="M307.01,447.72 H276.28 C274.08,447.72,272.3,445.93,272.3,443.73 V402.18 C272.3,399.98,274.08,398.2,276.28,398.2 H307.01 C309.21,398.2,310.99,399.98,310.99,402.18 V443.73 C310.99,445.93,309.21,447.72,307.01,447.72 Z " /></g>    <g
       id="g4436"
       transform="matrix(1,0,0,-1,-142.05108,702.20574)"
       xml:space="preserve"
       stroke-miterlimit="10.433"
       font-style="normal"
       font-variant="normal"
       font-weight="normal"
       font-stretch="normal"
       font-size-adjust="none"
       letter-spacing="normal"
       word-spacing="normal"
       ns0:text="\\includegraphics{/home/sharad/workspace/research/talks/thesis-proposal/tikz/lds}"
       ns0:preamble="/home/sharad/workspace/research/talks/thesis-proposal/tikz.tex"
       style="font-style:normal;font-variant:normal;font-weight:normal;font-stretch:normal;letter-spacing:normal;word-spacing:normal;text-anchor:start;fill:none;fill-opacity:1;fill-rule:evenodd;stroke:#000000;stroke-linecap:butt;stroke-linejoin:miter;stroke-miterlimit:10.43299961;stroke-dasharray:none;stroke-dashoffset:0;stroke-opacity:1"><path
         style="fill:#dfdfdf;fill-rule:nonzero;stroke:#dfdfdf;stroke-width:0"
         inkscape:connector-curvature="0"
         d="m 247.27,428.37 -0.01,0.51 -0.04,0.51 -0.06,0.5 -0.09,0.49 -0.11,0.48 -0.13,0.47 -0.16,0.47 -0.18,0.45 -0.2,0.44 -0.22,0.43 -0.24,0.42 -0.26,0.4 -0.28,0.39 -0.29,0.38 -0.32,0.36 -0.33,0.34 -0.34,0.33 -0.36,0.32 -0.38,0.29 -0.39,0.28 -0.4,0.26 -0.42,0.24 -0.43,0.22 -0.44,0.2 -0.45,0.18 -0.47,0.16 -0.47,0.13 -0.48,0.11 -0.49,0.09 -0.5,0.06 -0.51,0.04 -0.51,0.01 c -5.5,0 -9.96,-4.46 -9.96,-9.96 0,-5.5 4.46,-9.96 9.96,-9.96 5.5,0 9.96,4.46 9.96,9.96 z"
         id="path4438" /><path
         style="stroke-width:0.3985"
         inkscape:connector-curvature="0"
         d="m 247.27,428.37 -0.01,0.51 -0.04,0.51 -0.06,0.5 -0.09,0.49 -0.11,0.48 -0.13,0.47 -0.16,0.47 -0.18,0.45 -0.2,0.44 -0.22,0.43 -0.24,0.42 -0.26,0.4 -0.28,0.39 -0.29,0.38 -0.32,0.36 -0.33,0.34 -0.34,0.33 -0.36,0.32 -0.38,0.29 -0.39,0.28 -0.4,0.26 -0.42,0.24 -0.43,0.22 -0.44,0.2 -0.45,0.18 -0.47,0.16 -0.47,0.13 -0.48,0.11 -0.49,0.09 -0.5,0.06 -0.51,0.04 -0.51,0.01 c -5.5,0 -9.96,-4.46 -9.96,-9.96 0,-5.5 4.46,-9.96 9.96,-9.96 5.5,0 9.96,4.46 9.96,9.96 z"
         id="path4440" /><path
         style="fill:#000000;stroke-width:0"
         inkscape:connector-curvature="0"
         d="m 236.04,429.98 0,0.02 0.01,0.03 0.01,0.03 0.01,0.04 0.01,0.04 0.01,0.04 0.01,0.04 0.02,0.05 0.01,0.05 0.02,0.04 0.02,0.05 0.02,0.05 0.02,0.05 0.03,0.05 0.02,0.05 0.03,0.05 0.03,0.05 0.03,0.05 0.04,0.04 0.03,0.05 0.04,0.04 0.04,0.04 0.04,0.04 0.04,0.03 0.05,0.04 0.05,0.03 0.02,0.01 0.03,0.01 0.03,0.01 0.02,0.01 0.03,0.01 0.03,0.01 0.03,0.01 0.03,0 0.03,0.01 0.03,0 0.03,0 0.03,0 c 0.05,0 0.29,0 0.5,-0.13 -0.28,-0.05 -0.48,-0.3 -0.48,-0.54 0,-0.15 0.11,-0.34 0.38,-0.34 0.22,0 0.54,0.18 0.54,0.57 0,0.52 -0.59,0.66 -0.93,0.66 -0.57,0 -0.92,-0.53 -1.04,-0.76 -0.25,0.66 -0.79,0.76 -1.08,0.76 -1.03,0 -1.6,-1.28 -1.6,-1.53 0,-0.1 0.1,-0.1 0.12,-0.1 0.08,0 0.11,0.02 0.13,0.11 0.34,1.05 0.99,1.3 1.33,1.3 0.19,0 0.54,-0.09 0.54,-0.67 0,-0.3 -0.17,-0.97 -0.54,-2.37 -0.16,-0.61 -0.51,-1.03 -0.94,-1.03 -0.06,0 -0.29,0 -0.5,0.13 0.25,0.05 0.47,0.26 0.47,0.53 0,0.27 -0.22,0.35 -0.37,0.35 -0.3,0 -0.55,-0.26 -0.55,-0.57 0,-0.46 0.5,-0.66 0.93,-0.66 0.66,0 1.02,0.69 1.05,0.75 0.12,-0.36 0.48,-0.75 1.08,-0.75 1.02,0 1.59,1.28 1.59,1.53 0,0.1 -0.09,0.1 -0.12,0.1 -0.09,0 -0.11,-0.04 -0.13,-0.11 -0.33,-1.06 -1,-1.3 -1.32,-1.3 -0.39,0 -0.55,0.32 -0.55,0.65 0,0.22 0.06,0.44 0.17,0.88 z"
         id="path4442" /><path
         style="fill:#000000;stroke-width:0"
         inkscape:connector-curvature="0"
         d="m 240.13,428.22 0.71,0 c 0.13,0 0.22,0 0.22,0.16 0,0.09 -0.09,0.09 -0.21,0.09 l -0.66,0 0.26,1.04 c 0,0.03 0.02,0.07 0.02,0.09 0,0.13 -0.1,0.23 -0.24,0.23 -0.17,0 -0.28,-0.12 -0.33,-0.3 -0.05,-0.18 0.04,0.16 -0.26,-1.06 l -0.71,0 c -0.14,0 -0.23,0 -0.23,-0.15 0,-0.1 0.09,-0.1 0.21,-0.1 l 0.66,0 -0.41,-1.64 c -0.04,-0.18 -0.1,-0.43 -0.1,-0.52 0,-0.41 0.35,-0.66 0.74,-0.66 0.78,0 1.22,0.97 1.22,1.06 0,0.09 -0.09,0.09 -0.11,0.09 -0.09,0 -0.09,-0.01 -0.15,-0.13 -0.19,-0.44 -0.55,-0.83 -0.93,-0.83 -0.15,0 -0.25,0.09 -0.25,0.34 0,0.07 0.03,0.22 0.04,0.29 z"
         id="path4444" /><path
         style="fill:#dfdfdf;fill-rule:nonzero;stroke:#dfdfdf;stroke-width:0"
         inkscape:connector-curvature="0"
         d="m 298.91,428.37 -0.02,0.59 -0.04,0.58 -0.07,0.57 -0.1,0.57 -0.13,0.55 -0.16,0.54 -0.18,0.54 -0.2,0.51 -0.23,0.51 -0.25,0.5 -0.28,0.47 -0.3,0.47 -0.31,0.45 -0.34,0.43 -0.36,0.42 -0.38,0.39 -0.4,0.38 -0.42,0.36 -0.43,0.34 -0.45,0.32 -0.46,0.3 -0.48,0.27 -0.49,0.26 -0.51,0.23 -0.52,0.2 -0.53,0.18 -0.55,0.15 -0.55,0.13 -0.56,0.1 -0.58,0.08 -0.58,0.04 -0.59,0.02 c -6.32,0 -11.44,-5.13 -11.44,-11.45 0,-6.32 5.12,-11.45 11.44,-11.45 6.33,0 11.45,5.13 11.45,11.45 z"
         id="path4446" /><path
         style="stroke-width:0.3985"
         inkscape:connector-curvature="0"
         d="m 298.91,428.37 -0.02,0.59 -0.04,0.58 -0.07,0.57 -0.1,0.57 -0.13,0.55 -0.16,0.54 -0.18,0.54 -0.2,0.51 -0.23,0.51 -0.25,0.5 -0.28,0.47 -0.3,0.47 -0.31,0.45 -0.34,0.43 -0.36,0.42 -0.38,0.39 -0.4,0.38 -0.42,0.36 -0.43,0.34 -0.45,0.32 -0.46,0.3 -0.48,0.27 -0.49,0.26 -0.51,0.23 -0.52,0.2 -0.53,0.18 -0.55,0.15 -0.55,0.13 -0.56,0.1 -0.58,0.08 -0.58,0.04 -0.59,0.02 c -6.32,0 -11.44,-5.13 -11.44,-11.45 0,-6.32 5.12,-11.45 11.44,-11.45 6.33,0 11.45,5.13 11.45,11.45 z"
         id="path4448" /><path
         style="fill:#000000;stroke-width:0"
         inkscape:connector-curvature="0"
         d="m 281.15,430.4 0.01,0.02 0,0.03 0.01,0.03 0.01,0.04 0.01,0.04 0.01,0.04 0.02,0.04 0.01,0.05 0.02,0.05 0.01,0.04 0.02,0.05 0.02,0.05 0.03,0.05 0.02,0.05 0.03,0.05 0.02,0.05 0.03,0.05 0.03,0.05 0.04,0.04 0.03,0.05 0.04,0.04 0.04,0.04 0.04,0.04 0.05,0.03 0.04,0.04 0.05,0.03 0.03,0.01 0.02,0.01 0.03,0.01 0.03,0.01 0.02,0.01 0.03,0.01 0.03,0.01 0.03,0 0.03,0.01 0.03,0 0.03,0 0.04,0 c 0.05,0 0.28,0 0.5,-0.13 -0.28,-0.05 -0.48,-0.3 -0.48,-0.54 0,-0.16 0.11,-0.34 0.38,-0.34 0.21,0 0.53,0.17 0.53,0.57 0,0.52 -0.59,0.66 -0.92,0.66 -0.58,0 -0.93,-0.53 -1.05,-0.76 -0.25,0.66 -0.79,0.76 -1.08,0.76 -1.03,0 -1.6,-1.28 -1.6,-1.53 0,-0.1 0.1,-0.1 0.12,-0.1 0.08,0 0.11,0.02 0.13,0.11 0.34,1.05 1,1.3 1.33,1.3 0.19,0 0.54,-0.09 0.54,-0.67 0,-0.3 -0.17,-0.97 -0.54,-2.37 -0.15,-0.61 -0.5,-1.03 -0.94,-1.03 -0.06,0 -0.29,0 -0.5,0.13 0.25,0.05 0.47,0.26 0.47,0.54 0,0.26 -0.22,0.34 -0.37,0.34 -0.3,0 -0.55,-0.26 -0.55,-0.58 0,-0.45 0.5,-0.65 0.94,-0.65 0.66,0 1.01,0.7 1.04,0.76 0.12,-0.37 0.48,-0.76 1.08,-0.76 1.03,0 1.59,1.28 1.59,1.53 0,0.1 -0.09,0.1 -0.12,0.1 -0.09,0 -0.1,-0.04 -0.12,-0.11 -0.33,-1.06 -1.01,-1.3 -1.33,-1.3 -0.39,0 -0.55,0.32 -0.55,0.65 0,0.22 0.06,0.44 0.17,0.88 z"
         id="path4450" /><path
         style="fill:#000000;stroke-width:0"
         inkscape:connector-curvature="0"
         d="m 285.24,428.64 0.71,0 c 0.13,0 0.22,0 0.22,0.16 0,0.09 -0.09,0.09 -0.21,0.09 l -0.66,0 0.26,1.03 c 0.01,0.04 0.02,0.07 0.02,0.1 0,0.13 -0.1,0.23 -0.24,0.23 -0.17,0 -0.28,-0.12 -0.32,-0.3 -0.05,-0.18 0.04,0.16 -0.27,-1.06 l -0.71,0 c -0.13,0 -0.22,0 -0.22,-0.15 0,-0.1 0.08,-0.1 0.2,-0.1 l 0.67,0 -0.41,-1.64 c -0.05,-0.18 -0.11,-0.43 -0.11,-0.52 0,-0.41 0.35,-0.66 0.75,-0.66 0.77,0 1.21,0.97 1.21,1.07 0,0.09 -0.09,0.09 -0.11,0.09 -0.08,0 -0.09,-0.02 -0.15,-0.14 -0.19,-0.44 -0.55,-0.83 -0.93,-0.83 -0.15,0 -0.25,0.09 -0.25,0.35 0,0.06 0.03,0.21 0.05,0.28 z"
         id="path4452" /><path
         style="fill:#000000;stroke-width:0"
         inkscape:connector-curvature="0"
         d="m 289.76,427.46 2.13,0 c 0.09,0 0.26,0 0.26,0.17 0,0.17 -0.16,0.17 -0.26,0.17 l -2.13,0 0,2.15 c 0,0.09 0,0.25 -0.17,0.25 -0.17,0 -0.17,-0.16 -0.17,-0.25 l 0,-2.15 -2.14,0 c -0.09,0 -0.26,0 -0.26,-0.16 0,-0.18 0.16,-0.18 0.26,-0.18 l 2.14,0 0,-2.14 c 0,-0.09 0,-0.25 0.16,-0.25 0.18,0 0.18,0.16 0.18,0.25 z"
         id="path4454" /><path
         style="fill:#000000;stroke-width:0"
         inkscape:connector-curvature="0"
         d="m 294.98,430.32 0,0.01 0,0.01 0,0.01 0,0.01 0,0 0,0.01 0,0.01 0,0.01 0,0 0,0.01 0,0 0,0.01 0,0.01 0,0 -0.01,0.01 0,0 0,0.01 0,0 0,0.01 0,0.01 -0.01,0.01 0,0 0,0.01 -0.01,0.01 0,0 -0.01,0.01 0,0 -0.01,0 -0.01,0.01 -0.01,0 -0.01,0 0,0 -0.01,0 -0.01,0 0,0 -0.01,0.01 0,0 -0.01,0 0,0 -0.01,0 -0.01,0 -0.01,0 0,0 -0.01,0 -0.01,0 -0.01,0 0,0 -0.01,0 -0.01,0 -0.01,0 c -0.45,-0.44 -1.08,-0.45 -1.37,-0.45 l 0,-0.25 c 0.17,0 0.63,0 1.01,0.2 l 0,-3.56 c 0,-0.23 0,-0.32 -0.69,-0.32 l -0.27,0 0,-0.25 c 0.13,0 0.98,0.03 1.24,0.03 0.22,0 1.1,-0.03 1.25,-0.03 l 0,0.25 -0.26,0 c -0.7,0 -0.7,0.09 -0.7,0.32 z"
         id="path4456" /><path
         style="fill:#ffffff;fill-rule:nonzero;stroke:#ffffff;stroke-width:0"
         inkscape:connector-curvature="0"
         d="m 247.27,477.04 -0.01,0.51 -0.04,0.51 -0.06,0.5 -0.09,0.49 -0.11,0.48 -0.13,0.47 -0.16,0.47 -0.18,0.45 -0.2,0.44 -0.22,0.43 -0.24,0.42 -0.26,0.4 -0.28,0.39 -0.29,0.38 -0.32,0.36 -0.33,0.35 -0.34,0.33 -0.36,0.31 -0.38,0.29 -0.39,0.28 -0.4,0.26 -0.42,0.24 -0.43,0.22 -0.44,0.2 -0.45,0.18 -0.47,0.16 -0.47,0.13 -0.48,0.11 -0.49,0.09 -0.5,0.06 -0.51,0.04 -0.51,0.01 c -5.5,0 -9.96,-4.46 -9.96,-9.96 0,-5.5 4.46,-9.96 9.96,-9.96 5.5,0 9.96,4.46 9.96,9.96 z"
         id="path4458" /><path
         style="stroke-width:0.3985"
         inkscape:connector-curvature="0"
         d="m 247.27,477.04 -0.01,0.51 -0.04,0.51 -0.06,0.5 -0.09,0.49 -0.11,0.48 -0.13,0.47 -0.16,0.47 -0.18,0.45 -0.2,0.44 -0.22,0.43 -0.24,0.42 -0.26,0.4 -0.28,0.39 -0.29,0.38 -0.32,0.36 -0.33,0.35 -0.34,0.33 -0.36,0.31 -0.38,0.29 -0.39,0.28 -0.4,0.26 -0.42,0.24 -0.43,0.22 -0.44,0.2 -0.45,0.18 -0.47,0.16 -0.47,0.13 -0.48,0.11 -0.49,0.09 -0.5,0.06 -0.51,0.04 -0.51,0.01 c -5.5,0 -9.96,-4.46 -9.96,-9.96 0,-5.5 4.46,-9.96 9.96,-9.96 5.5,0 9.96,4.46 9.96,9.96 z"
         id="path4460" /><path
         style="fill:#000000;stroke-width:0"
         inkscape:connector-curvature="0"
         d="m 235.36,474.79 -0.04,-0.07 -0.04,-0.05 -0.04,-0.06 -0.03,-0.05 -0.04,-0.05 -0.04,-0.05 -0.03,-0.04 -0.04,-0.04 -0.04,-0.04 -0.04,-0.04 -0.03,-0.03 -0.04,-0.03 -0.04,-0.03 -0.04,-0.03 -0.03,-0.03 -0.04,-0.02 -0.04,-0.02 -0.04,-0.02 -0.04,-0.02 -0.03,-0.02 -0.04,-0.01 -0.04,-0.02 -0.04,-0.01 -0.04,-0.01 -0.04,-0.01 -0.04,-0.01 -0.04,-0.01 -0.04,0 -0.08,-0.01 -0.08,-0.01 c -0.12,-0.01 -0.21,-0.01 -0.21,-0.2 0,-0.06 0.05,-0.11 0.13,-0.11 0.27,0 0.58,0.03 0.86,0.03 0.33,0 0.68,-0.03 0.99,-0.03 0.06,0 0.19,0 0.19,0.19 0,0.11 -0.09,0.12 -0.16,0.12 -0.22,0.02 -0.47,0.1 -0.47,0.35 0,0.12 0.06,0.23 0.14,0.37 l 0.76,1.27 2.5,0 -0.03,0.31 -2.28,0 1.96,3.29 0.32,-3.29 0.03,-0.31 c 0.02,-0.21 0.16,-1.56 0.16,-1.66 0,-0.3 -0.52,-0.33 -0.72,-0.33 -0.14,0 -0.23,0 -0.23,-0.2 0,-0.11 0.11,-0.11 0.14,-0.11 0.4,0 0.83,0.03 1.24,0.03 0.25,0 0.88,-0.03 1.13,-0.03 0.06,0 0.18,0 0.18,0.2 0,0.11 -0.1,0.11 -0.23,0.11 -0.62,0 -0.62,0.07 -0.65,0.36 l -0.61,6.22 c -0.02,0.2 -0.02,0.24 -0.19,0.24 -0.16,0 -0.2,-0.07 -0.26,-0.17 z"
         id="path4462" /><line
         style="stroke-width:0.3985"
         x1="244.60001"
         y1="469.95999"
         x2="278.51999"
         y2="437.04999"
         id="line4464" /><polygon
         style="fill:#000000;fill-rule:nonzero;stroke-width:0"
         points="278.74,436.84 273.16,438.99 276.42,442.35 "
         id="polygon4466" /><polygon
         style="stroke-width:0.39859"
         points="278.74,436.84 273.16,438.99 276.42,442.35 "
         id="polygon4468" /><line
         style="stroke-width:0.3985"
         x1="247.47"
         y1="428.37"
         x2="275.01001"
         y2="428.37"
         id="line4470" /><polygon
         style="fill:#000000;fill-rule:nonzero;stroke-width:0"
         points="275.31,428.37 269.81,426.03 269.81,430.71 "
         id="polygon4472" /><polygon
         style="stroke-width:0.3985"
         points="275.31,428.37 269.81,426.03 269.81,430.71 "
         id="polygon4474" /><path
         style="fill:#000000;stroke-width:0"
         inkscape:connector-curvature="0"
         d="m 297.85,410.48 0.01,0.03 0.01,0.04 0.01,0.03 0.01,0.03 0.01,0.03 0.02,0.03 0.01,0.03 0.01,0.03 0.02,0.03 0.01,0.02 0.02,0.03 0.02,0.02 0.02,0.02 0.02,0.03 0.02,0.02 0.03,0.02 0.02,0.01 0.03,0.02 0.02,0.02 0.03,0.01 0.03,0.02 0.04,0.01 0.03,0.01 0.04,0.01 0.03,0.01 0.04,0.01 0.05,0.01 0.04,0 0.05,0.01 0.04,0 0.05,0.01 0.06,0 c 0.08,0 0.14,0.05 0.14,0.15 0,0.05 -0.04,0.11 -0.12,0.11 -0.05,0 -0.21,-0.02 -0.8,-0.02 -0.63,0 -0.74,0.02 -0.81,0.02 -0.13,0 -0.15,-0.08 -0.15,-0.15 0,-0.1 0.1,-0.11 0.18,-0.11 0.48,-0.01 0.48,-0.23 0.48,-0.34 0,-0.04 0,-0.08 -0.03,-0.21 l -0.88,-3.49 -1.92,4.16 c -0.06,0.14 -0.08,0.14 -0.27,0.14 l -1.04,0 c -0.14,0 -0.24,0 -0.24,-0.15 0,-0.11 0.09,-0.11 0.26,-0.11 0.06,0 0.3,0 0.49,-0.05 l -1.07,-4.28 c -0.1,-0.4 -0.3,-0.57 -0.84,-0.59 -0.05,0 -0.14,-0.01 -0.14,-0.15 0,-0.05 0.04,-0.11 0.12,-0.11 0.03,0 0.21,0.02 0.79,0.02 0.63,0 0.75,-0.02 0.82,-0.02 0.03,0 0.15,0 0.15,0.15 0,0.1 -0.09,0.11 -0.14,0.11 -0.29,0.01 -0.53,0.06 -0.53,0.34 0,0.04 0.02,0.15 0.02,0.16 l 1.05,4.16 0.01,0 2.21,-4.78 c 0.06,-0.12 0.07,-0.14 0.15,-0.14 0.11,0 0.12,0.03 0.15,0.17 z"
         id="path4476" /><path
         style="stroke-width:0.3985"
         inkscape:connector-curvature="0"
         d="m 298.64,443.54 -71.03,0 c -2.2,0 -3.98,-1.79 -3.98,-3.99 l 0,-33.19 c 0,-2.2 1.78,-3.98 3.98,-3.98 l 71.03,0 c 2.2,0 3.99,1.78 3.99,3.98 l 0,33.19 c 0,2.2 -1.79,3.99 -3.99,3.99 z"
         id="path4478" /></g>    <g
       style="font-style:normal;font-variant:normal;font-weight:normal;font-stretch:normal;letter-spacing:normal;word-spacing:normal;text-anchor:start;fill:none;fill-opacity:1;fill-rule:evenodd;stroke:#000000;stroke-linecap:butt;stroke-linejoin:miter;stroke-miterlimit:10.43299961;stroke-dasharray:none;stroke-dashoffset:0;stroke-opacity:1"
       ns0:preamble="/home/sharad/workspace/research/talks/thesis-proposal/tikz.tex"
       ns0:text="\\includegraphics{/home/sharad/workspace/research/talks/thesis-proposal/tikz/tmc}"
       word-spacing="normal"
       letter-spacing="normal"
       font-size-adjust="none"
       font-stretch="normal"
       font-weight="normal"
       font-variant="normal"
       font-style="normal"
       stroke-miterlimit="10.433"
       xml:space="preserve"
       transform="matrix(1,0,0,-1,-82.817767,824.2906)"
       id="g4678"><path
         id="path4680"
         d="m 243.55,428.37 -0.01,0.51 -0.04,0.51 -0.06,0.5 -0.09,0.49 -0.11,0.48 -0.13,0.47 -0.16,0.47 -0.18,0.45 -0.2,0.44 -0.22,0.43 -0.24,0.42 -0.26,0.4 -0.28,0.39 -0.29,0.38 -0.32,0.36 -0.33,0.34 -0.34,0.33 -0.36,0.32 -0.38,0.29 -0.39,0.28 -0.4,0.26 -0.42,0.24 -0.43,0.22 -0.44,0.2 -0.45,0.18 -0.47,0.16 -0.47,0.13 -0.48,0.11 -0.49,0.09 -0.5,0.06 -0.51,0.04 -0.51,0.01 c -5.5,0 -9.96,-4.46 -9.96,-9.96 0,-5.5 4.46,-9.96 9.96,-9.96 5.5,0 9.96,4.46 9.96,9.96 z"
         inkscape:connector-curvature="0"
         style="fill:#dfdfdf;fill-rule:nonzero;stroke:#dfdfdf;stroke-width:0" /><path
         id="path4682"
         d="m 243.55,428.37 -0.01,0.51 -0.04,0.51 -0.06,0.5 -0.09,0.49 -0.11,0.48 -0.13,0.47 -0.16,0.47 -0.18,0.45 -0.2,0.44 -0.22,0.43 -0.24,0.42 -0.26,0.4 -0.28,0.39 -0.29,0.38 -0.32,0.36 -0.33,0.34 -0.34,0.33 -0.36,0.32 -0.38,0.29 -0.39,0.28 -0.4,0.26 -0.42,0.24 -0.43,0.22 -0.44,0.2 -0.45,0.18 -0.47,0.16 -0.47,0.13 -0.48,0.11 -0.49,0.09 -0.5,0.06 -0.51,0.04 -0.51,0.01 c -5.5,0 -9.96,-4.46 -9.96,-9.96 0,-5.5 4.46,-9.96 9.96,-9.96 5.5,0 9.96,4.46 9.96,9.96 z"
         inkscape:connector-curvature="0"
         style="stroke-width:0.3985" /><path
         id="path4684"
         d="m 235.65,430.15 -0.03,-0.01 -0.04,-0.01 -0.03,-0.01 -0.03,-0.02 -0.02,-0.01 -0.03,-0.02 -0.03,-0.01 -0.03,-0.02 -0.02,-0.02 -0.02,-0.02 -0.03,-0.02 -0.02,-0.02 -0.02,-0.03 -0.02,-0.02 -0.02,-0.02 -0.01,-0.03 -0.02,-0.02 -0.01,-0.02 -0.02,-0.03 -0.01,-0.02 -0.01,-0.03 -0.02,-0.03 -0.01,-0.02 0,-0.03 -0.01,-0.02 -0.01,-0.03 0,-0.02 -0.01,-0.03 0,-0.02 -0.01,-0.03 0,-0.02 0,-0.03 c 0,-0.21 0.17,-0.45 0.5,-0.45 0.35,0 0.72,0.29 0.72,0.77 0,0.53 -0.53,0.88 -1.14,0.88 -0.57,0 -0.93,-0.43 -1.06,-0.61 -0.25,0.42 -0.81,0.61 -1.38,0.61 -1.25,0 -1.93,-1.23 -1.93,-1.55 0,-0.14 0.15,-0.14 0.24,-0.14 0.12,0 0.19,0 0.23,0.13 0.28,0.9 1,1.2 1.41,1.2 0.38,0 0.56,-0.18 0.56,-0.5 0,-0.19 -0.14,-0.73 -0.23,-1.09 l -0.34,-1.37 c -0.15,-0.61 -0.51,-0.9 -0.85,-0.9 -0.05,0 -0.27,0 -0.47,0.15 0.36,0.1 0.53,0.43 0.53,0.68 0,0.22 -0.16,0.46 -0.49,0.46 -0.35,0 -0.72,-0.29 -0.72,-0.78 0,-0.52 0.53,-0.87 1.13,-0.87 0.57,0 0.94,0.43 1.07,0.61 0.25,-0.42 0.81,-0.61 1.37,-0.61 1.26,0 1.94,1.22 1.94,1.55 0,0.14 -0.15,0.14 -0.24,0.14 -0.12,0 -0.19,0 -0.23,-0.13 -0.29,-0.91 -1.01,-1.2 -1.41,-1.2 -0.38,0 -0.56,0.18 -0.56,0.49 0,0.21 0.13,0.74 0.22,1.11 0.07,0.26 0.29,1.2 0.34,1.36 0.16,0.59 0.5,0.9 0.85,0.9 0.05,0 0.28,0 0.48,-0.15 z"
         inkscape:connector-curvature="0"
         style="fill:#000000;stroke-width:0" /><path
         id="path4686"
         d="m 243.55,477.04 -0.01,0.51 -0.04,0.51 -0.06,0.5 -0.09,0.49 -0.11,0.48 -0.13,0.47 -0.16,0.47 -0.18,0.45 -0.2,0.44 -0.22,0.43 -0.24,0.42 -0.26,0.4 -0.28,0.39 -0.29,0.38 -0.32,0.36 -0.33,0.35 -0.34,0.33 -0.36,0.31 -0.38,0.29 -0.39,0.28 -0.4,0.26 -0.42,0.24 -0.43,0.22 -0.44,0.2 -0.45,0.18 -0.47,0.16 -0.47,0.13 -0.48,0.11 -0.49,0.09 -0.5,0.06 -0.51,0.04 -0.51,0.01 c -5.5,0 -9.96,-4.46 -9.96,-9.96 0,-5.5 4.46,-9.96 9.96,-9.96 5.5,0 9.96,4.46 9.96,9.96 z"
         inkscape:connector-curvature="0"
         style="fill:#ffffff;fill-rule:nonzero;stroke:#ffffff;stroke-width:0" /><path
         id="path4688"
         d="m 243.55,477.04 -0.01,0.51 -0.04,0.51 -0.06,0.5 -0.09,0.49 -0.11,0.48 -0.13,0.47 -0.16,0.47 -0.18,0.45 -0.2,0.44 -0.22,0.43 -0.24,0.42 -0.26,0.4 -0.28,0.39 -0.29,0.38 -0.32,0.36 -0.33,0.35 -0.34,0.33 -0.36,0.31 -0.38,0.29 -0.39,0.28 -0.4,0.26 -0.42,0.24 -0.43,0.22 -0.44,0.2 -0.45,0.18 -0.47,0.16 -0.47,0.13 -0.48,0.11 -0.49,0.09 -0.5,0.06 -0.51,0.04 -0.51,0.01 c -5.5,0 -9.96,-4.46 -9.96,-9.96 0,-5.5 4.46,-9.96 9.96,-9.96 5.5,0 9.96,4.46 9.96,9.96 z"
         inkscape:connector-curvature="0"
         style="stroke-width:0.3985" /><path
         id="path4690"
         d="m 233.78,478.62 1.67,0 c 0.13,0 0.49,0 0.49,0.33 0,0.24 -0.21,0.24 -0.4,0.24 l -2.79,0 c -0.2,0 -0.59,0 -1.02,-0.46 -0.33,-0.36 -0.61,-0.84 -0.61,-0.9 0,-0.01 0,-0.1 0.12,-0.1 0.08,0 0.1,0.04 0.16,0.12 0.49,0.77 1.05,0.77 1.26,0.77 l 0.83,0 -0.98,-3.2 c -0.04,-0.12 -0.1,-0.33 -0.1,-0.37 0,-0.11 0.07,-0.27 0.29,-0.27 0.33,0 0.38,0.28 0.41,0.43 z"
         inkscape:connector-curvature="0"
         style="fill:#000000;stroke-width:0" /><line
         id="line4692"
         y2="439.34"
         x2="233.59"
         y1="466.88"
         x1="233.59"
         style="stroke-width:0.3985" /><polygon
         id="polygon4694"
         points="233.59,439.04 231.25,444.54 235.93,444.54 "
         style="fill:#000000;fill-rule:nonzero;stroke-width:0" /><polygon
         id="polygon4696"
         points="233.59,439.04 231.25,444.54 235.93,444.54 "
         style="stroke-width:0.3985" /></g>  </g>
</svg>
