<?xml version="1.0" encoding="UTF-8" standalone="no"?>
<!-- Created with Inkscape (http://www.inkscape.org/) -->

<svg
   xmlns:ns0="http://www.iki.fi/pav/software/textext/"
   xmlns:dc="http://purl.org/dc/elements/1.1/"
   xmlns:cc="http://creativecommons.org/ns#"
   xmlns:rdf="http://www.w3.org/1999/02/22-rdf-syntax-ns#"
   xmlns:svg="http://www.w3.org/2000/svg"
   xmlns="http://www.w3.org/2000/svg"
   xmlns:sodipodi="http://sodipodi.sourceforge.net/DTD/sodipodi-0.dtd"
   xmlns:inkscape="http://www.inkscape.org/namespaces/inkscape"
   width="210mm"
   height="297mm"
   viewBox="0 0 744.09448819 1052.3622047"
   id="svg2"
   version="1.1"
   inkscape:version="0.91 r13725"
   sodipodi:docname="bayesian-overview.svg">
  <sodipodi:namedview
     id="base"
     pagecolor="#ffffff"
     bordercolor="#666666"
     borderopacity="1.0"
     inkscape:pageopacity="0.0"
     inkscape:pageshadow="2"
     inkscape:zoom="1.979899"
     inkscape:cx="118.9356"
     inkscape:cy="121.37531"
     inkscape:document-units="px"
     inkscape:current-layer="layer1"
     showgrid="false"
     inkscape:window-width="1920"
     inkscape:window-height="1026"
     inkscape:window-x="0"
     inkscape:window-y="0"
     inkscape:window-maximized="1" />
  <defs
     id="defs4" />
  <metadata
     id="metadata7">
    <rdf:RDF>
      <cc:Work
         rdf:about="">
        <dc:format>image/svg+xml</dc:format>
        <dc:type
           rdf:resource="http://purl.org/dc/dcmitype/StillImage" />
        <dc:title />
      </cc:Work>
    </rdf:RDF>
  </metadata>
  <g
     id="layer1"
     inkscape:groupmode="layer"
     inkscape:label="Layer 1">
    <g
       style="font-style:normal;font-variant:normal;font-weight:normal;font-stretch:normal;letter-spacing:normal;word-spacing:normal;text-anchor:start;fill:none;fill-opacity:1;fill-rule:evenodd;stroke:#000000;stroke-linecap:butt;stroke-linejoin:miter;stroke-miterlimit:10.43299961;stroke-dasharray:none;stroke-dashoffset:0;stroke-opacity:1"
       id="content"
       transform="matrix(1,0,0,-1,-184.91009,1324.5504)"
       xml:space="preserve"
       stroke-miterlimit="10.433"
       font-style="normal"
       font-variant="normal"
       font-weight="normal"
       font-stretch="normal"
       font-size-adjust="none"
       letter-spacing="normal"
       word-spacing="normal"
       ns0:text="\\includegraphics{/home/sharad/workspace/research/talks/thesis-proposal/tikz/gmm}"
       ns0:preamble="/home/sharad/workspace/research/talks/thesis-proposal/tikz.tex"><path
         style="fill:#dfdfdf;fill-rule:nonzero;stroke:#dfdfdf;stroke-width:0"
         inkscape:connector-curvature="0"
         d="m 247.27,379.7 -0.01,0.51 -0.04,0.51 -0.06,0.5 -0.09,0.49 -0.11,0.48 -0.13,0.47 -0.16,0.47 -0.18,0.45 -0.2,0.44 -0.22,0.43 -0.24,0.42 -0.26,0.4 -0.28,0.39 -0.29,0.38 -0.32,0.36 -0.33,0.34 -0.34,0.33 -0.36,0.32 -0.38,0.29 -0.39,0.28 -0.4,0.26 -0.42,0.24 -0.43,0.22 -0.44,0.2 -0.45,0.18 -0.47,0.16 -0.47,0.13 -0.48,0.11 -0.49,0.09 -0.5,0.06 -0.51,0.04 -0.51,0.01 c -5.5,0 -9.96,-4.46 -9.96,-9.96 0,-5.5 4.46,-9.96 9.96,-9.96 5.5,0 9.96,4.46 9.96,9.96 z"
         id="path4180" /><path
         style="stroke-width:0.3985"
         inkscape:connector-curvature="0"
         d="m 247.27,379.7 -0.01,0.51 -0.04,0.51 -0.06,0.5 -0.09,0.49 -0.11,0.48 -0.13,0.47 -0.16,0.47 -0.18,0.45 -0.2,0.44 -0.22,0.43 -0.24,0.42 -0.26,0.4 -0.28,0.39 -0.29,0.38 -0.32,0.36 -0.33,0.34 -0.34,0.33 -0.36,0.32 -0.38,0.29 -0.39,0.28 -0.4,0.26 -0.42,0.24 -0.43,0.22 -0.44,0.2 -0.45,0.18 -0.47,0.16 -0.47,0.13 -0.48,0.11 -0.49,0.09 -0.5,0.06 -0.51,0.04 -0.51,0.01 c -5.5,0 -9.96,-4.46 -9.96,-9.96 0,-5.5 4.46,-9.96 9.96,-9.96 5.5,0 9.96,4.46 9.96,9.96 z"
         id="path4182" /><path
         style="fill:#000000;stroke-width:0"
         inkscape:connector-curvature="0"
         d="m 236.13,381.31 0,0.03 0.01,0.02 0.01,0.04 0.01,0.03 0.01,0.04 0.01,0.04 0.01,0.05 0.02,0.04 0.01,0.05 0.02,0.05 0.02,0.05 0.02,0.04 0.02,0.05 0.03,0.05 0.02,0.05 0.03,0.05 0.03,0.05 0.03,0.05 0.04,0.05 0.03,0.04 0.04,0.04 0.04,0.04 0.04,0.04 0.04,0.04 0.05,0.03 0.05,0.03 0.02,0.01 0.03,0.01 0.03,0.01 0.02,0.01 0.03,0.01 0.03,0.01 0.03,0.01 0.03,0 0.03,0.01 0.03,0 0.03,0 0.03,0 c 0.05,0 0.29,0 0.5,-0.12 -0.28,-0.06 -0.48,-0.3 -0.48,-0.54 0,-0.16 0.11,-0.35 0.38,-0.35 0.22,0 0.54,0.18 0.54,0.58 0,0.51 -0.59,0.65 -0.93,0.65 -0.57,0 -0.92,-0.52 -1.04,-0.75 -0.25,0.65 -0.79,0.75 -1.08,0.75 -1.03,0 -1.6,-1.28 -1.6,-1.53 0,-0.1 0.1,-0.1 0.12,-0.1 0.08,0 0.11,0.02 0.13,0.11 0.34,1.05 0.99,1.3 1.33,1.3 0.19,0 0.54,-0.09 0.54,-0.66 0,-0.31 -0.17,-0.98 -0.54,-2.37 -0.16,-0.62 -0.51,-1.04 -0.94,-1.04 -0.06,0 -0.29,0 -0.5,0.13 0.25,0.05 0.47,0.26 0.47,0.54 0,0.27 -0.22,0.35 -0.37,0.35 -0.3,0 -0.55,-0.26 -0.55,-0.58 0,-0.46 0.5,-0.66 0.93,-0.66 0.66,0 1.02,0.7 1.05,0.76 0.12,-0.37 0.48,-0.76 1.08,-0.76 1.02,0 1.59,1.29 1.59,1.54 0,0.09 -0.09,0.09 -0.12,0.09 -0.09,0 -0.11,-0.04 -0.13,-0.11 -0.33,-1.06 -1,-1.3 -1.32,-1.3 -0.39,0 -0.55,0.32 -0.55,0.66 0,0.22 0.06,0.44 0.17,0.87 z"
         id="path4184" /><path
         style="fill:#000000;stroke-width:0"
         inkscape:connector-curvature="0"
         d="m 240.76,381.16 0,0.01 0,0.01 0,0.01 0,0.01 -0.01,0.01 0,0.01 0,0.02 -0.01,0.01 0,0.01 -0.01,0.01 0,0.01 -0.01,0.01 0,0.01 -0.01,0.01 -0.01,0.01 -0.01,0.01 -0.01,0.01 0,0.01 -0.01,0.01 -0.02,0.01 -0.01,0.01 -0.01,0 -0.01,0.01 -0.01,0.01 -0.02,0 -0.01,0.01 -0.02,0 -0.01,0.01 -0.02,0 -0.01,0 -0.02,0 -0.02,0 c -0.19,0 -0.39,-0.18 -0.39,-0.38 0,-0.12 0.09,-0.27 0.28,-0.27 0.2,0 0.39,0.2 0.39,0.39 z"
         id="path4186" /><path
         style="fill:#000000;stroke-width:0"
         inkscape:connector-curvature="0"
         d="m 239.34,377.62 -0.01,-0.02 0,-0.02 -0.01,-0.03 -0.01,-0.02 -0.01,-0.02 0,-0.01 0,-0.02 -0.01,-0.02 0,-0.02 -0.01,-0.01 0,-0.02 0,-0.01 0,-0.01 0,-0.01 0,-0.01 -0.01,-0.01 0,-0.02 0,-0.01 0,-0.01 c 0,-0.33 0.28,-0.59 0.67,-0.59 0.69,0 1,0.96 1,1.07 0,0.09 -0.09,0.09 -0.11,0.09 -0.1,0 -0.1,-0.04 -0.13,-0.12 -0.16,-0.56 -0.47,-0.84 -0.74,-0.84 -0.14,0 -0.18,0.09 -0.18,0.24 0,0.16 0.05,0.29 0.12,0.45 0.06,0.18 0.14,0.37 0.22,0.55 0.06,0.17 0.31,0.81 0.34,0.89 0.02,0.07 0.04,0.15 0.04,0.22 0,0.33 -0.28,0.6 -0.66,0.6 -0.69,0 -1.01,-0.95 -1.01,-1.07 0,-0.09 0.1,-0.09 0.12,-0.09 0.09,0 0.1,0.03 0.12,0.11 0.18,0.6 0.49,0.85 0.75,0.85 0.11,0 0.17,-0.06 0.17,-0.24 0,-0.16 -0.04,-0.27 -0.21,-0.7 z"
         id="path4188" /><path
         style="fill:#ffffff;fill-rule:nonzero;stroke:#ffffff;stroke-width:0"
         inkscape:connector-curvature="0"
         d="m 247.27,428.37 -0.01,0.51 -0.04,0.51 -0.06,0.5 -0.09,0.49 -0.11,0.48 -0.13,0.47 -0.16,0.47 -0.18,0.45 -0.2,0.44 -0.22,0.43 -0.24,0.42 -0.26,0.4 -0.28,0.39 -0.29,0.38 -0.32,0.36 -0.33,0.35 -0.34,0.33 -0.36,0.31 -0.38,0.29 -0.39,0.28 -0.4,0.26 -0.42,0.24 -0.43,0.22 -0.44,0.2 -0.45,0.18 -0.47,0.16 -0.47,0.13 -0.48,0.11 -0.49,0.09 -0.5,0.06 -0.51,0.04 -0.51,0.01 c -5.5,0 -9.96,-4.46 -9.96,-9.96 0,-5.5 4.46,-9.96 9.96,-9.96 5.5,0 9.96,4.46 9.96,9.96 z"
         id="path4190" /><path
         style="stroke-width:0.3985"
         inkscape:connector-curvature="0"
         d="m 247.27,428.37 -0.01,0.51 -0.04,0.51 -0.06,0.5 -0.09,0.49 -0.11,0.48 -0.13,0.47 -0.16,0.47 -0.18,0.45 -0.2,0.44 -0.22,0.43 -0.24,0.42 -0.26,0.4 -0.28,0.39 -0.29,0.38 -0.32,0.36 -0.33,0.35 -0.34,0.33 -0.36,0.31 -0.38,0.29 -0.39,0.28 -0.4,0.26 -0.42,0.24 -0.43,0.22 -0.44,0.2 -0.45,0.18 -0.47,0.16 -0.47,0.13 -0.48,0.11 -0.49,0.09 -0.5,0.06 -0.51,0.04 -0.51,0.01 c -5.5,0 -9.96,-4.46 -9.96,-9.96 0,-5.5 4.46,-9.96 9.96,-9.96 5.5,0 9.96,4.46 9.96,9.96 z"
         id="path4192" /><path
         style="fill:#000000;stroke-width:0"
         inkscape:connector-curvature="0"
         d="m 234.66,427.79 0.05,0.06 0.05,0.05 0.04,0.05 0.05,0.05 0.04,0.04 0.05,0.05 0.04,0.04 0.04,0.04 0.04,0.04 0.04,0.04 0.04,0.04 0.03,0.04 0.04,0.03 0.04,0.04 0.07,0.06 0.07,0.07 0.06,0.06 0.07,0.06 0.06,0.05 0.13,0.12 0.07,0.05 0.06,0.06 c 0,0.01 0.62,0.54 0.98,0.9 0.95,0.92 1.17,1.4 1.17,1.44 0,0.1 -0.09,0.1 -0.11,0.1 -0.07,0 -0.1,-0.02 -0.15,-0.11 -0.3,-0.48 -0.51,-0.64 -0.75,-0.64 -0.24,0 -0.36,0.15 -0.51,0.32 -0.19,0.23 -0.36,0.43 -0.69,0.43 -0.74,0 -1.2,-0.92 -1.2,-1.14 0,-0.04 0.03,-0.1 0.12,-0.1 0.09,0 0.11,0.05 0.13,0.1 0.19,0.46 0.76,0.47 0.84,0.47 0.21,0 0.4,-0.07 0.63,-0.15 0.4,-0.15 0.51,-0.15 0.77,-0.15 -0.36,-0.42 -1.2,-1.14 -1.39,-1.3 l -0.89,-0.84 c -0.68,-0.66 -1.03,-1.23 -1.03,-1.3 0,-0.1 0.1,-0.1 0.12,-0.1 0.08,0 0.1,0.02 0.16,0.13 0.23,0.35 0.53,0.62 0.85,0.62 0.23,0 0.32,-0.09 0.57,-0.38 0.17,-0.21 0.35,-0.37 0.64,-0.37 0.99,0 1.57,1.26 1.57,1.53 0,0.05 -0.04,0.1 -0.12,0.1 -0.09,0 -0.11,-0.06 -0.14,-0.13 -0.23,-0.65 -0.87,-0.84 -1.2,-0.84 -0.2,0 -0.38,0.06 -0.59,0.13 -0.33,0.13 -0.48,0.17 -0.69,0.17 -0.02,0 -0.18,0 -0.27,-0.03 z"
         id="path4194" /><path
         style="fill:#000000;stroke-width:0"
         inkscape:connector-curvature="0"
         d="m 240.23,429.83 0,0.01 0,0.01 -0.01,0.01 0,0.01 0,0.01 0,0.01 -0.01,0.01 0,0.01 0,0.02 -0.01,0.01 0,0.01 -0.01,0.01 -0.01,0.01 0,0.01 -0.01,0.01 -0.01,0.01 -0.01,0.01 -0.01,0.01 -0.01,0.01 -0.01,0.01 -0.01,0 -0.01,0.01 -0.01,0.01 -0.02,0.01 -0.01,0 -0.01,0.01 -0.02,0 -0.01,0 -0.02,0.01 -0.02,0 -0.01,0 -0.02,0 c -0.19,0 -0.39,-0.18 -0.39,-0.38 0,-0.12 0.09,-0.27 0.28,-0.27 0.2,0 0.39,0.2 0.39,0.39 z"
         id="path4196" /><path
         style="fill:#000000;stroke-width:0"
         inkscape:connector-curvature="0"
         d="m 238.8,426.28 -0.01,-0.03 -0.01,-0.03 0,-0.02 -0.01,-0.02 0,-0.02 -0.01,-0.01 0,-0.02 -0.01,-0.02 0,-0.02 0,-0.02 0,-0.02 -0.01,-0.01 0,-0.01 0,-0.01 0,-0.01 0,-0.01 0,-0.01 c 0,-0.33 0.28,-0.59 0.66,-0.59 0.7,0 1.01,0.96 1.01,1.06 0,0.09 -0.09,0.09 -0.11,0.09 -0.1,0 -0.11,-0.04 -0.14,-0.11 -0.16,-0.56 -0.46,-0.85 -0.73,-0.85 -0.14,0 -0.18,0.09 -0.18,0.25 0,0.16 0.05,0.29 0.11,0.44 0.07,0.19 0.15,0.38 0.23,0.56 0.06,0.17 0.31,0.8 0.34,0.89 0.02,0.07 0.04,0.15 0.04,0.22 0,0.33 -0.28,0.59 -0.66,0.59 -0.69,0 -1.02,-0.94 -1.02,-1.06 0,-0.09 0.1,-0.09 0.12,-0.09 0.1,0 0.11,0.03 0.13,0.11 0.18,0.6 0.49,0.85 0.75,0.85 0.11,0 0.17,-0.06 0.17,-0.25 0,-0.16 -0.04,-0.26 -0.22,-0.69 z"
         id="path4198" /><path
         style="fill:#ffffff;fill-rule:nonzero;stroke:#ffffff;stroke-width:0"
         inkscape:connector-curvature="0"
         d="m 307.27,428.37 -0.02,0.81 -0.06,0.79 -0.1,0.78 -0.14,0.77 -0.17,0.76 -0.21,0.74 -0.25,0.72 -0.28,0.71 -0.31,0.7 -0.34,0.67 -0.38,0.65 -0.41,0.64 -0.43,0.61 -0.47,0.59 -0.49,0.57 -0.52,0.54 -0.54,0.52 -0.57,0.49 -0.59,0.46 -0.61,0.44 -0.63,0.4 -0.66,0.38 -0.67,0.35 -0.69,0.31 -0.71,0.28 -0.73,0.24 -0.74,0.22 -0.76,0.17 -0.77,0.14 -0.78,0.1 -0.79,0.06 -0.81,0.02 c -8.63,0 -15.62,-7 -15.62,-15.63 0,-8.63 6.99,-15.63 15.62,-15.63 8.63,0 15.63,7 15.63,15.63 z"
         id="path4200" /><path
         style="stroke-width:0.3985"
         inkscape:connector-curvature="0"
         d="m 307.27,428.37 -0.02,0.81 -0.06,0.79 -0.1,0.78 -0.14,0.77 -0.17,0.76 -0.21,0.74 -0.25,0.72 -0.28,0.71 -0.31,0.7 -0.34,0.67 -0.38,0.65 -0.41,0.64 -0.43,0.61 -0.47,0.59 -0.49,0.57 -0.52,0.54 -0.54,0.52 -0.57,0.49 -0.59,0.46 -0.61,0.44 -0.63,0.4 -0.66,0.38 -0.67,0.35 -0.69,0.31 -0.71,0.28 -0.73,0.24 -0.74,0.22 -0.76,0.17 -0.77,0.14 -0.78,0.1 -0.79,0.06 -0.81,0.02 c -8.63,0 -15.62,-7 -15.62,-15.63 0,-8.63 6.99,-15.63 15.62,-15.63 8.63,0 15.63,7 15.63,15.63 z"
         id="path4202" /><path
         style="fill:#000000;stroke-width:0"
         inkscape:connector-curvature="0"
         d="m 280.23,429.44 0,0.02 0.01,0.02 0,0.02 0.01,0.02 0.01,0.03 0,0.02 0.01,0.05 0.02,0.05 0.01,0.05 0.01,0.05 0.01,0.05 0.01,0.02 0,0.02 0.01,0.02 0,0.03 0.01,0.02 0,0.02 0.01,0.02 0,0.01 0.01,0.02 0,0.02 0,0.01 0,0.01 0.01,0.01 0,0.01 0,0.01 0,0 0,0.01 c 0,0.16 -0.12,0.26 -0.29,0.26 -0.03,0 -0.31,-0.01 -0.4,-0.36 l -1.43,-5.76 c -0.03,-0.12 -0.03,-0.14 -0.03,-0.16 0,-0.15 0.11,-0.27 0.28,-0.27 0.2,0 0.32,0.18 0.34,0.21 0.04,0.09 0.17,0.61 0.55,2.14 0.32,-0.27 0.77,-0.31 0.97,-0.31 0.7,0 1.08,0.45 1.32,0.73 0.09,-0.45 0.46,-0.73 0.9,-0.73 0.35,0 0.58,0.23 0.74,0.55 0.17,0.36 0.3,0.97 0.3,0.98 0,0.1 -0.09,0.1 -0.12,0.1 -0.1,0 -0.11,-0.04 -0.14,-0.17 -0.17,-0.65 -0.35,-1.24 -0.76,-1.24 -0.27,0 -0.3,0.26 -0.3,0.46 0,0.22 0.12,0.69 0.2,1.03 l 0.28,1.08 c 0.03,0.15 0.13,0.53 0.17,0.68 0.05,0.23 0.15,0.6 0.15,0.66 0,0.18 -0.14,0.27 -0.29,0.27 -0.05,0 -0.31,-0.01 -0.39,-0.34 l -0.47,-1.87 c -0.12,-0.5 -0.23,-0.91 -0.26,-1.01 -0.01,-0.05 -0.49,-0.96 -1.29,-0.96 -0.5,0 -0.74,0.33 -0.74,0.87 0,0.28 0.07,0.56 0.14,0.84 z"
         id="path4204" /><path
         style="fill:#000000;stroke-width:0"
         inkscape:connector-curvature="0"
         d="m 286.12,429.07 0.01,0 0,0 0,0 0,0 0,0.01 0,0 0,0 0,0 0,0 0,0.01 0,0 0,0 0,0.01 0,0 0.01,0.01 0,0 0,0.01 0,0 0,0.01 0,0.01 0,0 0.01,0.01 0,0 0,0.01 0,0 0,0 0,0.01 0,0 0,0 0,0 0,0 0,0.01 0,0 0,0 0,0 0,0 0,0 0,0 0,0 0,0 c 0,0.04 -0.03,0.1 -0.11,0.1 -0.14,0 -0.72,-0.06 -0.89,-0.07 -0.06,-0.01 -0.15,-0.01 -0.15,-0.16 0,-0.1 0.09,-0.1 0.18,-0.1 0.33,0 0.33,-0.05 0.33,-0.1 0,-0.05 -0.01,-0.09 -0.03,-0.16 l -0.98,-3.94 c -0.03,-0.13 -0.03,-0.14 -0.03,-0.16 0,-0.1 0.08,-0.22 0.23,-0.22 0.19,0 0.28,0.14 0.32,0.29 0.02,0.03 0.32,1.26 0.34,1.36 0.5,-0.05 0.9,-0.21 0.9,-0.58 0,-0.03 0,-0.06 -0.02,-0.14 -0.02,-0.1 -0.02,-0.13 -0.02,-0.21 0,-0.5 0.4,-0.72 0.73,-0.72 0.68,0 0.89,1.06 0.89,1.07 0,0.09 -0.09,0.09 -0.11,0.09 -0.1,0 -0.11,-0.04 -0.14,-0.17 -0.08,-0.3 -0.27,-0.79 -0.61,-0.79 -0.19,0 -0.25,0.17 -0.25,0.36 0,0.12 0,0.13 0.04,0.31 0.01,0.02 0.04,0.14 0.04,0.22 0,0.62 -0.84,0.72 -1.13,0.74 0.2,0.12 0.46,0.35 0.58,0.46 0.35,0.33 0.7,0.66 1.09,0.66 0.09,0 0.18,-0.02 0.23,-0.09 -0.3,-0.05 -0.36,-0.29 -0.36,-0.39 0,-0.15 0.12,-0.26 0.28,-0.26 0.19,0 0.4,0.15 0.4,0.45 0,0.23 -0.17,0.49 -0.54,0.49 -0.4,0 -0.76,-0.29 -1.12,-0.62 -0.29,-0.28 -0.52,-0.49 -0.81,-0.61 z"
         id="path4206" /><path
         style="fill:#000000;stroke-width:0"
         inkscape:connector-curvature="0"
         d="m 290.86,425.95 0,0.06 0,0.06 0,0.06 -0.01,0.05 -0.01,0.06 0,0.05 -0.01,0.05 -0.01,0.05 -0.01,0.05 -0.02,0.04 -0.01,0.05 -0.02,0.04 -0.01,0.04 -0.02,0.04 -0.02,0.04 -0.02,0.03 -0.02,0.03 -0.02,0.03 -0.03,0.03 -0.02,0.03 -0.03,0.02 -0.03,0.03 -0.02,0.02 -0.03,0.02 -0.03,0.01 -0.03,0.02 -0.03,0.01 -0.04,0.01 -0.03,0.01 -0.03,0 -0.04,0 -0.03,0.01 c -0.33,0 -0.53,-0.25 -0.53,-0.53 0,-0.27 0.2,-0.53 0.53,-0.53 0.11,0 0.24,0.04 0.34,0.13 0.03,0.02 0.04,0.03 0.05,0.03 0.01,0 0.02,-0.01 0.02,-0.15 0,-0.74 -0.34,-1.34 -0.67,-1.66 -0.11,-0.11 -0.11,-0.13 -0.11,-0.16 0,-0.07 0.05,-0.11 0.1,-0.11 0.11,0 0.9,0.76 0.9,1.93 z"
         id="path4208" /><path
         style="fill:#000000;stroke-width:0"
         inkscape:connector-curvature="0"
         d="m 296.98,429.19 0,0 0.01,0.01 0,0 0,0.01 0.01,0 0,0 0.01,0.01 0,0 0,0.01 0,0 0.01,0.01 0.01,0.01 0,0 0,0.01 0.01,0.01 0,0 0.01,0.01 0,0 0,0.01 0,0 0.01,0.01 0,0 0,0.01 0,0 0,0 0,0.01 0.01,0 0,0 0,0.01 0,0 0,0 0,0.01 0,0 0,0 0,0 0,0.01 c 0,0.05 -0.04,0.1 -0.07,0.14 l -2.04,2.95 2.3,0 c 1.68,0 2.18,-0.36 2.39,-1.94 l 0.25,0 -0.28,2.24 -5.53,0 c -0.24,0 -0.26,0 -0.26,-0.22 l 2.48,-3.61 -2.37,-2.7 c -0.1,-0.11 -0.1,-0.13 -0.1,-0.16 0,-0.11 0.1,-0.11 0.25,-0.11 l 5.53,0 0.28,2.35 -0.25,0 c -0.18,-1.66 -0.86,-1.93 -2.42,-1.93 l -2.75,0 z"
         id="path4210" /><path
         style="fill:#000000;stroke-width:0"
         inkscape:connector-curvature="0"
         d="m 302.64,429.07 0,0 0,0 0,0 0,0 0,0.01 0,0 0,0 0,0 0,0 0.01,0.01 0,0 0,0 0,0.01 0,0 0,0.01 0,0 0,0.01 0,0 0.01,0.01 0,0.01 0,0 0,0.01 0,0 0,0.01 0,0 0,0 0.01,0.01 0,0 0,0 0,0 0,0 0,0.01 0,0 0,0 0,0 0,0 0,0 0,0 0,0 0,0 c 0,0.04 -0.03,0.1 -0.11,0.1 -0.14,0 -0.72,-0.06 -0.9,-0.07 -0.05,-0.01 -0.15,-0.01 -0.15,-0.16 0,-0.1 0.1,-0.1 0.18,-0.1 0.34,0 0.34,-0.05 0.34,-0.1 0,-0.05 -0.02,-0.09 -0.03,-0.16 l -0.98,-3.94 c -0.04,-0.13 -0.04,-0.14 -0.04,-0.16 0,-0.1 0.08,-0.22 0.24,-0.22 0.19,0 0.28,0.14 0.32,0.29 0.01,0.03 0.31,1.26 0.34,1.36 0.5,-0.05 0.89,-0.21 0.89,-0.58 0,-0.03 0,-0.06 -0.01,-0.14 -0.03,-0.1 -0.03,-0.13 -0.03,-0.21 0,-0.5 0.41,-0.72 0.74,-0.72 0.68,0 0.89,1.06 0.89,1.07 0,0.09 -0.09,0.09 -0.12,0.09 -0.09,0 -0.1,-0.04 -0.13,-0.17 -0.09,-0.3 -0.28,-0.79 -0.62,-0.79 -0.19,0 -0.24,0.17 -0.24,0.36 0,0.12 0,0.13 0.04,0.31 0.01,0.02 0.03,0.14 0.03,0.22 0,0.62 -0.83,0.72 -1.13,0.74 0.21,0.12 0.46,0.35 0.58,0.46 0.36,0.33 0.71,0.66 1.1,0.66 0.08,0 0.17,-0.02 0.23,-0.09 -0.3,-0.05 -0.37,-0.29 -0.37,-0.39 0,-0.15 0.12,-0.26 0.28,-0.26 0.19,0 0.4,0.15 0.4,0.45 0,0.23 -0.17,0.49 -0.53,0.49 -0.4,0 -0.77,-0.29 -1.12,-0.62 -0.29,-0.28 -0.52,-0.49 -0.81,-0.61 z"
         id="path4212" /><path
         style="fill:#ffffff;fill-rule:nonzero;stroke:#ffffff;stroke-width:0"
         inkscape:connector-curvature="0"
         d="m 247.27,477.04 -0.01,0.51 -0.04,0.51 -0.06,0.5 -0.09,0.49 -0.11,0.48 -0.13,0.47 -0.16,0.47 -0.18,0.45 -0.2,0.44 -0.22,0.43 -0.24,0.42 -0.26,0.4 -0.28,0.39 -0.29,0.38 -0.32,0.36 -0.33,0.35 -0.34,0.33 -0.36,0.31 -0.38,0.29 -0.39,0.28 -0.4,0.26 -0.42,0.24 -0.43,0.22 -0.44,0.2 -0.45,0.18 -0.47,0.16 -0.47,0.13 -0.48,0.11 -0.49,0.09 -0.5,0.06 -0.51,0.04 -0.51,0.01 c -5.5,0 -9.96,-4.46 -9.96,-9.96 0,-5.5 4.46,-9.96 9.96,-9.96 5.5,0 9.96,4.46 9.96,9.96 z"
         id="path4214" /><path
         style="stroke-width:0.3985"
         inkscape:connector-curvature="0"
         d="m 247.27,477.04 -0.01,0.51 -0.04,0.51 -0.06,0.5 -0.09,0.49 -0.11,0.48 -0.13,0.47 -0.16,0.47 -0.18,0.45 -0.2,0.44 -0.22,0.43 -0.24,0.42 -0.26,0.4 -0.28,0.39 -0.29,0.38 -0.32,0.36 -0.33,0.35 -0.34,0.33 -0.36,0.31 -0.38,0.29 -0.39,0.28 -0.4,0.26 -0.42,0.24 -0.43,0.22 -0.44,0.2 -0.45,0.18 -0.47,0.16 -0.47,0.13 -0.48,0.11 -0.49,0.09 -0.5,0.06 -0.51,0.04 -0.51,0.01 c -5.5,0 -9.96,-4.46 -9.96,-9.96 0,-5.5 4.46,-9.96 9.96,-9.96 5.5,0 9.96,4.46 9.96,9.96 z"
         id="path4216" /><path
         style="fill:#000000;stroke-width:0"
         inkscape:connector-curvature="0"
         d="m 236.93,478.62 1.13,0 c -0.33,-1.48 -0.42,-1.91 -0.42,-2.57 0,-0.15 0,-0.42 0.08,-0.76 0.1,-0.44 0.21,-0.5 0.36,-0.5 0.2,0 0.41,0.18 0.41,0.38 0,0.06 0,0.08 -0.06,0.22 -0.29,0.72 -0.29,1.36 -0.29,1.64 0,0.53 0.07,1.07 0.18,1.59 l 1.13,0 c 0.13,0 0.49,0 0.49,0.33 0,0.24 -0.21,0.24 -0.4,0.24 l -3.33,0 c -0.22,0 -0.6,0 -1.04,-0.46 -0.35,-0.39 -0.61,-0.85 -0.61,-0.9 0,-0.01 0,-0.1 0.12,-0.1 0.08,0 0.1,0.04 0.16,0.12 0.49,0.77 1.07,0.77 1.27,0.77 l 0.56,0 c -0.32,-1.21 -0.85,-2.42 -1.27,-3.32 -0.08,-0.15 -0.08,-0.17 -0.08,-0.24 0,-0.19 0.16,-0.27 0.29,-0.27 0.3,0 0.38,0.28 0.5,0.65 0.13,0.46 0.13,0.48 0.27,0.97 z"
         id="path4218" /><line
         style="stroke-width:0.3985"
         x1="237.31"
         y1="466.88"
         x2="237.31"
         y2="439.34"
         id="line4220" /><polygon
         style="fill:#000000;fill-rule:nonzero;stroke-width:0"
         points="239.65,444.55 237.31,439.04 234.97,444.55 "
         id="polygon4222" /><polygon
         style="stroke-width:0.3985"
         points="239.65,444.55 237.31,439.04 234.97,444.55 "
         id="polygon4224" /><line
         style="stroke-width:0.3985"
         x1="237.31"
         y1="418.20999"
         x2="237.31"
         y2="390.67001"
         id="line4226" /><polygon
         style="fill:#000000;fill-rule:nonzero;stroke-width:0"
         points="239.65,395.87 237.31,390.37 234.97,395.87 "
         id="polygon4228" /><polygon
         style="stroke-width:0.3985"
         points="239.65,395.87 237.31,390.37 234.97,395.87 "
         id="polygon4230" /><line
         style="stroke-width:0.3985"
         x1="279.82001"
         y1="417.78"
         x2="245.50999"
         y2="387.04001"
         id="line4232" /><polygon
         style="fill:#000000;fill-rule:nonzero;stroke-width:0"
         points="250.96,388.78 245.28,386.84 247.83,392.27 "
         id="polygon4234" /><polygon
         style="stroke-width:0.39963999"
         points="250.96,388.78 245.28,386.84 247.83,392.27 "
         id="polygon4236" /><path
         style="fill:#000000;stroke-width:0"
         inkscape:connector-curvature="0"
         d="m 246.21,363.29 0.01,0.03 0.01,0.04 0.01,0.03 0.02,0.03 0.01,0.03 0.01,0.03 0.01,0.03 0.02,0.03 0.01,0.03 0.02,0.02 0.01,0.03 0.02,0.02 0.02,0.02 0.02,0.03 0.02,0.02 0.03,0.02 0.02,0.01 0.03,0.02 0.03,0.02 0.03,0.01 0.03,0.02 0.03,0.01 0.03,0.01 0.04,0.01 0.04,0.01 0.04,0.01 0.04,0.01 0.04,0 0.05,0.01 0.05,0 0.05,0.01 0.05,0 c 0.08,0 0.14,0.05 0.14,0.15 0,0.05 -0.04,0.11 -0.12,0.11 -0.05,0 -0.2,-0.02 -0.79,-0.02 -0.64,0 -0.75,0.02 -0.82,0.02 -0.12,0 -0.15,-0.08 -0.15,-0.15 0,-0.1 0.11,-0.11 0.18,-0.11 0.48,-0.01 0.48,-0.23 0.48,-0.34 0,-0.04 0,-0.08 -0.03,-0.21 l -0.88,-3.49 -1.92,4.16 c -0.06,0.14 -0.08,0.14 -0.27,0.14 l -1.03,0 c -0.15,0 -0.25,0 -0.25,-0.15 0,-0.11 0.1,-0.11 0.26,-0.11 0.07,0 0.31,0 0.49,-0.05 l -1.07,-4.28 c -0.09,-0.4 -0.3,-0.57 -0.84,-0.59 -0.04,0 -0.14,-0.01 -0.14,-0.15 0,-0.05 0.04,-0.11 0.12,-0.11 0.03,0 0.22,0.02 0.79,0.02 0.63,0 0.75,-0.02 0.82,-0.02 0.03,0 0.15,0 0.15,0.15 0,0.1 -0.09,0.11 -0.14,0.11 -0.29,0.01 -0.53,0.06 -0.53,0.34 0,0.04 0.03,0.15 0.03,0.16 l 1.04,4.16 0.01,0 2.21,-4.78 c 0.06,-0.12 0.07,-0.14 0.16,-0.14 0.11,0 0.11,0.03 0.15,0.17 z"
         id="path4238" /><path
         style="stroke-width:0.3985"
         inkscape:connector-curvature="0"
         d="m 247.01,442.05 -19.4,0 c -2.2,0 -3.98,-1.78 -3.98,-3.98 l 0,-78.89 c 0,-2.2 1.78,-3.99 3.98,-3.99 l 19.4,0 c 2.2,0 3.98,1.79 3.98,3.99 l 0,78.89 c 0,2.2 -1.78,3.98 -3.98,3.98 z"
         id="path4240" /><path
         style="fill:#000000;stroke-width:0"
         inkscape:connector-curvature="0"
         d="m 304.05,404.93 0,0 0,0 0,0 0,0 -0.01,0 0,0 0,0 0,0.01 0,0 0,0 0,0.01 -0.01,0 0,0.01 0,0 0,0 -0.01,0.01 0,0.01 0,0.01 0,0 -0.01,0 0,0.01 0,0 0,0.01 0,0 0,0 -0.01,0.01 0,0 0,0 0,0 0,0 0,0 0,0.01 0,0 0,0 0,0 0,0 0,0 0,0 c 0,0.02 0.14,0.11 0.21,0.17 0.63,0.46 1.49,1.08 1.76,1.25 0.41,0.25 0.7,0.42 1.06,0.45 0.06,0.01 0.17,0.02 0.17,0.16 0,0.06 -0.05,0.11 -0.11,0.11 -0.01,0 -0.23,-0.03 -0.29,-0.03 l -0.31,0 c -0.14,0 -0.34,0 -0.41,0.01 -0.06,0 -0.37,0.02 -0.42,0.02 -0.06,0 -0.17,0 -0.17,-0.15 0,-0.01 0.01,-0.11 0.13,-0.12 0.06,-0.01 0.19,-0.02 0.19,-0.12 0,-0.12 -0.16,-0.26 -0.18,-0.27 l -0.06,-0.05 c -0.02,-0.03 -0.06,-0.06 -0.1,-0.08 l -3.25,-2.36 0.63,2.52 c 0.07,0.29 0.09,0.36 0.67,0.36 0.16,0 0.26,0 0.26,0.15 0,0.01 -0.01,0.12 -0.14,0.12 -0.15,0 -0.34,-0.02 -0.49,-0.03 l -0.51,0 c -0.76,0 -0.97,0.03 -1.02,0.03 -0.04,0 -0.16,0 -0.16,-0.15 0,-0.12 0.09,-0.12 0.23,-0.12 0.26,0 0.49,0 0.49,-0.13 0,-0.03 -0.01,-0.03 -0.03,-0.14 l -1.07,-4.28 c -0.07,-0.3 -0.09,-0.36 -0.68,-0.36 -0.15,0 -0.24,0 -0.24,-0.16 0,-0.03 0.02,-0.11 0.13,-0.11 0.15,0 0.34,0.02 0.49,0.03 l 1.03,0 c 0.12,-0.01 0.39,-0.03 0.51,-0.03 0.04,0 0.16,0 0.16,0.15 0,0.12 -0.1,0.12 -0.23,0.12 -0.06,0 -0.17,0 -0.31,0.01 -0.16,0.02 -0.19,0.03 -0.19,0.11 0,0.05 0.06,0.25 0.08,0.38 l 0.31,1.2 1.28,0.93 0.95,-1.97 c 0.04,-0.07 0.12,-0.24 0.16,-0.31 0.04,-0.08 0.04,-0.1 0.04,-0.13 0,-0.22 -0.29,-0.22 -0.38,-0.22 -0.08,0 -0.19,0 -0.19,-0.16 0,0 0.01,-0.11 0.14,-0.11 0.07,0 0.38,0.02 0.45,0.03 l 0.46,0 c 0.74,0 0.71,-0.03 0.81,-0.03 0.04,0 0.16,0 0.16,0.15 0,0.12 -0.12,0.12 -0.16,0.12 -0.31,0 -0.42,0.06 -0.54,0.33 z"
         id="path4242" /><path
         style="stroke-width:0.3985"
         inkscape:connector-curvature="0"
         d="m 307.01,447.72 -30.73,0 c -2.2,0 -3.98,-1.79 -3.98,-3.99 l 0,-41.55 c 0,-2.2 1.78,-3.98 3.98,-3.98 l 30.73,0 c 2.2,0 3.98,1.78 3.98,3.98 l 0,41.55 c 0,2.2 -1.78,3.99 -3.98,3.99 z"
         id="path4244" /></g>    <g
       style="font-style:normal;font-variant:normal;font-weight:normal;font-stretch:normal;letter-spacing:normal;word-spacing:normal;text-anchor:start;fill:none;fill-opacity:1;fill-rule:evenodd;stroke:#000000;stroke-linecap:butt;stroke-linejoin:miter;stroke-miterlimit:10.43299961;stroke-dasharray:none;stroke-dashoffset:0;stroke-opacity:1"
       ns0:preamble="/home/sharad/workspace/research/talks/thesis-proposal/tikz.tex"
       ns0:text="\\includegraphics{/home/sharad/workspace/research/talks/thesis-proposal/tikz/lds}"
       word-spacing="normal"
       letter-spacing="normal"
       font-size-adjust="none"
       font-stretch="normal"
       font-weight="normal"
       font-variant="normal"
       font-style="normal"
       stroke-miterlimit="10.433"
       xml:space="preserve"
       transform="matrix(1,0,0,-1,-223.43075,1454.543)"
       id="g4436"><path
         id="path4438"
         d="m 247.27,428.37 -0.01,0.51 -0.04,0.51 -0.06,0.5 -0.09,0.49 -0.11,0.48 -0.13,0.47 -0.16,0.47 -0.18,0.45 -0.2,0.44 -0.22,0.43 -0.24,0.42 -0.26,0.4 -0.28,0.39 -0.29,0.38 -0.32,0.36 -0.33,0.34 -0.34,0.33 -0.36,0.32 -0.38,0.29 -0.39,0.28 -0.4,0.26 -0.42,0.24 -0.43,0.22 -0.44,0.2 -0.45,0.18 -0.47,0.16 -0.47,0.13 -0.48,0.11 -0.49,0.09 -0.5,0.06 -0.51,0.04 -0.51,0.01 c -5.5,0 -9.96,-4.46 -9.96,-9.96 0,-5.5 4.46,-9.96 9.96,-9.96 5.5,0 9.96,4.46 9.96,9.96 z"
         inkscape:connector-curvature="0"
         style="fill:#dfdfdf;fill-rule:nonzero;stroke:#dfdfdf;stroke-width:0" /><path
         id="path4440"
         d="m 247.27,428.37 -0.01,0.51 -0.04,0.51 -0.06,0.5 -0.09,0.49 -0.11,0.48 -0.13,0.47 -0.16,0.47 -0.18,0.45 -0.2,0.44 -0.22,0.43 -0.24,0.42 -0.26,0.4 -0.28,0.39 -0.29,0.38 -0.32,0.36 -0.33,0.34 -0.34,0.33 -0.36,0.32 -0.38,0.29 -0.39,0.28 -0.4,0.26 -0.42,0.24 -0.43,0.22 -0.44,0.2 -0.45,0.18 -0.47,0.16 -0.47,0.13 -0.48,0.11 -0.49,0.09 -0.5,0.06 -0.51,0.04 -0.51,0.01 c -5.5,0 -9.96,-4.46 -9.96,-9.96 0,-5.5 4.46,-9.96 9.96,-9.96 5.5,0 9.96,4.46 9.96,9.96 z"
         inkscape:connector-curvature="0"
         style="stroke-width:0.3985" /><path
         id="path4442"
         d="m 236.04,429.98 0,0.02 0.01,0.03 0.01,0.03 0.01,0.04 0.01,0.04 0.01,0.04 0.01,0.04 0.02,0.05 0.01,0.05 0.02,0.04 0.02,0.05 0.02,0.05 0.02,0.05 0.03,0.05 0.02,0.05 0.03,0.05 0.03,0.05 0.03,0.05 0.04,0.04 0.03,0.05 0.04,0.04 0.04,0.04 0.04,0.04 0.04,0.03 0.05,0.04 0.05,0.03 0.02,0.01 0.03,0.01 0.03,0.01 0.02,0.01 0.03,0.01 0.03,0.01 0.03,0.01 0.03,0 0.03,0.01 0.03,0 0.03,0 0.03,0 c 0.05,0 0.29,0 0.5,-0.13 -0.28,-0.05 -0.48,-0.3 -0.48,-0.54 0,-0.15 0.11,-0.34 0.38,-0.34 0.22,0 0.54,0.18 0.54,0.57 0,0.52 -0.59,0.66 -0.93,0.66 -0.57,0 -0.92,-0.53 -1.04,-0.76 -0.25,0.66 -0.79,0.76 -1.08,0.76 -1.03,0 -1.6,-1.28 -1.6,-1.53 0,-0.1 0.1,-0.1 0.12,-0.1 0.08,0 0.11,0.02 0.13,0.11 0.34,1.05 0.99,1.3 1.33,1.3 0.19,0 0.54,-0.09 0.54,-0.67 0,-0.3 -0.17,-0.97 -0.54,-2.37 -0.16,-0.61 -0.51,-1.03 -0.94,-1.03 -0.06,0 -0.29,0 -0.5,0.13 0.25,0.05 0.47,0.26 0.47,0.53 0,0.27 -0.22,0.35 -0.37,0.35 -0.3,0 -0.55,-0.26 -0.55,-0.57 0,-0.46 0.5,-0.66 0.93,-0.66 0.66,0 1.02,0.69 1.05,0.75 0.12,-0.36 0.48,-0.75 1.08,-0.75 1.02,0 1.59,1.28 1.59,1.53 0,0.1 -0.09,0.1 -0.12,0.1 -0.09,0 -0.11,-0.04 -0.13,-0.11 -0.33,-1.06 -1,-1.3 -1.32,-1.3 -0.39,0 -0.55,0.32 -0.55,0.65 0,0.22 0.06,0.44 0.17,0.88 z"
         inkscape:connector-curvature="0"
         style="fill:#000000;stroke-width:0" /><path
         id="path4444"
         d="m 240.13,428.22 0.71,0 c 0.13,0 0.22,0 0.22,0.16 0,0.09 -0.09,0.09 -0.21,0.09 l -0.66,0 0.26,1.04 c 0,0.03 0.02,0.07 0.02,0.09 0,0.13 -0.1,0.23 -0.24,0.23 -0.17,0 -0.28,-0.12 -0.33,-0.3 -0.05,-0.18 0.04,0.16 -0.26,-1.06 l -0.71,0 c -0.14,0 -0.23,0 -0.23,-0.15 0,-0.1 0.09,-0.1 0.21,-0.1 l 0.66,0 -0.41,-1.64 c -0.04,-0.18 -0.1,-0.43 -0.1,-0.52 0,-0.41 0.35,-0.66 0.74,-0.66 0.78,0 1.22,0.97 1.22,1.06 0,0.09 -0.09,0.09 -0.11,0.09 -0.09,0 -0.09,-0.01 -0.15,-0.13 -0.19,-0.44 -0.55,-0.83 -0.93,-0.83 -0.15,0 -0.25,0.09 -0.25,0.34 0,0.07 0.03,0.22 0.04,0.29 z"
         inkscape:connector-curvature="0"
         style="fill:#000000;stroke-width:0" /><path
         id="path4446"
         d="m 298.91,428.37 -0.02,0.59 -0.04,0.58 -0.07,0.57 -0.1,0.57 -0.13,0.55 -0.16,0.54 -0.18,0.54 -0.2,0.51 -0.23,0.51 -0.25,0.5 -0.28,0.47 -0.3,0.47 -0.31,0.45 -0.34,0.43 -0.36,0.42 -0.38,0.39 -0.4,0.38 -0.42,0.36 -0.43,0.34 -0.45,0.32 -0.46,0.3 -0.48,0.27 -0.49,0.26 -0.51,0.23 -0.52,0.2 -0.53,0.18 -0.55,0.15 -0.55,0.13 -0.56,0.1 -0.58,0.08 -0.58,0.04 -0.59,0.02 c -6.32,0 -11.44,-5.13 -11.44,-11.45 0,-6.32 5.12,-11.45 11.44,-11.45 6.33,0 11.45,5.13 11.45,11.45 z"
         inkscape:connector-curvature="0"
         style="fill:#dfdfdf;fill-rule:nonzero;stroke:#dfdfdf;stroke-width:0" /><path
         id="path4448"
         d="m 298.91,428.37 -0.02,0.59 -0.04,0.58 -0.07,0.57 -0.1,0.57 -0.13,0.55 -0.16,0.54 -0.18,0.54 -0.2,0.51 -0.23,0.51 -0.25,0.5 -0.28,0.47 -0.3,0.47 -0.31,0.45 -0.34,0.43 -0.36,0.42 -0.38,0.39 -0.4,0.38 -0.42,0.36 -0.43,0.34 -0.45,0.32 -0.46,0.3 -0.48,0.27 -0.49,0.26 -0.51,0.23 -0.52,0.2 -0.53,0.18 -0.55,0.15 -0.55,0.13 -0.56,0.1 -0.58,0.08 -0.58,0.04 -0.59,0.02 c -6.32,0 -11.44,-5.13 -11.44,-11.45 0,-6.32 5.12,-11.45 11.44,-11.45 6.33,0 11.45,5.13 11.45,11.45 z"
         inkscape:connector-curvature="0"
         style="stroke-width:0.3985" /><path
         id="path4450"
         d="m 281.15,430.4 0.01,0.02 0,0.03 0.01,0.03 0.01,0.04 0.01,0.04 0.01,0.04 0.02,0.04 0.01,0.05 0.02,0.05 0.01,0.04 0.02,0.05 0.02,0.05 0.03,0.05 0.02,0.05 0.03,0.05 0.02,0.05 0.03,0.05 0.03,0.05 0.04,0.04 0.03,0.05 0.04,0.04 0.04,0.04 0.04,0.04 0.05,0.03 0.04,0.04 0.05,0.03 0.03,0.01 0.02,0.01 0.03,0.01 0.03,0.01 0.02,0.01 0.03,0.01 0.03,0.01 0.03,0 0.03,0.01 0.03,0 0.03,0 0.04,0 c 0.05,0 0.28,0 0.5,-0.13 -0.28,-0.05 -0.48,-0.3 -0.48,-0.54 0,-0.16 0.11,-0.34 0.38,-0.34 0.21,0 0.53,0.17 0.53,0.57 0,0.52 -0.59,0.66 -0.92,0.66 -0.58,0 -0.93,-0.53 -1.05,-0.76 -0.25,0.66 -0.79,0.76 -1.08,0.76 -1.03,0 -1.6,-1.28 -1.6,-1.53 0,-0.1 0.1,-0.1 0.12,-0.1 0.08,0 0.11,0.02 0.13,0.11 0.34,1.05 1,1.3 1.33,1.3 0.19,0 0.54,-0.09 0.54,-0.67 0,-0.3 -0.17,-0.97 -0.54,-2.37 -0.15,-0.61 -0.5,-1.03 -0.94,-1.03 -0.06,0 -0.29,0 -0.5,0.13 0.25,0.05 0.47,0.26 0.47,0.54 0,0.26 -0.22,0.34 -0.37,0.34 -0.3,0 -0.55,-0.26 -0.55,-0.58 0,-0.45 0.5,-0.65 0.94,-0.65 0.66,0 1.01,0.7 1.04,0.76 0.12,-0.37 0.48,-0.76 1.08,-0.76 1.03,0 1.59,1.28 1.59,1.53 0,0.1 -0.09,0.1 -0.12,0.1 -0.09,0 -0.1,-0.04 -0.12,-0.11 -0.33,-1.06 -1.01,-1.3 -1.33,-1.3 -0.39,0 -0.55,0.32 -0.55,0.65 0,0.22 0.06,0.44 0.17,0.88 z"
         inkscape:connector-curvature="0"
         style="fill:#000000;stroke-width:0" /><path
         id="path4452"
         d="m 285.24,428.64 0.71,0 c 0.13,0 0.22,0 0.22,0.16 0,0.09 -0.09,0.09 -0.21,0.09 l -0.66,0 0.26,1.03 c 0.01,0.04 0.02,0.07 0.02,0.1 0,0.13 -0.1,0.23 -0.24,0.23 -0.17,0 -0.28,-0.12 -0.32,-0.3 -0.05,-0.18 0.04,0.16 -0.27,-1.06 l -0.71,0 c -0.13,0 -0.22,0 -0.22,-0.15 0,-0.1 0.08,-0.1 0.2,-0.1 l 0.67,0 -0.41,-1.64 c -0.05,-0.18 -0.11,-0.43 -0.11,-0.52 0,-0.41 0.35,-0.66 0.75,-0.66 0.77,0 1.21,0.97 1.21,1.07 0,0.09 -0.09,0.09 -0.11,0.09 -0.08,0 -0.09,-0.02 -0.15,-0.14 -0.19,-0.44 -0.55,-0.83 -0.93,-0.83 -0.15,0 -0.25,0.09 -0.25,0.35 0,0.06 0.03,0.21 0.05,0.28 z"
         inkscape:connector-curvature="0"
         style="fill:#000000;stroke-width:0" /><path
         id="path4454"
         d="m 289.76,427.46 2.13,0 c 0.09,0 0.26,0 0.26,0.17 0,0.17 -0.16,0.17 -0.26,0.17 l -2.13,0 0,2.15 c 0,0.09 0,0.25 -0.17,0.25 -0.17,0 -0.17,-0.16 -0.17,-0.25 l 0,-2.15 -2.14,0 c -0.09,0 -0.26,0 -0.26,-0.16 0,-0.18 0.16,-0.18 0.26,-0.18 l 2.14,0 0,-2.14 c 0,-0.09 0,-0.25 0.16,-0.25 0.18,0 0.18,0.16 0.18,0.25 z"
         inkscape:connector-curvature="0"
         style="fill:#000000;stroke-width:0" /><path
         id="path4456"
         d="m 294.98,430.32 0,0.01 0,0.01 0,0.01 0,0.01 0,0 0,0.01 0,0.01 0,0.01 0,0 0,0.01 0,0 0,0.01 0,0.01 0,0 -0.01,0.01 0,0 0,0.01 0,0 0,0.01 0,0.01 -0.01,0.01 0,0 0,0.01 -0.01,0.01 0,0 -0.01,0.01 0,0 -0.01,0 -0.01,0.01 -0.01,0 -0.01,0 0,0 -0.01,0 -0.01,0 0,0 -0.01,0.01 0,0 -0.01,0 0,0 -0.01,0 -0.01,0 -0.01,0 0,0 -0.01,0 -0.01,0 -0.01,0 0,0 -0.01,0 -0.01,0 -0.01,0 c -0.45,-0.44 -1.08,-0.45 -1.37,-0.45 l 0,-0.25 c 0.17,0 0.63,0 1.01,0.2 l 0,-3.56 c 0,-0.23 0,-0.32 -0.69,-0.32 l -0.27,0 0,-0.25 c 0.13,0 0.98,0.03 1.24,0.03 0.22,0 1.1,-0.03 1.25,-0.03 l 0,0.25 -0.26,0 c -0.7,0 -0.7,0.09 -0.7,0.32 z"
         inkscape:connector-curvature="0"
         style="fill:#000000;stroke-width:0" /><path
         id="path4458"
         d="m 247.27,477.04 -0.01,0.51 -0.04,0.51 -0.06,0.5 -0.09,0.49 -0.11,0.48 -0.13,0.47 -0.16,0.47 -0.18,0.45 -0.2,0.44 -0.22,0.43 -0.24,0.42 -0.26,0.4 -0.28,0.39 -0.29,0.38 -0.32,0.36 -0.33,0.35 -0.34,0.33 -0.36,0.31 -0.38,0.29 -0.39,0.28 -0.4,0.26 -0.42,0.24 -0.43,0.22 -0.44,0.2 -0.45,0.18 -0.47,0.16 -0.47,0.13 -0.48,0.11 -0.49,0.09 -0.5,0.06 -0.51,0.04 -0.51,0.01 c -5.5,0 -9.96,-4.46 -9.96,-9.96 0,-5.5 4.46,-9.96 9.96,-9.96 5.5,0 9.96,4.46 9.96,9.96 z"
         inkscape:connector-curvature="0"
         style="fill:#ffffff;fill-rule:nonzero;stroke:#ffffff;stroke-width:0" /><path
         id="path4460"
         d="m 247.27,477.04 -0.01,0.51 -0.04,0.51 -0.06,0.5 -0.09,0.49 -0.11,0.48 -0.13,0.47 -0.16,0.47 -0.18,0.45 -0.2,0.44 -0.22,0.43 -0.24,0.42 -0.26,0.4 -0.28,0.39 -0.29,0.38 -0.32,0.36 -0.33,0.35 -0.34,0.33 -0.36,0.31 -0.38,0.29 -0.39,0.28 -0.4,0.26 -0.42,0.24 -0.43,0.22 -0.44,0.2 -0.45,0.18 -0.47,0.16 -0.47,0.13 -0.48,0.11 -0.49,0.09 -0.5,0.06 -0.51,0.04 -0.51,0.01 c -5.5,0 -9.96,-4.46 -9.96,-9.96 0,-5.5 4.46,-9.96 9.96,-9.96 5.5,0 9.96,4.46 9.96,9.96 z"
         inkscape:connector-curvature="0"
         style="stroke-width:0.3985" /><path
         id="path4462"
         d="m 235.36,474.79 -0.04,-0.07 -0.04,-0.05 -0.04,-0.06 -0.03,-0.05 -0.04,-0.05 -0.04,-0.05 -0.03,-0.04 -0.04,-0.04 -0.04,-0.04 -0.04,-0.04 -0.03,-0.03 -0.04,-0.03 -0.04,-0.03 -0.04,-0.03 -0.03,-0.03 -0.04,-0.02 -0.04,-0.02 -0.04,-0.02 -0.04,-0.02 -0.03,-0.02 -0.04,-0.01 -0.04,-0.02 -0.04,-0.01 -0.04,-0.01 -0.04,-0.01 -0.04,-0.01 -0.04,-0.01 -0.04,0 -0.08,-0.01 -0.08,-0.01 c -0.12,-0.01 -0.21,-0.01 -0.21,-0.2 0,-0.06 0.05,-0.11 0.13,-0.11 0.27,0 0.58,0.03 0.86,0.03 0.33,0 0.68,-0.03 0.99,-0.03 0.06,0 0.19,0 0.19,0.19 0,0.11 -0.09,0.12 -0.16,0.12 -0.22,0.02 -0.47,0.1 -0.47,0.35 0,0.12 0.06,0.23 0.14,0.37 l 0.76,1.27 2.5,0 -0.03,0.31 -2.28,0 1.96,3.29 0.32,-3.29 0.03,-0.31 c 0.02,-0.21 0.16,-1.56 0.16,-1.66 0,-0.3 -0.52,-0.33 -0.72,-0.33 -0.14,0 -0.23,0 -0.23,-0.2 0,-0.11 0.11,-0.11 0.14,-0.11 0.4,0 0.83,0.03 1.24,0.03 0.25,0 0.88,-0.03 1.13,-0.03 0.06,0 0.18,0 0.18,0.2 0,0.11 -0.1,0.11 -0.23,0.11 -0.62,0 -0.62,0.07 -0.65,0.36 l -0.61,6.22 c -0.02,0.2 -0.02,0.24 -0.19,0.24 -0.16,0 -0.2,-0.07 -0.26,-0.17 z"
         inkscape:connector-curvature="0"
         style="fill:#000000;stroke-width:0" /><line
         id="line4464"
         y2="437.04999"
         x2="278.51999"
         y1="469.95999"
         x1="244.60001"
         style="stroke-width:0.3985" /><polygon
         id="polygon4466"
         points="273.16,438.99 276.42,442.35 278.74,436.84 "
         style="fill:#000000;fill-rule:nonzero;stroke-width:0" /><polygon
         id="polygon4468"
         points="273.16,438.99 276.42,442.35 278.74,436.84 "
         style="stroke-width:0.39859" /><line
         id="line4470"
         y2="428.37"
         x2="275.01001"
         y1="428.37"
         x1="247.47"
         style="stroke-width:0.3985" /><polygon
         id="polygon4472"
         points="269.81,426.03 269.81,430.71 275.31,428.37 "
         style="fill:#000000;fill-rule:nonzero;stroke-width:0" /><polygon
         id="polygon4474"
         points="269.81,426.03 269.81,430.71 275.31,428.37 "
         style="stroke-width:0.3985" /><path
         id="path4476"
         d="m 297.85,410.48 0.01,0.03 0.01,0.04 0.01,0.03 0.01,0.03 0.01,0.03 0.02,0.03 0.01,0.03 0.01,0.03 0.02,0.03 0.01,0.02 0.02,0.03 0.02,0.02 0.02,0.02 0.02,0.03 0.02,0.02 0.03,0.02 0.02,0.01 0.03,0.02 0.02,0.02 0.03,0.01 0.03,0.02 0.04,0.01 0.03,0.01 0.04,0.01 0.03,0.01 0.04,0.01 0.05,0.01 0.04,0 0.05,0.01 0.04,0 0.05,0.01 0.06,0 c 0.08,0 0.14,0.05 0.14,0.15 0,0.05 -0.04,0.11 -0.12,0.11 -0.05,0 -0.21,-0.02 -0.8,-0.02 -0.63,0 -0.74,0.02 -0.81,0.02 -0.13,0 -0.15,-0.08 -0.15,-0.15 0,-0.1 0.1,-0.11 0.18,-0.11 0.48,-0.01 0.48,-0.23 0.48,-0.34 0,-0.04 0,-0.08 -0.03,-0.21 l -0.88,-3.49 -1.92,4.16 c -0.06,0.14 -0.08,0.14 -0.27,0.14 l -1.04,0 c -0.14,0 -0.24,0 -0.24,-0.15 0,-0.11 0.09,-0.11 0.26,-0.11 0.06,0 0.3,0 0.49,-0.05 l -1.07,-4.28 c -0.1,-0.4 -0.3,-0.57 -0.84,-0.59 -0.05,0 -0.14,-0.01 -0.14,-0.15 0,-0.05 0.04,-0.11 0.12,-0.11 0.03,0 0.21,0.02 0.79,0.02 0.63,0 0.75,-0.02 0.82,-0.02 0.03,0 0.15,0 0.15,0.15 0,0.1 -0.09,0.11 -0.14,0.11 -0.29,0.01 -0.53,0.06 -0.53,0.34 0,0.04 0.02,0.15 0.02,0.16 l 1.05,4.16 0.01,0 2.21,-4.78 c 0.06,-0.12 0.07,-0.14 0.15,-0.14 0.11,0 0.12,0.03 0.15,0.17 z"
         inkscape:connector-curvature="0"
         style="fill:#000000;stroke-width:0" /><path
         id="path4478"
         d="m 298.64,443.54 -71.03,0 c -2.2,0 -3.98,-1.79 -3.98,-3.99 l 0,-33.19 c 0,-2.2 1.78,-3.98 3.98,-3.98 l 71.03,0 c 2.2,0 3.99,1.78 3.99,3.98 l 0,33.19 c 0,2.2 -1.79,3.99 -3.99,3.99 z"
         inkscape:connector-curvature="0"
         style="stroke-width:0.3985" /></g>    <g
       id="g4678"
       transform="matrix(1,0,0,-1,-104.59843,1453.3892)"
       xml:space="preserve"
       stroke-miterlimit="10.433"
       font-style="normal"
       font-variant="normal"
       font-weight="normal"
       font-stretch="normal"
       font-size-adjust="none"
       letter-spacing="normal"
       word-spacing="normal"
       ns0:text="\\includegraphics{/home/sharad/workspace/research/talks/thesis-proposal/tikz/tmc}"
       ns0:preamble="/home/sharad/workspace/research/talks/thesis-proposal/tikz.tex"
       style="font-style:normal;font-variant:normal;font-weight:normal;font-stretch:normal;letter-spacing:normal;word-spacing:normal;text-anchor:start;fill:none;fill-opacity:1;fill-rule:evenodd;stroke:#000000;stroke-linecap:butt;stroke-linejoin:miter;stroke-miterlimit:10.43299961;stroke-dasharray:none;stroke-dashoffset:0;stroke-opacity:1"><path
         style="fill:#dfdfdf;fill-rule:nonzero;stroke:#dfdfdf;stroke-width:0"
         inkscape:connector-curvature="0"
         d="m 243.55,428.37 -0.01,0.51 -0.04,0.51 -0.06,0.5 -0.09,0.49 -0.11,0.48 -0.13,0.47 -0.16,0.47 -0.18,0.45 -0.2,0.44 -0.22,0.43 -0.24,0.42 -0.26,0.4 -0.28,0.39 -0.29,0.38 -0.32,0.36 -0.33,0.34 -0.34,0.33 -0.36,0.32 -0.38,0.29 -0.39,0.28 -0.4,0.26 -0.42,0.24 -0.43,0.22 -0.44,0.2 -0.45,0.18 -0.47,0.16 -0.47,0.13 -0.48,0.11 -0.49,0.09 -0.5,0.06 -0.51,0.04 -0.51,0.01 c -5.5,0 -9.96,-4.46 -9.96,-9.96 0,-5.5 4.46,-9.96 9.96,-9.96 5.5,0 9.96,4.46 9.96,9.96 z"
         id="path4680" /><path
         style="stroke-width:0.3985"
         inkscape:connector-curvature="0"
         d="m 243.55,428.37 -0.01,0.51 -0.04,0.51 -0.06,0.5 -0.09,0.49 -0.11,0.48 -0.13,0.47 -0.16,0.47 -0.18,0.45 -0.2,0.44 -0.22,0.43 -0.24,0.42 -0.26,0.4 -0.28,0.39 -0.29,0.38 -0.32,0.36 -0.33,0.34 -0.34,0.33 -0.36,0.32 -0.38,0.29 -0.39,0.28 -0.4,0.26 -0.42,0.24 -0.43,0.22 -0.44,0.2 -0.45,0.18 -0.47,0.16 -0.47,0.13 -0.48,0.11 -0.49,0.09 -0.5,0.06 -0.51,0.04 -0.51,0.01 c -5.5,0 -9.96,-4.46 -9.96,-9.96 0,-5.5 4.46,-9.96 9.96,-9.96 5.5,0 9.96,4.46 9.96,9.96 z"
         id="path4682" /><path
         style="fill:#000000;stroke-width:0"
         inkscape:connector-curvature="0"
         d="m 235.65,430.15 -0.03,-0.01 -0.04,-0.01 -0.03,-0.01 -0.03,-0.02 -0.02,-0.01 -0.03,-0.02 -0.03,-0.01 -0.03,-0.02 -0.02,-0.02 -0.02,-0.02 -0.03,-0.02 -0.02,-0.02 -0.02,-0.03 -0.02,-0.02 -0.02,-0.02 -0.01,-0.03 -0.02,-0.02 -0.01,-0.02 -0.02,-0.03 -0.01,-0.02 -0.01,-0.03 -0.02,-0.03 -0.01,-0.02 0,-0.03 -0.01,-0.02 -0.01,-0.03 0,-0.02 -0.01,-0.03 0,-0.02 -0.01,-0.03 0,-0.02 0,-0.03 c 0,-0.21 0.17,-0.45 0.5,-0.45 0.35,0 0.72,0.29 0.72,0.77 0,0.53 -0.53,0.88 -1.14,0.88 -0.57,0 -0.93,-0.43 -1.06,-0.61 -0.25,0.42 -0.81,0.61 -1.38,0.61 -1.25,0 -1.93,-1.23 -1.93,-1.55 0,-0.14 0.15,-0.14 0.24,-0.14 0.12,0 0.19,0 0.23,0.13 0.28,0.9 1,1.2 1.41,1.2 0.38,0 0.56,-0.18 0.56,-0.5 0,-0.19 -0.14,-0.73 -0.23,-1.09 l -0.34,-1.37 c -0.15,-0.61 -0.51,-0.9 -0.85,-0.9 -0.05,0 -0.27,0 -0.47,0.15 0.36,0.1 0.53,0.43 0.53,0.68 0,0.22 -0.16,0.46 -0.49,0.46 -0.35,0 -0.72,-0.29 -0.72,-0.78 0,-0.52 0.53,-0.87 1.13,-0.87 0.57,0 0.94,0.43 1.07,0.61 0.25,-0.42 0.81,-0.61 1.37,-0.61 1.26,0 1.94,1.22 1.94,1.55 0,0.14 -0.15,0.14 -0.24,0.14 -0.12,0 -0.19,0 -0.23,-0.13 -0.29,-0.91 -1.01,-1.2 -1.41,-1.2 -0.38,0 -0.56,0.18 -0.56,0.49 0,0.21 0.13,0.74 0.22,1.11 0.07,0.26 0.29,1.2 0.34,1.36 0.16,0.59 0.5,0.9 0.85,0.9 0.05,0 0.28,0 0.48,-0.15 z"
         id="path4684" /><path
         style="fill:#ffffff;fill-rule:nonzero;stroke:#ffffff;stroke-width:0"
         inkscape:connector-curvature="0"
         d="m 243.55,477.04 -0.01,0.51 -0.04,0.51 -0.06,0.5 -0.09,0.49 -0.11,0.48 -0.13,0.47 -0.16,0.47 -0.18,0.45 -0.2,0.44 -0.22,0.43 -0.24,0.42 -0.26,0.4 -0.28,0.39 -0.29,0.38 -0.32,0.36 -0.33,0.35 -0.34,0.33 -0.36,0.31 -0.38,0.29 -0.39,0.28 -0.4,0.26 -0.42,0.24 -0.43,0.22 -0.44,0.2 -0.45,0.18 -0.47,0.16 -0.47,0.13 -0.48,0.11 -0.49,0.09 -0.5,0.06 -0.51,0.04 -0.51,0.01 c -5.5,0 -9.96,-4.46 -9.96,-9.96 0,-5.5 4.46,-9.96 9.96,-9.96 5.5,0 9.96,4.46 9.96,9.96 z"
         id="path4686" /><path
         style="stroke-width:0.3985"
         inkscape:connector-curvature="0"
         d="m 243.55,477.04 -0.01,0.51 -0.04,0.51 -0.06,0.5 -0.09,0.49 -0.11,0.48 -0.13,0.47 -0.16,0.47 -0.18,0.45 -0.2,0.44 -0.22,0.43 -0.24,0.42 -0.26,0.4 -0.28,0.39 -0.29,0.38 -0.32,0.36 -0.33,0.35 -0.34,0.33 -0.36,0.31 -0.38,0.29 -0.39,0.28 -0.4,0.26 -0.42,0.24 -0.43,0.22 -0.44,0.2 -0.45,0.18 -0.47,0.16 -0.47,0.13 -0.48,0.11 -0.49,0.09 -0.5,0.06 -0.51,0.04 -0.51,0.01 c -5.5,0 -9.96,-4.46 -9.96,-9.96 0,-5.5 4.46,-9.96 9.96,-9.96 5.5,0 9.96,4.46 9.96,9.96 z"
         id="path4688" /><path
         style="fill:#000000;stroke-width:0"
         inkscape:connector-curvature="0"
         d="m 233.78,478.62 1.67,0 c 0.13,0 0.49,0 0.49,0.33 0,0.24 -0.21,0.24 -0.4,0.24 l -2.79,0 c -0.2,0 -0.59,0 -1.02,-0.46 -0.33,-0.36 -0.61,-0.84 -0.61,-0.9 0,-0.01 0,-0.1 0.12,-0.1 0.08,0 0.1,0.04 0.16,0.12 0.49,0.77 1.05,0.77 1.26,0.77 l 0.83,0 -0.98,-3.2 c -0.04,-0.12 -0.1,-0.33 -0.1,-0.37 0,-0.11 0.07,-0.27 0.29,-0.27 0.33,0 0.38,0.28 0.41,0.43 z"
         id="path4690" /><line
         style="stroke-width:0.3985"
         x1="233.59"
         y1="466.88"
         x2="233.59"
         y2="439.34"
         id="line4692" /><polygon
         style="fill:#000000;fill-rule:nonzero;stroke-width:0"
         points="231.25,444.54 235.93,444.54 233.59,439.04 "
         id="polygon4694" /><polygon
         style="stroke-width:0.3985"
         points="231.25,444.54 235.93,444.54 233.59,439.04 "
         id="polygon4696" /></g>    <g
       style="font-style:normal;font-variant:normal;font-weight:normal;font-stretch:normal;letter-spacing:normal;word-spacing:normal;text-anchor:start;fill:none;fill-opacity:1;fill-rule:evenodd;stroke:#000000;stroke-linecap:butt;stroke-linejoin:miter;stroke-miterlimit:10.43299961;stroke-dasharray:none;stroke-dashoffset:0;stroke-opacity:1"
       ns0:preamble="/home/sharad/workspace/research/talks/thesis-proposal/tikz.tex"
       ns0:text="\\includegraphics{/home/sharad/workspace/research/talks/thesis-proposal/tikz/vae}"
       word-spacing="normal"
       letter-spacing="normal"
       font-size-adjust="none"
       font-stretch="normal"
       font-weight="normal"
       font-variant="normal"
       font-style="normal"
       stroke-miterlimit="10.433"
       xml:space="preserve"
       transform="matrix(1,0,0,-1,113.90248,1376.7778)"
       id="g6253"
       inkscape:export-xdpi="360"
       inkscape:export-ydpi="360"><path
         id="path6255"
         d="m 247.27,424.65 -0.01,0.51 -0.04,0.51 -0.06,0.5 -0.09,0.49 -0.11,0.48 -0.13,0.47 -0.16,0.47 -0.18,0.45 -0.2,0.44 -0.22,0.43 -0.24,0.42 -0.26,0.4 -0.28,0.39 -0.29,0.38 -0.32,0.36 -0.33,0.34 -0.34,0.33 -0.36,0.32 -0.38,0.29 -0.39,0.28 -0.4,0.26 -0.42,0.24 -0.43,0.22 -0.44,0.2 -0.45,0.18 -0.47,0.16 -0.47,0.13 -0.48,0.11 -0.49,0.09 -0.5,0.06 -0.51,0.04 -0.51,0.01 c -5.5,0 -9.96,-4.46 -9.96,-9.96 0,-5.5 4.46,-9.96 9.96,-9.96 5.5,0 9.96,4.46 9.96,9.96 z"
         inkscape:connector-curvature="0"
         style="fill:#dfdfdf;fill-rule:nonzero;stroke:#dfdfdf;stroke-width:0" /><path
         id="path6257"
         d="m 247.27,424.65 -0.01,0.51 -0.04,0.51 -0.06,0.5 -0.09,0.49 -0.11,0.48 -0.13,0.47 -0.16,0.47 -0.18,0.45 -0.2,0.44 -0.22,0.43 -0.24,0.42 -0.26,0.4 -0.28,0.39 -0.29,0.38 -0.32,0.36 -0.33,0.34 -0.34,0.33 -0.36,0.32 -0.38,0.29 -0.39,0.28 -0.4,0.26 -0.42,0.24 -0.43,0.22 -0.44,0.2 -0.45,0.18 -0.47,0.16 -0.47,0.13 -0.48,0.11 -0.49,0.09 -0.5,0.06 -0.51,0.04 -0.51,0.01 c -5.5,0 -9.96,-4.46 -9.96,-9.96 0,-5.5 4.46,-9.96 9.96,-9.96 5.5,0 9.96,4.46 9.96,9.96 z"
         inkscape:connector-curvature="0"
         style="stroke-width:0.3985" /><path
         id="path6259"
         d="m 238.05,427.27 0.01,0 0,0.01 0,0.01 0,0 0,0.01 0.01,0.02 0,0.01 0,0.01 0.01,0 0,0.01 0,0.01 0,0.01 0,0.01 0,0 0.01,0.01 0,0.01 0,0 0,0.01 0,0.01 0,0 0,0.01 0,0.01 0,0.01 0,0.01 0,0.01 0,0.01 0,0.01 0,0 0,0.01 c 0,0.18 -0.13,0.27 -0.29,0.27 -0.09,0 -0.25,-0.06 -0.34,-0.21 -0.02,-0.05 -0.1,-0.36 -0.14,-0.54 -0.07,-0.26 -0.14,-0.53 -0.2,-0.8 l -0.45,-1.79 c -0.04,-0.15 -0.47,-0.85 -1.13,-0.85 -0.5,0 -0.61,0.44 -0.61,0.81 0,0.46 0.17,1.07 0.5,1.95 0.16,0.41 0.2,0.52 0.2,0.72 0,0.45 -0.31,0.82 -0.81,0.82 -0.95,0 -1.32,-1.45 -1.32,-1.54 0,-0.1 0.1,-0.1 0.12,-0.1 0.1,0 0.11,0.02 0.16,0.18 0.27,0.94 0.67,1.24 1.01,1.24 0.08,0 0.25,0 0.25,-0.32 0,-0.25 -0.1,-0.51 -0.17,-0.7 -0.4,-1.06 -0.58,-1.62 -0.58,-2.09 0,-0.89 0.63,-1.19 1.21,-1.19 0.39,0 0.73,0.17 1.01,0.45 -0.13,-0.52 -0.25,-1.01 -0.65,-1.53 -0.26,-0.34 -0.63,-0.63 -1.09,-0.63 -0.14,0 -0.59,0.03 -0.76,0.42 0.16,0 0.29,0 0.43,0.12 0.1,0.09 0.2,0.22 0.2,0.41 0,0.3 -0.27,0.34 -0.37,0.34 -0.23,0 -0.56,-0.15 -0.56,-0.64 0,-0.5 0.44,-0.87 1.06,-0.87 1.02,0 2.05,0.91 2.33,2.03 z"
         inkscape:connector-curvature="0"
         style="fill:#000000;stroke-width:0" /><path
         id="path6261"
         d="m 240.36,426.33 0,0.01 0,0.01 0,0.01 0,0.01 0,0.02 -0.01,0.01 0,0.01 0,0.01 -0.01,0.01 0,0.01 -0.01,0.01 0,0.01 -0.01,0.01 -0.01,0.02 -0.01,0.01 0,0.01 -0.01,0.01 -0.01,0 -0.01,0.01 -0.01,0.01 -0.01,0.01 -0.02,0.01 -0.01,0 -0.01,0.01 -0.01,0.01 -0.02,0 -0.01,0.01 -0.02,0 -0.02,0 -0.01,0 -0.02,0.01 -0.02,0 c -0.18,0 -0.39,-0.18 -0.39,-0.39 0,-0.12 0.09,-0.26 0.28,-0.26 0.2,0 0.39,0.19 0.39,0.38 z"
         inkscape:connector-curvature="0"
         style="fill:#000000;stroke-width:0" /><path
         id="path6263"
         d="m 238.94,422.79 -0.01,-0.04 -0.01,-0.03 -0.01,-0.02 0,-0.01 -0.01,-0.02 0,-0.02 -0.01,-0.02 0,-0.01 0,-0.02 -0.01,-0.02 0,-0.02 0,-0.01 0,-0.01 0,-0.01 0,-0.01 0,-0.01 0,-0.01 c 0,-0.33 0.28,-0.6 0.66,-0.6 0.7,0 1,0.96 1,1.07 0,0.09 -0.09,0.09 -0.11,0.09 -0.1,0 -0.1,-0.04 -0.13,-0.12 -0.16,-0.56 -0.47,-0.84 -0.74,-0.84 -0.14,0 -0.17,0.09 -0.17,0.24 0,0.16 0.04,0.3 0.11,0.45 0.07,0.19 0.14,0.38 0.22,0.56 0.06,0.16 0.31,0.8 0.34,0.88 0.02,0.07 0.04,0.16 0.04,0.22 0,0.33 -0.28,0.6 -0.66,0.6 -0.69,0 -1.01,-0.95 -1.01,-1.07 0,-0.09 0.1,-0.09 0.12,-0.09 0.1,0 0.1,0.03 0.12,0.11 0.19,0.6 0.49,0.85 0.75,0.85 0.11,0 0.18,-0.05 0.18,-0.24 0,-0.16 -0.05,-0.27 -0.22,-0.7 z"
         inkscape:connector-curvature="0"
         style="fill:#000000;stroke-width:0" /><path
         id="path6265"
         d="m 247.27,473.32 -0.01,0.51 -0.04,0.51 -0.06,0.5 -0.09,0.49 -0.11,0.48 -0.13,0.47 -0.16,0.47 -0.18,0.45 -0.2,0.44 -0.22,0.43 -0.24,0.42 -0.26,0.4 -0.28,0.39 -0.29,0.38 -0.32,0.36 -0.33,0.35 -0.34,0.33 -0.36,0.31 -0.38,0.29 -0.39,0.28 -0.4,0.26 -0.42,0.24 -0.43,0.22 -0.44,0.2 -0.45,0.18 -0.47,0.16 -0.47,0.13 -0.48,0.11 -0.49,0.09 -0.5,0.06 -0.51,0.04 -0.51,0.01 c -5.5,0 -9.96,-4.46 -9.96,-9.96 0,-5.5 4.46,-9.96 9.96,-9.96 5.5,0 9.96,4.46 9.96,9.96 z"
         inkscape:connector-curvature="0"
         style="fill:#ffffff;fill-rule:nonzero;stroke:#ffffff;stroke-width:0" /><path
         id="path6267"
         d="m 247.27,473.32 -0.01,0.51 -0.04,0.51 -0.06,0.5 -0.09,0.49 -0.11,0.48 -0.13,0.47 -0.16,0.47 -0.18,0.45 -0.2,0.44 -0.22,0.43 -0.24,0.42 -0.26,0.4 -0.28,0.39 -0.29,0.38 -0.32,0.36 -0.33,0.35 -0.34,0.33 -0.36,0.31 -0.38,0.29 -0.39,0.28 -0.4,0.26 -0.42,0.24 -0.43,0.22 -0.44,0.2 -0.45,0.18 -0.47,0.16 -0.47,0.13 -0.48,0.11 -0.49,0.09 -0.5,0.06 -0.51,0.04 -0.51,0.01 c -5.5,0 -9.96,-4.46 -9.96,-9.96 0,-5.5 4.46,-9.96 9.96,-9.96 5.5,0 9.96,4.46 9.96,9.96 z"
         inkscape:connector-curvature="0"
         style="stroke-width:0.3985" /><path
         id="path6269"
         d="m 236.13,474.93 0,0.03 0.01,0.03 0.01,0.03 0.01,0.04 0.01,0.03 0.01,0.05 0.01,0.04 0.02,0.04 0.01,0.05 0.02,0.05 0.02,0.05 0.02,0.05 0.02,0.05 0.03,0.05 0.02,0.05 0.03,0.05 0.03,0.04 0.03,0.05 0.04,0.05 0.03,0.04 0.04,0.05 0.04,0.04 0.04,0.03 0.04,0.04 0.05,0.03 0.05,0.03 0.02,0.01 0.03,0.02 0.03,0.01 0.02,0.01 0.03,0.01 0.03,0 0.03,0.01 0.03,0.01 0.03,0 0.03,0 0.03,0.01 0.03,0 c 0.05,0 0.29,0 0.5,-0.13 -0.28,-0.05 -0.48,-0.3 -0.48,-0.54 0,-0.16 0.11,-0.35 0.38,-0.35 0.22,0 0.54,0.18 0.54,0.58 0,0.52 -0.59,0.66 -0.93,0.66 -0.57,0 -0.92,-0.53 -1.04,-0.76 -0.25,0.66 -0.79,0.76 -1.08,0.76 -1.03,0 -1.6,-1.29 -1.6,-1.54 0,-0.1 0.1,-0.1 0.12,-0.1 0.08,0 0.11,0.02 0.13,0.11 0.34,1.06 0.99,1.31 1.33,1.31 0.19,0 0.54,-0.09 0.54,-0.67 0,-0.31 -0.17,-0.98 -0.54,-2.37 -0.16,-0.62 -0.51,-1.04 -0.94,-1.04 -0.06,0 -0.29,0 -0.5,0.13 0.25,0.05 0.47,0.26 0.47,0.54 0,0.27 -0.22,0.35 -0.37,0.35 -0.3,0 -0.55,-0.26 -0.55,-0.58 0,-0.46 0.5,-0.66 0.93,-0.66 0.66,0 1.02,0.7 1.05,0.76 0.12,-0.37 0.48,-0.76 1.08,-0.76 1.02,0 1.59,1.29 1.59,1.54 0,0.1 -0.09,0.1 -0.12,0.1 -0.09,0 -0.11,-0.04 -0.13,-0.11 -0.33,-1.07 -1,-1.31 -1.32,-1.31 -0.39,0 -0.55,0.32 -0.55,0.66 0,0.22 0.06,0.44 0.17,0.88 z"
         inkscape:connector-curvature="0"
         style="fill:#000000;stroke-width:0" /><path
         id="path6271"
         d="m 240.76,474.78 0,0.01 0,0.01 0,0.01 0,0.01 -0.01,0.02 0,0.01 0,0.01 -0.01,0.01 0,0.01 -0.01,0.01 0,0.01 -0.01,0.01 0,0.01 -0.01,0.02 -0.01,0.01 -0.01,0.01 -0.01,0.01 0,0 -0.01,0.01 -0.02,0.01 -0.01,0.01 -0.01,0.01 -0.01,0 -0.01,0.01 -0.02,0.01 -0.01,0 -0.02,0.01 -0.01,0 -0.02,0 -0.01,0 -0.02,0.01 -0.02,0 c -0.19,0 -0.39,-0.19 -0.39,-0.39 0,-0.12 0.09,-0.26 0.28,-0.26 0.2,0 0.39,0.19 0.39,0.38 z"
         inkscape:connector-curvature="0"
         style="fill:#000000;stroke-width:0" /><path
         id="path6273"
         d="m 239.34,471.24 -0.01,-0.04 -0.01,-0.03 -0.01,-0.02 -0.01,-0.01 0,-0.02 0,-0.02 -0.01,-0.02 0,-0.01 -0.01,-0.02 0,-0.02 0,-0.02 0,-0.01 0,-0.01 -0.01,-0.01 0,-0.01 0,-0.01 0,-0.01 c 0,-0.33 0.28,-0.6 0.67,-0.6 0.69,0 1,0.97 1,1.07 0,0.09 -0.09,0.09 -0.11,0.09 -0.1,0 -0.1,-0.04 -0.13,-0.12 -0.16,-0.56 -0.47,-0.84 -0.74,-0.84 -0.14,0 -0.18,0.09 -0.18,0.24 0,0.16 0.05,0.29 0.12,0.45 0.06,0.19 0.14,0.37 0.22,0.56 0.06,0.16 0.31,0.8 0.34,0.88 0.02,0.07 0.04,0.16 0.04,0.22 0,0.33 -0.28,0.6 -0.66,0.6 -0.69,0 -1.01,-0.95 -1.01,-1.07 0,-0.09 0.1,-0.09 0.12,-0.09 0.09,0 0.1,0.04 0.12,0.11 0.18,0.6 0.49,0.85 0.75,0.85 0.11,0 0.17,-0.05 0.17,-0.24 0,-0.16 -0.04,-0.27 -0.21,-0.7 z"
         inkscape:connector-curvature="0"
         style="fill:#000000;stroke-width:0" /><line
         id="line6275"
         y2="435.62"
         x2="237.31"
         y1="463.16"
         x1="237.31"
         style="stroke-width:0.3985" /><polygon
         id="polygon6277"
         points="239.65,440.82 237.31,435.32 234.97,440.82 "
         style="fill:#000000;fill-rule:nonzero;stroke-width:0" /><polygon
         id="polygon6279"
         points="239.65,440.82 237.31,435.32 234.97,440.82 "
         style="stroke-width:0.3985" /><path
         id="path6281"
         d="m 246.21,408.23 0.01,0.04 0.01,0.03 0.01,0.04 0.02,0.03 0.01,0.03 0.01,0.03 0.01,0.03 0.02,0.03 0.01,0.03 0.02,0.02 0.01,0.03 0.02,0.02 0.02,0.02 0.02,0.02 0.02,0.02 0.03,0.02 0.02,0.02 0.03,0.02 0.03,0.01 0.03,0.02 0.03,0.01 0.03,0.02 0.03,0.01 0.04,0.01 0.04,0.01 0.04,0.01 0.04,0 0.04,0.01 0.05,0.01 0.05,0 0.05,0.01 0.05,0 c 0.08,0 0.14,0.05 0.14,0.15 0,0.05 -0.04,0.11 -0.12,0.11 -0.05,0 -0.2,-0.02 -0.79,-0.02 -0.64,0 -0.75,0.02 -0.82,0.02 -0.12,0 -0.15,-0.09 -0.15,-0.15 0,-0.1 0.11,-0.11 0.18,-0.11 0.48,-0.02 0.48,-0.23 0.48,-0.35 0,-0.04 0,-0.07 -0.03,-0.2 l -0.88,-3.49 -1.92,4.16 c -0.06,0.14 -0.08,0.14 -0.27,0.14 l -1.03,0 c -0.15,0 -0.25,0 -0.25,-0.15 0,-0.11 0.1,-0.11 0.26,-0.11 0.07,0 0.31,0 0.49,-0.05 l -1.07,-4.28 c -0.09,-0.4 -0.3,-0.57 -0.84,-0.59 -0.04,0 -0.14,-0.01 -0.14,-0.15 0,-0.05 0.04,-0.11 0.12,-0.11 0.03,0 0.22,0.02 0.79,0.02 0.63,0 0.75,-0.02 0.82,-0.02 0.03,0 0.15,0 0.15,0.15 0,0.09 -0.09,0.11 -0.14,0.11 -0.29,0.01 -0.53,0.06 -0.53,0.34 0,0.04 0.03,0.15 0.03,0.16 l 1.04,4.16 0.01,0 2.21,-4.78 c 0.06,-0.13 0.07,-0.14 0.16,-0.14 0.11,0 0.11,0.03 0.15,0.17 z"
         inkscape:connector-curvature="0"
         style="fill:#000000;stroke-width:0" /><path
         id="path6283"
         d="m 247.01,487 -19.4,0 c -2.2,0 -3.98,-1.78 -3.98,-3.98 l 0,-78.89 c 0,-2.2 1.78,-3.99 3.98,-3.99 l 19.4,0 c 2.2,0 3.98,1.79 3.98,3.99 l 0,78.89 c 0,2.2 -1.78,3.98 -3.98,3.98 z"
         inkscape:connector-curvature="0"
         style="stroke-width:0.3985" /></g>  </g>
</svg>
