<?xml version="1.0"?><svg width="190" height="190" xmlns="http://www.w3.org/2000/svg" xmlns:xlink="http://www.w3.org/1999/xlink">
 <title>X mark</title>
 <metadata id="metadata7">image/svg+xml</metadata>
 <defs>
  <symbol viewBox="0 0 18 18" height="18px" width="18px" y="0px" x="0px" xmlns:xlink="http://www.w3.org/1999/xlink" id="svg_475">
   <g transform="translate(-158.857, -405.505)" id="svg_473">
    <path d="m176.067993,407.131989l0.375,0.550995c-0.033005,0.134003 -0.117004,0.28302 -0.251007,0.450012c-0.066986,0.049988 -0.100998,0.100983 -0.100998,0.151001c0,0.015991 0.016998,0.057983 0.050003,0.125c-2.153,2.169983 -3.979004,4.205994 -5.481995,6.108002c2.019989,2.67099 3.253998,4.199982 3.705002,4.582001c-0.084,0.467987 -0.266998,0.826996 -0.55101,1.076996c-0.099991,0.083984 -0.224991,0.182983 -0.375992,0.299988c-0.266006,0.218994 -0.399002,0.334991 -0.399002,0.352997l0,0.02301l0.074997,0.274994c-0.067993,0.03299 -0.126999,0.09201 -0.175995,0.175018c-0.184006,0.217987 -0.38501,0.368988 -0.600998,0.451996c-0.067001,0 -0.150009,-0.050018 -0.251999,-0.151001c-0.06601,-0.048004 -0.149002,-0.108002 -0.249008,-0.175018c-0.100998,-0.066986 -0.149002,-0.100983 -0.149002,-0.100983c-0.01799,-0.016022 -0.033997,-0.024994 -0.050995,-0.024994c0,0 -0.026001,0.017975 -0.076004,0.050995c-0.349991,0.434998 -0.666992,0.709991 -0.951004,0.826996c-0.049988,0 -0.116989,-0.024994 -0.199997,-0.076019c-0.533997,-0.548981 -1.100998,-1.267975 -1.701996,-2.151978c-0.5,-0.751007 -0.875,-1.287018 -1.126999,-1.604004l-0.249008,0.350006l-1.727997,2.255005c-0.216995,0.283997 -0.834,1.135986 -1.852997,2.552979l-0.326004,0l-0.47699,-0.523987c0.033997,-0.134003 0.051987,-0.201019 0.051987,-0.201019c0.033005,-0.099976 0.049011,-0.148987 0.049011,-0.148987c0,-0.100006 -0.050003,-0.151001 -0.150009,-0.151001s-0.25,0.052002 -0.449997,0.151001c-0.018005,0 -0.067001,0.023987 -0.149994,0.075012c-0.184006,-0.101013 -0.451004,-0.434998 -0.802002,-1.001007c-0.100006,-0.149017 -0.149002,-0.251007 -0.149002,-0.300995c0,-0.03302 0.042007,-0.109009 0.125,-0.226013c0.117004,-0.184998 0.175003,-0.333984 0.175003,-0.450012c0,-0.03299 -0.083008,-0.227997 -0.25,-0.575989c-0.083008,-0.251007 -0.124008,-0.375 -0.124008,-0.375l1.225998,-1.578003l2.729004,-3.152985c0.067001,-0.10202 0.134003,-0.184998 0.199997,-0.251007c-1.084,-1.886017 -1.967987,-3.755005 -2.653,-5.609009c-0.149994,-0.450989 -0.240997,-0.768005 -0.274994,-0.950989c0.233994,-0.367004 0.542007,-0.735992 0.927002,-1.102997c0.166992,0.134003 0.291,0.234985 0.375,0.300995c0.065994,0.117004 0.132996,0.174988 0.199997,0.174988c0.167007,0 0.274994,-0.123993 0.324997,-0.375c0.05101,-0.467987 0.259003,-0.709991 0.626999,-0.725983c0.117004,0 0.275009,0.108002 0.475006,0.324005c1.052994,1.720001 2.063004,3.246979 3.028992,4.582977c2.172012,-2.386993 3.964005,-4.230988 5.384003,-5.533997c0.284012,-0.25 0.44101,-0.375 0.475998,-0.375c0.083008,0 0.334,0.208008 0.752014,0.625l0.148987,0.201019c0,0.03299 -0.024994,0.090973 -0.074997,0.175995c-0.03299,0.03299 -0.048996,0.065979 -0.048996,0.098999c0,0.049988 0.149002,0.18399 0.447998,0.402008l0.376999,-0.100006l0.149002,0.222992z" id="svg_474"/>
   </g>
  </symbol>
  <linearGradient y2="42.883698" y1="44.066776" xlink:href="#svg_490" x2="23.389874" x1="23.402565" id="svg_482" gradientUnits="userSpaceOnUse"/>
  <linearGradient id="svg_509">
   <stop stop-color="#cf0000" offset="0" id="svg_511"/>
   <stop stop-color="#ff8ba4" offset="1" id="svg_510"/>
  </linearGradient>
  <linearGradient y2="43.892632" y1="42.754631" xlink:href="#svg_509" x2="23.20129" x1="23.21398" id="svg_484" gradientUnits="userSpaceOnUse"/>
  <linearGradient y2="43.710873" y1="42.767944" xlink:href="#svg_494" x2="23.44058" x1="23.349695" id="svg_486" gradientUnits="userSpaceOnUse"/>
  <linearGradient y2="44" y1="42.42923" xlink:href="#svg_496" x2="23.200001" x1="23.193102" id="svg_488" gradientUnits="userSpaceOnUse"/>
  <linearGradient id="svg_490">
   <stop stop-color="#ffffff" stop-opacity="0" offset="0" id="svg_508"/>
   <stop stop-color="#ffffff" stop-opacity="0.87451" offset="1" id="svg_507"/>
  </linearGradient>
  <linearGradient id="svg_494">
   <stop stop-color="#828282" offset="0" id="svg_502"/>
   <stop stop-color="#929292" stop-opacity="0.352941" offset="1" id="svg_501"/>
  </linearGradient>
  <linearGradient id="svg_496">
   <stop stop-color="#adadad" offset="0" id="svg_499"/>
   <stop stop-color="#f0f0f0" offset="1" id="svg_498"/>
  </linearGradient>
  <symbol xmlns:xlink="http://www.w3.org/1999/xlink" width="50px" id="svg_512" height="50px">

   <g id="svg_479">
    <g transform="matrix(31.25, 0, 0, 31.25, -625.023, -1325)" id="svg_480">
     <path fill="url(#svg_488)" stroke-width="0.8" stroke-linecap="round" stroke-linejoin="round" stroke-miterlimit="4" transform="translate(-2.39926, -1e-06)" id="svg_487" d="m24.000002,43.200001c0,0.441601 -0.3584,0.799999 -0.800001,0.799999c-0.441599,0 -0.799999,-0.358398 -0.799999,-0.799999c0,-0.441601 0.3584,-0.799999 0.799999,-0.799999c0.441601,0 0.800001,0.358398 0.800001,0.799999z"/>
     <path fill="url(#svg_486)" stroke-width="0.8" stroke-linecap="round" stroke-linejoin="round" stroke-miterlimit="4" transform="matrix(1.08247, 0, 0, 1.08247, -4.43165, -3.66702)" id="svg_485" d="m23.906359,43.296204c0,0.329231 -0.2672,0.596428 -0.59643,0.596428c-0.329229,0 -0.59643,-0.267197 -0.59643,-0.596428c0,-0.329227 0.2672,-0.596428 0.59643,-0.596428c0.329229,0 0.59643,0.2672 0.59643,0.596428z"/>
     <path fill="url(#svg_484)" stroke-width="0.8" stroke-linecap="round" stroke-linejoin="round" stroke-miterlimit="4" transform="matrix(0.969072, 0, 0, 0.969072, -1.78826, 1.24286)" id="svg_483" d="m23.906359,43.296204c0,0.329231 -0.2672,0.596428 -0.59643,0.596428c-0.329229,0 -0.59643,-0.267197 -0.59643,-0.596428c0,-0.329227 0.2672,-0.596428 0.59643,-0.596428c0.329229,0 0.59643,0.2672 0.59643,0.596428z"/>
     <path fill="url(#svg_482)" stroke-width="0.8" stroke-linecap="round" stroke-linejoin="round" stroke-miterlimit="4" transform="matrix(0.773196, 0, 0, 0.597938, 2.77686, 17.1188)" id="svg_481" d="m23.906359,43.296204c0,0.329231 -0.2672,0.596428 -0.59643,0.596428c-0.329229,0 -0.59643,-0.267197 -0.59643,-0.596428c0,-0.329227 0.2672,-0.596428 0.59643,-0.596428c0.329229,0 0.59643,0.2672 0.59643,0.596428z"/>
    </g>
   </g>
  </symbol>
 </defs>
 <g>
  <title>Layer 1</title>
  <use x="0" y="0" transform="matrix(1.26667, 0, 0, 1.26667, 0, 0)" xlink:href="#svg_512" id="svg_513"/>
  <text id="svg_3" transform="matrix(1.03529, 0, 0, 1.01137, -0.352941, -2.08749)" font-size="40px" font-style="normal" font-weight="normal" fill="#003f7f" stroke-width="1px" font-family="Kochi Gothic" xml:space="preserve" x="-35.2492" y="96.6971"/>
  <text xml:space="preserve" text-anchor="middle" font-family="Arial Black" font-size="14" id="svg_477" y="38" x="32" stroke-width="0" fill="#000000">Wrong</text>
  <use fill="#ff0000" x="-71.494095" y="-7.158994" transform="matrix(1.80318, 0, 0, 1.90284, 143.57, 28.1632)" xlink:href="#svg_475" id="svg_476"/>
 </g>
</svg>